<?xml version="1.0" encoding="UTF-8"?>
<svg width="196px" height="196px" viewBox="0 0 196 196" version="1.1" xmlns="http://www.w3.org/2000/svg" xmlns:xlink="http://www.w3.org/1999/xlink">
    <!-- Generator: Sketch 43.2 (39069) - http://www.bohemiancoding.com/sketch -->
    <title>SVG</title>
    <desc>Created with Sketch.</desc>
    <defs></defs>
    <g id="Favicons" stroke="none" stroke-width="1" fill="none" fill-rule="evenodd">
        <g id="SVG" fill-rule="nonzero" fill="#182E8B">
            <path d="M152.730153,87.0962481 C149.201064,91.4846085 144.471105,94.8432977 139.839176,97.9813431 C130.514049,104.306466 120.40468,109.773529 112.648037,118.108962 C105.386958,125.827921 100.447747,135.437838 98.396891,145.836536 C97.365273,150.85664 97.5163058,156.048077 98.8380271,160.999669 C100.258782,165.822462 102.713423,170.277471 106.030996,174.054428 C110.157557,178.626761 115.030297,182.464947 120.441442,185.405327 C122.961567,186.848744 125.573074,188.126284 128.259354,189.22982 C129.25191,189.634333 130.244466,189.977557 131.26153,190.284007 C131.531113,190.357555 133.454956,190.725295 133.491718,191.068518 C133.491718,191.068518 126.935945,189.842719 126.347764,189.622076 C122.941213,188.776274 119.55917,187.844667 116.213888,186.79048 C109.449378,184.686499 102.867698,182.034064 96.5343164,178.85956 C85.2363309,173.122821 74.1589135,164.922226 68.7549964,153.117782 C65.8799853,146.699045 64.9265649,139.584255 66.0101496,132.634681 C67.0639747,125.782464 70.0538971,119.457341 72.0757709,112.874801 C76.0092344,100.016169 77.5654645,85.2330336 71.0341996,72.9260118 C68.3153485,67.7478566 64.2732776,63.3829505 59.3195856,60.2757662 C54.0504601,57.0273989 47.1883431,54.6738648 41.000184,56.3286935 C40.240131,56.5343937 39.5046723,56.822102 38.8067574,57.1867528 C38.3043524,57.4564285 37.7284247,58.05707 37.1647508,58.1673919 C35.7923274,58.4370677 36.1599408,56.6351432 36.3314937,55.8383739 C37.0761706,52.8471518 38.2003931,49.9635397 39.6767758,47.2577809 C42.9199615,41.1229335 46.8857312,35.3985758 51.48942,30.206917 C55.9267281,25.1202098 60.8517879,20.4808519 66.1939563,16.3553884 C70.6480758,13.1856282 75.5844891,10.7558964 80.8127162,9.15994837 C91.8411185,5.4825514 103.567986,4.56320216 114.657657,8.42446897 C120.364829,10.5476589 125.805395,13.3285252 130.869409,16.7108701 C135.61692,19.7241638 139.911973,23.3974687 143.625594,27.6204811 C147.400482,32.0866235 150.667768,36.9584009 153.367349,42.1461992 C156.663784,48.0963163 158.74635,54.6419835 159.49424,61.4035013 C159.802127,64.7120176 159.711617,68.0455526 159.224656,71.3324731 C158.515015,77.0753455 156.271537,82.5208244 152.730153,87.0962481 Z" id="Shape"></path>
        </g>
    </g>
</svg>