<?xml version="1.0" encoding="UTF-8"?>
<svg width="1969px" height="1303px" viewBox="0 0 1969 1303" version="1.1" xmlns="http://www.w3.org/2000/svg" xmlns:xlink="http://www.w3.org/1999/xlink">
    <!-- Generator: Sketch 43.2 (39069) - http://www.bohemiancoding.com/sketch -->
    <title>Group</title>
    <desc>Created with Sketch.</desc>
    <defs></defs>
    <g id="Cameras" stroke="none" stroke-width="1" fill="none" fill-rule="evenodd">
        <g id="Artboard-Copy-7" transform="translate(0.000000, -80.000000)" stroke="#000000" stroke-width="3">
            <g id="Group" transform="translate(418.000000, 82.000000)">
                <path d="M2,1297 L896,1299 C896,1299 1030,1286 1135,1210 L1135,335 C1135,335 995,424 770,417 L0,421 L2,1297 Z" id="Path-52"></path>
                <path d="M58,489 C58,500 57,537 57,537 C57,537 57,550 70,550 L107,549 C107,549 118,550 118,537 L118,489 C118,489 120.432396,476 104,476 L68,476 C68,476 58,478 58,489 Z" id="Path-53"></path>
                <path d="M188,489 C188,500 187,537 187,537 C187,537 187,550 200,550 L237,549 C237,549 248,550 248,537 L248,489 C248,489 250.432396,476 234,476 L198,476 C198,476 188,478 188,489 Z" id="Path-53"></path>
                <path d="M318,489 C318,500 317,537 317,537 C317,537 317,550 330,550 L367,549 C367,549 378,550 378,537 L378,489 C378,489 380.432396,476 364,476 L328,476 C328,476 318,478 318,489 Z" id="Path-53"></path>
                <path d="M448,489 C448,500 447,537 447,537 C447,537 447,550 460,550 L497,549 C497,549 508,550 508,537 L508,489 C508,489 510.432396,476 494,476 L458,476 C458,476 448,478 448,489 Z" id="Path-53"></path>
                <path d="M578,489 C578,500 577,537 577,537 C577,537 577,550 590,550 L627,549 C627,549 638,550 638,537 L638,489 C638,489 640.432396,476 624,476 L588,476 C588,476 578,478 578,489 Z" id="Path-53"></path>
                <path d="M708,489 C708,500 707,537 707,537 C707,537 707,550 720,550 L757,549 C757,549 768,550 768,537 L768,489 C768,489 770.432396,476 754,476 L718,476 C718,476 708,478 708,489 Z" id="Path-53"></path>
                <path d="M834,477.833346 C834.078033,488.824673 836,526 836,526 C836,526 837.799965,539.379224 847,539 L872.571489,535.259987 C872.571489,535.259987 880.359238,535.899685 880.448024,523.524891 L880.775849,477.833346 C880.775849,477.833346 882.911374,461.47935 871,461 L844.607728,464 C844.607728,464 833.921967,466.842018 834,477.833346 Z" id="Path-53"></path>
                <path d="M947.594722,462.153635 C947.551215,472.938905 946.714652,509.227885 946.714652,509.227885 C946.714652,509.227885 946.661469,521.980155 955.656653,521.753943 L981,517 C981,517 988.675531,514.372179 988.626028,502 L988.626028,462.83824 C988.626028,462.83824 990.212818,446.297109 979,446 L954.465937,449.579342 C954.465937,449.579342 947.63823,451.368364 947.594722,462.153635 Z" id="Path-53-Copy"></path>
                <path d="M1036.59472,441.153635 C1036.55121,451.938905 1038,488 1038,488 C1038,488 1039.00482,499.226212 1048,499 L1070,493 C1070,493 1075.0495,492.372179 1075,480 L1075,441.153635 C1075,441.153635 1077.21282,423.297109 1066,423 L1043.46594,428.579342 C1043.46594,428.579342 1036.63823,430.368364 1036.59472,441.153635 Z" id="Path-53-Copy"></path>
                <path d="M1105,413.153635 C1104.95649,423.938905 1105,456 1105,456 C1105,456 1105,468 1110.95037,468 L1120,464 C1120,464 1124.0495,464.372179 1124,452 L1124,413.153635 C1124,413.153635 1125,398 1120,398 L1109,400 C1109,400 1105.04351,402.368364 1105,413.153635 Z" id="Path-53-Copy"></path>
                <path d="M824,1177.83335 C824.078033,1188.82467 826,1226 826,1226 C826,1226 827.799965,1239.37922 837,1239 L862.571489,1235.25999 C862.571489,1235.25999 870.359238,1235.89969 870.448024,1223.52489 L870.775849,1177.83335 C870.775849,1177.83335 872.911374,1161.47935 861,1161 L834.607728,1164 C834.607728,1164 823.921967,1166.84202 824,1177.83335 Z" id="Path-53"></path>
                <path d="M937.594722,1162.15363 C937.551215,1172.93891 936.714652,1209.22789 936.714652,1209.22789 C936.714652,1209.22789 936.661469,1221.98016 945.656653,1221.75394 L971,1217 C971,1217 978.675531,1214.37218 978.626028,1202 L978.626028,1162.83824 C978.626028,1162.83824 980.212818,1146.29711 969,1146 L944.465937,1149.57934 C944.465937,1149.57934 937.63823,1151.36836 937.594722,1162.15363 Z" id="Path-53-Copy"></path>
                <path d="M1026.59472,1141.15363 C1026.55121,1151.93891 1028,1188 1028,1188 C1028,1188 1029.00482,1199.22621 1038,1199 L1060,1193 C1060,1193 1065.0495,1192.37218 1065,1180 L1065,1141.15363 C1065,1141.15363 1067.21282,1123.29711 1056,1123 L1033.46594,1128.57934 C1033.46594,1128.57934 1026.63823,1130.36836 1026.59472,1141.15363 Z" id="Path-53-Copy"></path>
                <path d="M1095,1113.15363 C1094.95649,1123.93891 1095,1156 1095,1156 C1095,1156 1095,1168 1100.95037,1168 L1110,1164 C1110,1164 1114.0495,1164.37218 1114,1152 L1114,1113.15363 C1114,1113.15363 1115,1098 1110,1098 L1099,1100 C1099,1100 1095.04351,1102.36836 1095,1113.15363 Z" id="Path-53-Copy"></path>
                <path d="M58,1189 C58,1200 57,1237 57,1237 C57,1237 57,1250 70,1250 L107,1249 C107,1249 118,1250 118,1237 L118,1189 C118,1189 120.432396,1176 104,1176 L68,1176 C68,1176 58,1178 58,1189 Z" id="Path-53"></path>
                <path d="M188,1189 C188,1200 187,1237 187,1237 C187,1237 187,1250 200,1250 L237,1249 C237,1249 248,1250 248,1237 L248,1189 C248,1189 250.432396,1176 234,1176 L198,1176 C198,1176 188,1178 188,1189 Z" id="Path-53"></path>
                <path d="M318,1189 C318,1200 317,1237 317,1237 C317,1237 317,1250 330,1250 L367,1249 C367,1249 378,1250 378,1237 L378,1189 C378,1189 380.432396,1176 364,1176 L328,1176 C328,1176 318,1178 318,1189 Z" id="Path-53"></path>
                <path d="M448,1189 C448,1200 447,1237 447,1237 C447,1237 447,1250 460,1250 L497,1249 C497,1249 508,1250 508,1237 L508,1189 C508,1189 510.432396,1176 494,1176 L458,1176 C458,1176 448,1178 448,1189 Z" id="Path-53"></path>
                <path d="M578,1189 C578,1200 577,1237 577,1237 C577,1237 577,1250 590,1250 L627,1249 C627,1249 638,1250 638,1237 L638,1189 C638,1189 640.432396,1176 624,1176 L588,1176 C588,1176 578,1178 578,1189 Z" id="Path-53"></path>
                <path d="M708,1189 C708,1200 707,1237 707,1237 C707,1237 707,1250 720,1250 L757,1249 C757,1249 768,1250 768,1237 L768,1189 C768,1189 770.432396,1176 754,1176 L718,1176 C718,1176 708,1178 708,1189 Z" id="Path-53"></path>
                <path d="M481.5,551 L481.5,478" id="Path-54"></path>
                <path d="M481,416 L481,244 C481,244 463,239 463,221 L463,155 C463,155 483,94 647,83 L648,38 C648,38 662.45241,19.3547906 706,9 C750.571472,-1.59825047 833,-4 881,9 C929,22 934,37 934,37 L935,83 C935,83 1089,102 1113,152 L1111,202 L1134,227 L1135,334" id="Path-55"></path>
                <path d="M788,417 L788,304 C788,304 929,310 1067,265 C1067,265 1063,287 1101,276 L1103,351" id="Path-56"></path>
                <path d="M463,156 C463,156 443,209 608,235 C773,261 856,262 985,226 C1120.05221,188.311011 1113,153 1113,153" id="Path-57"></path>
                <path d="M836,518 C836,518 857,521 881,517" id="Path-58"></path>
                <path d="M946.014653,507.209553 C946.014653,507.209553 965.609334,510.209553 988.003254,506.209553" id="Path-58" transform="translate(967.008954, 507.249553) rotate(-8.000000) translate(-967.008954, -507.249553) "></path>
                <path d="M1036.69223,487.453044 C1036.69223,487.453044 1053.12725,486.67874 1075.52117,482.67874" id="Path-58" transform="translate(1056.106701, 485.065892) rotate(-8.000000) translate(-1056.106701, -485.065892) "></path>
                <path d="M793,61 C793,61 670,63 670,35.2755852 C670,7.55117037 793,4 793,4 C793,4 908,5 910,32 C912,59 793,61 793,61 Z" id="Path-59"></path>
                <path d="M648,168 C648,168 611,186 648,202 C685,218 722,226 783,226 C844,226 894,224 933,202 C972,180 937,168 937,168" id="Path-60"></path>
                <path d="M647,83 L648.5,178" id="Path-61"></path>
                <path d="M935,83 L936.5,178" id="Path-61"></path>
            </g>
        </g>
    </g>
</svg>