<?xml version="1.0" encoding="UTF-8"?>
<svg width="741px" height="578px" viewBox="0 0 741 578" version="1.1" xmlns="http://www.w3.org/2000/svg" xmlns:xlink="http://www.w3.org/1999/xlink">
    <!-- Generator: Sketch 43.2 (39069) - http://www.bohemiancoding.com/sketch -->
    <title>Group 2</title>
    <desc>Created with Sketch.</desc>
    <defs></defs>
    <g id="Cameras" stroke="none" stroke-width="1" fill="none" fill-rule="evenodd">
        <g id="Artboard-Copy-2" transform="translate(-798.000000, -443.000000)">
            <g id="Group-2" transform="translate(992.000000, 444.000000)">
                <path d="M130,284 C97,248 114,115 117,115 C120,115 122,238 126,238 C130,238 134,115 138,115 C142,115 146,225 149,225 C152,225 156,115 160,115 C164,115 167,222.748908 172,223 C177,223.251092 179,115 182,115 C185,115 191,223 194,223 C197,223 202,115 205,115 C208,115 213,238 216,238 C219,238 224,113 226,113 C228,113 244,255 213,279" id="Path-28" stroke="#FFFFFF" stroke-width="9"></path>
                <path d="M156,405 C156,405 163,318 130,282 C97,246 114,115 117,115 C120,115 121,238 125,238 C129,238 134,114 138,114 C142,114 145,225 148,225 C151,225 156,115 160,115 C164,115 166,222.748908 171,223 C176,223.251092 179,114 182,114 C185,114 190,223 193,223 C196,223 202,115 205,115 C208,115 212,238 215,238 C218,238 224,113 226,113 C228,113 246,252 215,276 C184,300 186,405 186,405" id="Path-28" stroke="#000000" stroke-width="2"></path>
                <path d="M93,423 C93,423 96,410 86,397 C76,384 70,349 69,323 C68,297 -63,210 41,63 C83.6978963,2.64816576 124,-5.68434226e-13 175,3.41060513e-13 C233.960602,1.39251846e-12 283,35 295,54 C324.515374,100.732676 383.176556,197.926374 272,323 C264,332 276,351 256,397 C256,397 247,420 250,432" id="Path-30" stroke="#000000" stroke-width="2"></path>
                <path d="M86,397 C86,408 256,408 256,397 C256,386 86,386 86,397 Z" id="Path-29" stroke="#000000" stroke-width="2"></path>
                <path d="M91,447 C80,447 78,457 84,462 C90,467 223.657255,475.645699 251,472 C266,470 258.161764,456.716176 251,456 C246.096284,455.509628 208.037831,458.088119 170,456 C131.962169,453.911881 102,447 91,447 Z" id="Path-31" stroke="#000000" stroke-width="2"></path>
                <path d="M91,471 C80,471 78,481 84,486 C90,491 223.657255,499.645699 251,496 C266,494 258.161764,480.716176 251,480 C246.096284,479.509628 208.037831,482.088119 170,480 C131.962169,477.911881 102,471 91,471 Z" id="Path-31" stroke="#000000" stroke-width="2"></path>
                <path d="M91,423 C80,423 78,433 84,438 C90,443 223.657255,451.645699 251,448 C266,446 258.161764,432.716176 251,432 C246.096284,431.509628 208.037831,434.088119 170,432 C131.962169,429.911881 102,423 91,423 Z" id="Path-31" stroke="#000000" stroke-width="2"></path>
                <path d="M91,495 C80,495 78,505 84,510 C90,515 223.657255,523.645699 251,520 C266,518 258.161764,504.716176 251,504 C246.096284,503.509628 208.037831,506.088119 170,504 C131.962169,501.911881 102,495 91,495 Z" id="Path-31" stroke="#000000" stroke-width="2"></path>
                <path d="M91,519 C80,519 78,529 84,534 C90,539 223.657255,547.645699 251,544 C266,542 258.161764,528.716176 251,528 C246.096284,527.509628 208.037831,530.088119 170,528 C131.962169,525.911881 102,519 91,519 Z" id="Path-31" stroke="#000000" stroke-width="2"></path>
                <path d="M88,439 C88,439 88,445 89,447" id="Path-32" stroke="#000000" stroke-width="2"></path>
                <path d="M88,463 C88,463 88,469 89,471" id="Path-32" stroke="#000000" stroke-width="2"></path>
                <path d="M90,488 C90,488 90,493 91,495" id="Path-32" stroke="#000000" stroke-width="2"></path>
                <path d="M92,512 C92,512 92,517 93,519" id="Path-32" stroke="#000000" stroke-width="2"></path>
                <path d="M248.28,520 C248.28,520 246.28,526 247.28,528" id="Path-32" stroke="#000000" stroke-width="2" transform="translate(247.640000, 524.000000) rotate(-180.000000) translate(-247.640000, -524.000000) "></path>
                <path d="M249.28,496 C249.28,496 247.28,502 248.28,504" id="Path-32" stroke="#000000" stroke-width="2" transform="translate(248.640000, 500.000000) rotate(-180.000000) translate(-248.640000, -500.000000) "></path>
                <path d="M250.28,472 C250.28,472 248.28,478 249.28,480" id="Path-32" stroke="#000000" stroke-width="2" transform="translate(249.640000, 476.000000) rotate(-180.000000) translate(-249.640000, -476.000000) "></path>
                <path d="M251.28,448 C251.28,448 249.28,454 250.28,456" id="Path-32" stroke="#000000" stroke-width="2" transform="translate(250.640000, 452.000000) rotate(-180.000000) translate(-250.640000, -452.000000) "></path>
                <path d="M97,537 C97,537 111,557 133,565 C133,565 139,576 172,576 C205,576 209,564 209,564 C209,564 221,562 240,545" id="Path-33" stroke="#000000" stroke-width="2"></path>
                <path d="M209,564 C208.121094,564 203,568 170,568 C137,568 134.937508,565.484377 133,565" id="Path-34" stroke="#000000" stroke-width="2"></path>
            </g>
        </g>
    </g>
</svg>