<?xml version="1.0" encoding="UTF-8"?>
<svg width="503px" height="623px" viewBox="0 0 503 623" version="1.1" xmlns="http://www.w3.org/2000/svg" xmlns:xlink="http://www.w3.org/1999/xlink">
    <title>Lightbulb</title>
    <defs></defs>
    <g id="Cameras" stroke="none" stroke-width="1" fill="none" fill-rule="evenodd">
        <g id="Artboard-Copy-2" transform="translate(-613.000000, -193.000000)">
            <g id="Group" transform="translate(615.000000, 193.000000)">
                <path d="M180.984119,500.568738 L325.563842,501.152542" id="Path-4" stroke="#000000" stroke-width="2"></path>
                <path d="M185.35649,518 L323.814893,518" id="Path-5" stroke="#000000" stroke-width="2"></path>
                <path d="M180.984119,535.596987 L325.563842,536.180791" id="Path-4" stroke="#000000" stroke-width="2"></path>
                <path d="M185.647981,556.030132 L323.814893,553.111111" id="Path-5" stroke="#000000" stroke-width="2"></path>
                <path d="M190.894826,572.960452 C190.894826,572.960452 187.979912,620.248588 250.942049,621.416196 C313.904187,622.583804 320.316997,567.122411 320.316997,567.122411" id="Path-6" stroke="#000000" stroke-width="2"></path>
                <path d="M243.699412,482.384181 C243.699412,482.384181 248.946256,400.067797 234.371687,349.276836 C219.797119,298.485876 202.890619,272.798493 177.82236,282.13936 C152.754102,291.480226 168.494636,321.838041 195.311843,327.092279 C222.12905,332.346516 254.193101,335.849341 274.597497,308.99435 C295.001894,282.13936 292.08698,251.19774 272.265566,250.030132 C252.444153,248.862524 233.788705,265.20904 246.614325,296.150659 C259.439946,327.092279 289.755049,324.757062 306.078566,323.00565 C322.402083,321.254237 345.721393,295.566855 331.146824,275.717514 C316.572256,255.868173 277.512411,314.832392 272.265566,350.444444 C267.018722,386.056497 258.27398,407.073446 265.269773,478.297552" id="Path-7" stroke="#FFFFFF" stroke-width="5"></path>
                <path d="M238.699412,480.384181 C238.699412,480.384181 243.946256,398.067797 229.371687,347.276836 C214.797119,296.485876 197.890619,270.798493 172.82236,280.13936 C147.754102,289.480226 163.494636,319.838041 190.311843,325.092279 C217.12905,330.346516 249.193101,333.849341 269.597497,306.99435 C290.001894,280.13936 287.08698,249.19774 267.265566,248.030132 C247.444153,246.862524 228.788705,263.20904 241.614325,294.150659 C254.439946,325.092279 284.755049,322.757062 301.078566,321.00565 C317.402083,319.254237 340.721393,293.566855 326.146824,273.717514 C311.572256,253.868173 272.512411,312.832392 267.265566,348.444444 C262.018722,384.056497 253.27398,405.073446 260.269773,476.297552" id="Path-7" stroke="#000000" stroke-width="5"></path>
                <path d="M140.758309,388.478343 C88.8728441,349.363465 79.54512,300.323917 79.54512,233.186441 C79.54512,166.048964 116.856016,116.425612 221.792912,104.165725 C326.729807,91.905838 366.372634,134.6879 390.85791,213.920904 C415.343186,293.153908 367.5386,377.969868 344.21929,408.911488 C320.89998,439.853107 326.729807,483.638418 326.729807,483.638418 L180.401136,484.222222 C180.401136,484.222222 192.643774,427.59322 140.758309,388.478343 Z" id="Path-3" stroke="#000000" stroke-width="2"></path>
                <path d="M429.064039,159.405055 C475.70266,138.388105 499.604952,129.631043 499.604952,129.631043" id="Path-10" stroke="#FFFFFF" stroke-width="5"></path>
                <path d="M425.064039,156.405055 C471.70266,135.388105 495.604952,126.631043 495.604952,126.631043" id="Path-10" stroke="#000000" stroke-width="5"></path>
                <path d="M353.300169,87.6516008 L394.108962,40.9472693" id="Path-10" stroke="#FFFFFF" stroke-width="5"></path>
                <path d="M348.300169,86.6516008 L389.108962,39.9472693" id="Path-10" stroke="#000000" stroke-width="5"></path>
                <path d="M254.193101,61.299435 L254.193101,0" id="Path-10" stroke="#FFFFFF" stroke-width="5"></path>
                <path d="M249.193101,63.299435 L249.193101,2" id="Path-10" stroke="#000000" stroke-width="5"></path>
                <path d="M152.086033,82.6516008 L111.860223,34.779661" id="Path-10" stroke="#FFFFFF" stroke-width="5"></path>
                <path d="M150.086033,86.6516008 L109.860223,38.779661" id="Path-10" stroke="#000000" stroke-width="5"></path>
                <path d="M68.4684477,151.124294 L0,104" id="Path-10" stroke="#FFFFFF" stroke-width="5"></path>
                <path d="M68.4684477,156.124294 L0,109" id="Path-10" stroke="#000000" stroke-width="5"></path>
            </g>
        </g>
    </g>
</svg>
