<?xml version="1.0" encoding="UTF-8"?>
<svg width="482px" height="621px" viewBox="0 0 482 621" version="1.1" xmlns="http://www.w3.org/2000/svg" xmlns:xlink="http://www.w3.org/1999/xlink">
    <!-- Generator: Sketch 43.2 (39069) - http://www.bohemiancoding.com/sketch -->
    <title>Group</title>
    <desc>Created with Sketch.</desc>
    <defs></defs>
    <g id="Cameras" stroke="none" stroke-width="1" fill="none" fill-rule="evenodd">
        <g id="Artboard-Copy-2" transform="translate(-630.000000, -195.000000)" stroke="#000000">
            <g id="Group" transform="translate(631.000000, 195.000000)">
                <path d="M163.818153,475.216573 C163.818153,475.216573 176.643774,425.59322 124.758309,386.478343 C72.8728441,347.363465 63.54512,298.323917 63.54512,231.186441 C63.54512,164.048964 100.856016,114.425612 205.792912,102.165725 C310.729807,89.905838 350.372634,132.6879 374.85791,211.920904 C399.343186,291.153908 351.5386,375.969868 328.21929,406.911488 C304.89998,437.853107 310.729807,481.638418 310.729807,481.638418 L164.401136,482.222222 L163.818153,475.216573 Z" id="Path-3" stroke-width="2"></path>
                <path d="M164.984119,498.568738 L309.563842,499.152542" id="Path-4" stroke-width="2"></path>
                <path d="M169.35649,516 L307.814893,516" id="Path-5" stroke-width="2"></path>
                <path d="M164.984119,533.596987 L309.563842,534.180791" id="Path-4" stroke-width="2"></path>
                <path d="M169.647981,554.030132 L307.814893,551.111111" id="Path-5" stroke-width="2"></path>
                <path d="M174.894826,570.960452 C174.894826,570.960452 171.979912,618.248588 234.942049,619.416196 C297.904187,620.583804 304.316997,565.122411 304.316997,565.122411" id="Path-6" stroke-width="2"></path>
                <path d="M222.699412,476.384181 C222.699412,476.384181 227.946256,394.067797 213.371687,343.276836 C198.797119,292.485876 181.890619,266.798493 156.82236,276.13936 C131.754102,285.480226 147.494636,315.838041 174.311843,321.092279 C201.12905,326.346516 233.193101,329.849341 253.597497,302.99435 C274.001894,276.13936 271.08698,245.19774 251.265566,244.030132 C231.444153,242.862524 212.788705,259.20904 225.614325,290.150659 C238.439946,321.092279 268.755049,318.757062 285.078566,317.00565 C301.402083,315.254237 324.721393,289.566855 310.146824,269.717514 C295.572256,249.868173 256.512411,308.832392 251.265566,344.444444 C246.018722,380.056497 237.27398,401.073446 244.269773,472.297552" id="Path-7" stroke-width="4"></path>
                <path d="M409.064039,154.405055 C455.70266,133.388105 479.604952,124.631043 479.604952,124.631043" id="Path-10" stroke-width="4"></path>
                <path d="M332.300169,84.6516008 L373.108962,37.9472693" id="Path-10" stroke-width="4"></path>
                <path d="M233.193101,61.299435 L233.193101,0" id="Path-10" stroke-width="4"></path>
                <path d="M134.086033,84.6516008 L93.8602232,36.779661" id="Path-10" stroke-width="4"></path>
                <path d="M52.4684477,154.124294 L0,123.766478" id="Path-10" stroke-width="4"></path>
            </g>
        </g>
    </g>
</svg>