<?xml version="1.0" encoding="UTF-8"?>
<svg width="1115px" height="621px" viewBox="0 0 1115 621" version="1.1" xmlns="http://www.w3.org/2000/svg" xmlns:xlink="http://www.w3.org/1999/xlink">
    <!-- Generator: Sketch 43.2 (39069) - http://www.bohemiancoding.com/sketch -->
    <title>sensor</title>
    <desc>Created with Sketch.</desc>
    <defs></defs>
    <g id="Cameras" stroke="none" stroke-width="1" fill="none" fill-rule="evenodd">
        <g id="Artboard-Copy-5" transform="translate(-338.000000, -388.000000)">
            <g id="sensor" transform="translate(488.000000, 392.000000)">
                <polyline id="Path-14" stroke="#FFFFFF" stroke-width="6" points="-1.13686838e-13 601 -1.13686838e-13 0 803 5 799 614 9 614"></polyline>
                <polyline id="Path-14" stroke="#000000" stroke-width="4" points="3 605 3 4 800 7 796 611 10 611"></polyline>
                <polyline id="Path-14" stroke="#000000" stroke-width="4" fill="#4079EB" points="11 54.966123 11 15 64 15.1994981 63.9335006 54.7666248 11.7979925 54.966123"></polyline>
                <polyline id="Path-14" stroke="#000000" stroke-width="4" fill="#4079EB" points="72 54.966123 72 15 125 15.1994981 124.933501 54.7666248 72.7979925 54.966123"></polyline>
                <polyline id="Path-14" stroke="#000000" stroke-width="4" fill="#4079EB" points="132 54.966123 132 15 185 15.1994981 184.933501 54.7666248 132.797992 54.966123"></polyline>
                <polyline id="Path-14" stroke="#000000" stroke-width="4" fill="#4079EB" points="192 54.966123 192 15 245 15.1994981 244.933501 54.7666248 192.797992 54.966123"></polyline>
                <polyline id="Path-14" stroke="#000000" stroke-width="4" fill="#4079EB" points="252 54.966123 252 15 305 15.1994981 304.933501 54.7666248 252.797992 54.966123"></polyline>
                <polyline id="Path-14" stroke="#000000" stroke-width="4" fill="#4079EB" points="312 54.966123 312 15 365 15.1994981 364.933501 54.7666248 312.797992 54.966123"></polyline>
                <polyline id="Path-14" stroke="#000000" stroke-width="4" fill="#4079EB" points="372 54.966123 372 15 425 15.1994981 424.933501 54.7666248 372.797992 54.966123"></polyline>
                <polyline id="Path-14" stroke="#000000" stroke-width="4" fill="#4079EB" points="432 54.966123 432 15 485 15.1994981 484.933501 54.7666248 432.797992 54.966123"></polyline>
                <polyline id="Path-14" stroke="#000000" stroke-width="4" fill="#4079EB" points="492 54.966123 492 15 545 15.1994981 544.933501 54.7666248 492.797992 54.966123"></polyline>
                <polyline id="Path-14" stroke="#000000" stroke-width="4" fill="#4079EB" points="552 54.966123 552 15 605 15.1994981 604.933501 54.7666248 552.797992 54.966123"></polyline>
                <polyline id="Path-14" stroke="#000000" stroke-width="4" fill="#4079EB" points="612 54.966123 612 15 665 15.1994981 664.933501 54.7666248 612.797992 54.966123"></polyline>
                <polyline id="Path-14" stroke="#000000" stroke-width="4" fill="#4079EB" points="672 54.966123 672 15 725 15.1994981 724.933501 54.7666248 672.797992 54.966123"></polyline>
                <polyline id="Path-14" stroke="#000000" stroke-width="4" fill="#4079EB" points="732 54.966123 732 15 785 15.1994981 784.933501 54.7666248 732.797992 54.966123"></polyline>
                <polyline id="Path-14" stroke="#000000" stroke-width="4" fill="#5A8BED" points="11 103.966123 11 64 64 64.1994981 63.9335006 103.766625 11.7979925 103.966123"></polyline>
                <polyline id="Path-14" stroke="#000000" stroke-width="4" fill="#5A8BED" points="72 103.966123 72 64 125 64.1994981 124.933501 103.766625 72.7979925 103.966123"></polyline>
                <polyline id="Path-14" stroke="#000000" stroke-width="4" fill="#5A8BED" points="132 103.966123 132 64 185 64.1994981 184.933501 103.766625 132.797992 103.966123"></polyline>
                <polyline id="Path-14" stroke="#000000" stroke-width="4" fill="#5A8BED" points="192 103.966123 192 64 245 64.1994981 244.933501 103.766625 192.797992 103.966123"></polyline>
                <polyline id="Path-14" stroke="#000000" stroke-width="4" fill="#5A8BED" points="252 103.966123 252 64 305 64.1994981 304.933501 103.766625 252.797992 103.966123"></polyline>
                <polyline id="Path-14" stroke="#000000" stroke-width="4" fill="#5A8BED" points="312 103.966123 312 64 365 64.1994981 364.933501 103.766625 312.797992 103.966123"></polyline>
                <polyline id="Path-14" stroke="#000000" stroke-width="4" fill="#5A8BED" points="372 103.966123 372 64 425 64.1994981 424.933501 103.766625 372.797992 103.966123"></polyline>
                <polyline id="Path-14" stroke="#000000" stroke-width="4" fill="#5A8BED" points="432 103.966123 432 64 485 64.1994981 484.933501 103.766625 432.797992 103.966123"></polyline>
                <polyline id="Path-14" stroke="#000000" stroke-width="4" fill="#5A8BED" points="492 103.966123 492 64 545 64.1994981 544.933501 103.766625 492.797992 103.966123"></polyline>
                <polyline id="Path-14" stroke="#000000" stroke-width="4" fill="#5A8BED" points="552 103.966123 552 64 605 64.1994981 604.933501 103.766625 552.797992 103.966123"></polyline>
                <polyline id="Path-14" stroke="#000000" stroke-width="4" fill="#5A8BED" points="612 103.966123 612 64 665 64.1994981 664.933501 103.766625 612.797992 103.966123"></polyline>
                <polyline id="Path-14" stroke="#000000" stroke-width="4" fill="#5A8BED" points="672 103.966123 672 64 725 64.1994981 724.933501 103.766625 672.797992 103.966123"></polyline>
                <polyline id="Path-14" stroke="#000000" stroke-width="4" fill="#5A8BED" points="732 103.966123 732 64 785 64.1994981 784.933501 103.766625 732.797992 103.966123"></polyline>
                <polyline id="Path-14" stroke="#000000" stroke-width="4" fill="#82A7F2" points="11 153.966123 11 114 64 114.199498 63.9335006 153.766625 11.7979925 153.966123"></polyline>
                <polyline id="Path-14" stroke="#000000" stroke-width="4" fill="#82A7F2" points="72 153.966123 72 114 125 114.199498 124.933501 153.766625 72.7979925 153.966123"></polyline>
                <polyline id="Path-14" stroke="#000000" stroke-width="4" fill="#82A7F2" points="132 153.966123 132 114 185 114.199498 184.933501 153.766625 132.797992 153.966123"></polyline>
                <polyline id="Path-14" stroke="#000000" stroke-width="4" fill="#82A7F2" points="192 153.966123 192 114 245 114.199498 244.933501 153.766625 192.797992 153.966123"></polyline>
                <polyline id="Path-14" stroke="#000000" stroke-width="4" fill="#82A7F2" points="252 153.966123 252 114 305 114.199498 304.933501 153.766625 252.797992 153.966123"></polyline>
                <polyline id="Path-14" stroke="#000000" stroke-width="4" fill="#82A7F2" points="312 153.966123 312 114 365 114.199498 364.933501 153.766625 312.797992 153.966123"></polyline>
                <polyline id="Path-14" stroke="#000000" stroke-width="4" fill="#82A7F2" points="372 153.966123 372 114 425 114.199498 424.933501 153.766625 372.797992 153.966123"></polyline>
                <polyline id="Path-14" stroke="#000000" stroke-width="4" fill="#82A7F2" points="432 153.966123 432 114 485 114.199498 484.933501 153.766625 432.797992 153.966123"></polyline>
                <polyline id="Path-14" stroke="#000000" stroke-width="4" fill="#82A7F2" points="492 153.966123 492 114 545 114.199498 544.933501 153.766625 492.797992 153.966123"></polyline>
                <polyline id="Path-14" stroke="#000000" stroke-width="4" fill="#82A7F2" points="552 153.966123 552 114 605 114.199498 604.933501 153.766625 552.797992 153.966123"></polyline>
                <polyline id="Path-14" stroke="#000000" stroke-width="4" fill="#82A7F2" points="612 153.966123 612 114 665 114.199498 664.933501 153.766625 612.797992 153.966123"></polyline>
                <polyline id="Path-14" stroke="#000000" stroke-width="4" fill="#82A7F2" points="672 153.966123 672 114 725 114.199498 724.933501 153.766625 672.797992 153.966123"></polyline>
                <polyline id="Path-14" stroke="#000000" stroke-width="4" fill="#82A7F2" points="732 153.966123 732 114 785 114.199498 784.933501 153.766625 732.797992 153.966123"></polyline>
                <polyline id="Path-14" stroke="#000000" stroke-width="4" fill="#93B2F1" points="11 203.966123 11 164 64 164.199498 63.9335006 203.766625 11.7979925 203.966123"></polyline>
                <polyline id="Path-14" stroke="#000000" stroke-width="4" fill="#93B2F1" points="72 203.966123 72 164 125 164.199498 124.933501 203.766625 72.7979925 203.966123"></polyline>
                <polyline id="Path-14" stroke="#000000" stroke-width="4" fill="#93B2F1" points="132 203.966123 132 164 185 164.199498 184.933501 203.766625 132.797992 203.966123"></polyline>
                <polyline id="Path-14" stroke="#000000" stroke-width="4" fill="#93B2F1" points="192 203.966123 192 164 245 164.199498 244.933501 203.766625 192.797992 203.966123"></polyline>
                <polyline id="Path-14" stroke="#000000" stroke-width="4" fill="#93B2F1" points="252 203.966123 252 164 305 164.199498 304.933501 203.766625 252.797992 203.966123"></polyline>
                <polyline id="Path-14" stroke="#000000" stroke-width="4" fill="#93B2F1" points="312 203.966123 312 164 365 164.199498 364.933501 203.766625 312.797992 203.966123"></polyline>
                <polyline id="Path-14" stroke="#000000" stroke-width="4" fill="#93B2F1" points="372 203.966123 372 164 425 164.199498 424.933501 203.766625 372.797992 203.966123"></polyline>
                <polyline id="Path-14" stroke="#000000" stroke-width="4" fill="#93B2F1" points="432 203.966123 432 164 485 164.199498 484.933501 203.766625 432.797992 203.966123"></polyline>
                <polyline id="Path-14" stroke="#000000" stroke-width="4" fill="#93B2F1" points="492 203.966123 492 164 545 164.199498 544.933501 203.766625 492.797992 203.966123"></polyline>
                <polyline id="Path-14" stroke="#000000" stroke-width="4" fill="#93B2F1" points="552 203.966123 552 164 605 164.199498 604.933501 203.766625 552.797992 203.966123"></polyline>
                <polyline id="Path-14" stroke="#000000" stroke-width="4" fill="#93B2F1" points="612 203.966123 612 164 665 164.199498 664.933501 203.766625 612.797992 203.966123"></polyline>
                <polyline id="Path-14" stroke="#000000" stroke-width="4" fill="#93B2F1" points="672 203.966123 672 164 725 164.199498 724.933501 203.766625 672.797992 203.966123"></polyline>
                <polyline id="Path-14" stroke="#000000" stroke-width="4" fill="#93B2F1" points="732 203.966123 732 164 785 164.199498 784.933501 203.766625 732.797992 203.966123"></polyline>
                <polyline id="Path-14" stroke="#000000" stroke-width="4" fill="#93B2F1" points="11 253.966123 11 214 64 214.199498 63.9335006 253.766625 11.7979925 253.966123"></polyline>
                <polyline id="Path-14" stroke="#000000" stroke-width="4" fill="#93B2F1" points="72 253.966123 72 214 125 214.199498 124.933501 253.766625 72.7979925 253.966123"></polyline>
                <polyline id="Path-14" stroke="#000000" stroke-width="4" fill="#93B2F1" points="132 253.966123 132 214 185 214.199498 184.933501 253.766625 132.797992 253.966123"></polyline>
                <polyline id="Path-14" stroke="#000000" stroke-width="4" fill="#93B2F1" points="192 253.966123 192 214 245 214.199498 244.933501 253.766625 192.797992 253.966123"></polyline>
                <polyline id="Path-14" stroke="#000000" stroke-width="4" fill="#93B2F1" points="252 253.966123 252 214 305 214.199498 304.933501 253.766625 252.797992 253.966123"></polyline>
                <polyline id="Path-14" stroke="#000000" stroke-width="4" fill="#93B2F1" points="312 253.966123 312 214 365 214.199498 364.933501 253.766625 312.797992 253.966123"></polyline>
                <polyline id="Path-14" stroke="#000000" stroke-width="4" fill="#93B2F1" points="372 253.966123 372 214 425 214.199498 424.933501 253.766625 372.797992 253.966123"></polyline>
                <polyline id="Path-14" stroke="#000000" stroke-width="4" fill="#93B2F1" points="432 253.966123 432 214 485 214.199498 484.933501 253.766625 432.797992 253.966123"></polyline>
                <polyline id="Path-14" stroke="#000000" stroke-width="4" fill="#93B2F1" points="492 253.966123 492 214 545 214.199498 544.933501 253.766625 492.797992 253.966123"></polyline>
                <polyline id="Path-14" stroke="#000000" stroke-width="4" fill="#93B2F1" points="552 253.966123 552 214 605 214.199498 604.933501 253.766625 552.797992 253.966123"></polyline>
                <polyline id="Path-14" stroke="#000000" stroke-width="4" fill="#93B2F1" points="612 253.966123 612 214 665 214.199498 664.933501 253.766625 612.797992 253.966123"></polyline>
                <polyline id="Path-14" stroke="#000000" stroke-width="4" fill="#93B2F1" points="672 253.966123 672 214 725 214.199498 724.933501 253.766625 672.797992 253.966123"></polyline>
                <polyline id="Path-14" stroke="#000000" stroke-width="4" fill="#93B2F1" points="732 253.966123 732 214 785 214.199498 784.933501 253.766625 732.797992 253.966123"></polyline>
                <polyline id="Path-14" stroke="#000000" stroke-width="4" fill="#93B2F1" points="11 303.966123 11 264 64 264.199498 63.9335006 303.766625 11.7979925 303.966123"></polyline>
                <polyline id="Path-14" stroke="#000000" stroke-width="4" fill="#93B2F1" points="72 303.966123 72 264 125 264.199498 124.933501 303.766625 72.7979925 303.966123"></polyline>
                <polyline id="Path-14" stroke="#000000" stroke-width="4" fill="#93B2F1" points="132 303.966123 132 264 185 264.199498 184.933501 303.766625 132.797992 303.966123"></polyline>
                <polyline id="Path-14" stroke="#000000" stroke-width="4" fill="#93B2F1" points="192 303.966123 192 264 245 264.199498 244.933501 303.766625 192.797992 303.966123"></polyline>
                <polyline id="Path-14" stroke="#000000" stroke-width="4" fill="#93B2F1" points="252 303.966123 252 264 305 264.199498 304.933501 303.766625 252.797992 303.966123"></polyline>
                <polyline id="Path-14" stroke="#000000" stroke-width="4" fill="#93B2F1" points="312 303.966123 312 264 365 264.199498 364.933501 303.766625 312.797992 303.966123"></polyline>
                <polyline id="Path-14" stroke="#000000" stroke-width="4" fill="#93B2F1" points="372 303.966123 372 264 425 264.199498 424.933501 303.766625 372.797992 303.966123"></polyline>
                <polyline id="Path-14" stroke="#000000" stroke-width="4" fill="#93B2F1" points="432 303.966123 432 264 485 264.199498 484.933501 303.766625 432.797992 303.966123"></polyline>
                <polyline id="Path-14" stroke="#000000" stroke-width="4" fill="#93B2F1" points="492 303.966123 492 264 545 264.199498 544.933501 303.766625 492.797992 303.966123"></polyline>
                <polyline id="Path-14" stroke="#000000" stroke-width="4" fill="#93B2F1" points="552 303.966123 552 264 605 264.199498 604.933501 303.766625 552.797992 303.966123"></polyline>
                <polyline id="Path-14" stroke="#000000" stroke-width="4" fill="#93B2F1" points="612 303.966123 612 264 665 264.199498 664.933501 303.766625 612.797992 303.966123"></polyline>
                <polyline id="Path-14" stroke="#000000" stroke-width="4" fill="#93B2F1" points="672 303.966123 672 264 725 264.199498 724.933501 303.766625 672.797992 303.966123"></polyline>
                <polyline id="Path-14" stroke="#000000" stroke-width="4" fill="#93B2F1" points="732 303.966123 732 264 785 264.199498 784.933501 303.766625 732.797992 303.966123"></polyline>
                <polyline id="Path-14" stroke="#000000" stroke-width="4" fill="#93B2F1" points="11 353.966123 11 314 64 314.199498 63.9335006 353.766625 11.7979925 353.966123"></polyline>
                <polyline id="Path-14" stroke="#000000" stroke-width="4" fill="#93B2F1" points="72 353.966123 72 314 125 314.199498 124.933501 353.766625 72.7979925 353.966123"></polyline>
                <polyline id="Path-14" stroke="#000000" stroke-width="4" fill="#93B2F1" points="132 353.966123 132 314 185 314.199498 184.933501 353.766625 132.797992 353.966123"></polyline>
                <polyline id="Path-14" stroke="#000000" stroke-width="4" fill="#93B2F1" points="192 353.966123 192 314 245 314.199498 244.933501 353.766625 192.797992 353.966123"></polyline>
                <polyline id="Path-14" stroke="#000000" stroke-width="4" fill="#93B2F1" points="252 353.966123 252 314 305 314.199498 304.933501 353.766625 252.797992 353.966123"></polyline>
                <polyline id="Path-14" stroke="#000000" stroke-width="4" fill="#93B2F1" points="312 353.966123 312 314 365 314.199498 364.933501 353.766625 312.797992 353.966123"></polyline>
                <polyline id="Path-14" stroke="#000000" stroke-width="4" fill="#43AF65" points="372 353.966123 372 314 425 314.199498 424.933501 353.766625 372.797992 353.966123"></polyline>
                <polyline id="Path-14" stroke="#000000" stroke-width="4" fill="#43AF65" points="432 353.966123 432 314 485 314.199498 484.933501 353.766625 432.797992 353.966123"></polyline>
                <polyline id="Path-14" stroke="#000000" stroke-width="4" fill="#A8C4FC" points="492 353.966123 492 314 545 314.199498 544.933501 353.766625 492.797992 353.966123"></polyline>
                <polyline id="Path-14" stroke="#000000" stroke-width="4" fill="#A8C4FC" points="552 353.966123 552 314 605 314.199498 604.933501 353.766625 552.797992 353.966123"></polyline>
                <polyline id="Path-14" stroke="#000000" stroke-width="4" fill="#A8C4FC" points="612 353.966123 612 314 665 314.199498 664.933501 353.766625 612.797992 353.966123"></polyline>
                <polyline id="Path-14" stroke="#000000" stroke-width="4" fill="#A8C4FC" points="672 353.966123 672 314 725 314.199498 724.933501 353.766625 672.797992 353.966123"></polyline>
                <polyline id="Path-14" stroke="#000000" stroke-width="4" fill="#A8C4FC" points="732 353.966123 732 314 785 314.199498 784.933501 353.766625 732.797992 353.966123"></polyline>
                <polyline id="Path-14" stroke="#000000" stroke-width="4" fill="#A8C4FC" points="11 403.966123 11 364 64 364.199498 63.9335006 403.766625 11.7979925 403.966123"></polyline>
                <polyline id="Path-14" stroke="#000000" stroke-width="4" fill="#A8C4FC" points="72 403.966123 72 364 125 364.199498 124.933501 403.766625 72.7979925 403.966123"></polyline>
                <polyline id="Path-14" stroke="#000000" stroke-width="4" fill="#A8C4FC" points="132 403.966123 132 364 185 364.199498 184.933501 403.766625 132.797992 403.966123"></polyline>
                <polyline id="Path-14" stroke="#000000" stroke-width="4" fill="#A8C4FC" points="192 403.966123 192 364 245 364.199498 244.933501 403.766625 192.797992 403.966123"></polyline>
                <polyline id="Path-14" stroke="#000000" stroke-width="4" fill="#A8C4FC" points="252 403.966123 252 364 305 364.199498 304.933501 403.766625 252.797992 403.966123"></polyline>
                <polyline id="Path-14" stroke="#000000" stroke-width="4" fill="#43AF65" points="312 403.966123 312 364 365 364.199498 364.933501 403.766625 312.797992 403.966123"></polyline>
                <polyline id="Path-14" stroke="#000000" stroke-width="4" fill="#307D48" points="372 403.966123 372 364 425 364.199498 424.933501 403.766625 372.797992 403.966123"></polyline>
                <polyline id="Path-14" stroke="#000000" stroke-width="4" fill="#43AF65" points="432 403.966123 432 364 485 364.199498 484.933501 403.766625 432.797992 403.966123"></polyline>
                <polyline id="Path-14" stroke="#000000" stroke-width="4" fill="#A8C4FC" points="492 403.966123 492 364 545 364.199498 544.933501 403.766625 492.797992 403.966123"></polyline>
                <polyline id="Path-14" stroke="#000000" stroke-width="4" fill="#A8C4FC" points="552 403.966123 552 364 605 364.199498 604.933501 403.766625 552.797992 403.966123"></polyline>
                <polyline id="Path-14" stroke="#000000" stroke-width="4" fill="#A8C4FC" points="612 403.966123 612 364 665 364.199498 664.933501 403.766625 612.797992 403.966123"></polyline>
                <polyline id="Path-14" stroke="#000000" stroke-width="4" fill="#A8C4FC" points="672 403.966123 672 364 725 364.199498 724.933501 403.766625 672.797992 403.966123"></polyline>
                <polyline id="Path-14" stroke="#000000" stroke-width="4" fill="#A8C4FC" points="732 403.966123 732 364 785 364.199498 784.933501 403.766625 732.797992 403.966123"></polyline>
                <polyline id="Path-14" stroke="#000000" stroke-width="4" fill="#A8C4FC" points="11 453.966123 11 414 64 414.199498 63.9335006 453.766625 11.7979925 453.966123"></polyline>
                <polyline id="Path-14" stroke="#000000" stroke-width="4" fill="#A8C4FC" points="72 453.966123 72 414 125 414.199498 124.933501 453.766625 72.7979925 453.966123"></polyline>
                <polyline id="Path-14" stroke="#000000" stroke-width="4" fill="#A8C4FC" points="132 453.966123 132 414 185 414.199498 184.933501 453.766625 132.797992 453.966123"></polyline>
                <polyline id="Path-14" stroke="#000000" stroke-width="4" fill="#A8C4FC" points="192 453.966123 192 414 245 414.199498 244.933501 453.766625 192.797992 453.966123"></polyline>
                <polyline id="Path-14" stroke="#000000" stroke-width="4" fill="#A8C4FC" points="252 453.966123 252 414 305 414.199498 304.933501 453.766625 252.797992 453.966123"></polyline>
                <polyline id="Path-14" stroke="#000000" stroke-width="4" fill="#43AF65" points="312 453.966123 312 414 365 414.199498 364.933501 453.766625 312.797992 453.966123"></polyline>
                <polyline id="Path-14" stroke="#000000" stroke-width="4" fill="#307D48" points="372 453.966123 372 414 425 414.199498 424.933501 453.766625 372.797992 453.966123"></polyline>
                <polyline id="Path-14" stroke="#000000" stroke-width="4" fill="#43AF65" points="432 453.966123 432 414 485 414.199498 484.933501 453.766625 432.797992 453.966123"></polyline>
                <polyline id="Path-14" stroke="#000000" stroke-width="4" fill="#A8C4FC" points="492 453.966123 492 414 545 414.199498 544.933501 453.766625 492.797992 453.966123"></polyline>
                <polyline id="Path-14" stroke="#000000" stroke-width="4" fill="#A8C4FC" points="552 453.966123 552 414 605 414.199498 604.933501 453.766625 552.797992 453.966123"></polyline>
                <polyline id="Path-14" stroke="#000000" stroke-width="4" fill="#A8C4FC" points="612 453.966123 612 414 665 414.199498 664.933501 453.766625 612.797992 453.966123"></polyline>
                <polyline id="Path-14" stroke="#000000" stroke-width="4" fill="#A8C4FC" points="672 453.966123 672 414 725 414.199498 724.933501 453.766625 672.797992 453.966123"></polyline>
                <polyline id="Path-14" stroke="#000000" stroke-width="4" fill="#A8C4FC" points="732 453.966123 732 414 785 414.199498 784.933501 453.766625 732.797992 453.966123"></polyline>
                <polyline id="Path-14" stroke="#000000" stroke-width="4" fill="#A8C4FC" points="11 503.966123 11 464 64 464.199498 63.9335006 503.766625 11.7979925 503.966123"></polyline>
                <polyline id="Path-14" stroke="#000000" stroke-width="4" fill="#A8C4FC" points="72 503.966123 72 464 125 464.199498 124.933501 503.766625 72.7979925 503.966123"></polyline>
                <polyline id="Path-14" stroke="#000000" stroke-width="4" fill="#A8C4FC" points="132 503.966123 132 464 185 464.199498 184.933501 503.766625 132.797992 503.966123"></polyline>
                <polyline id="Path-14" stroke="#000000" stroke-width="4" fill="#A8C4FC" points="192 503.966123 192 464 245 464.199498 244.933501 503.766625 192.797992 503.966123"></polyline>
                <polyline id="Path-14" stroke="#000000" stroke-width="4" fill="#43AF65" points="252 503.966123 252 464 305 464.199498 304.933501 503.766625 252.797992 503.966123"></polyline>
                <polyline id="Path-14" stroke="#000000" stroke-width="4" fill="#43AF65" points="312 503.966123 312 464 365 464.199498 364.933501 503.766625 312.797992 503.966123"></polyline>
                <polyline id="Path-14" stroke="#000000" stroke-width="4" fill="#307D48" points="372 503.966123 372 464 425 464.199498 424.933501 503.766625 372.797992 503.966123"></polyline>
                <polyline id="Path-14" stroke="#000000" stroke-width="4" fill="#43AF65" points="432 503.966123 432 464 485 464.199498 484.933501 503.766625 432.797992 503.966123"></polyline>
                <polyline id="Path-14" stroke="#000000" stroke-width="4" fill="#A8C4FC" points="492 503.966123 492 464 545 464.199498 544.933501 503.766625 492.797992 503.966123"></polyline>
                <polyline id="Path-14" stroke="#000000" stroke-width="4" fill="#A8C4FC" points="552 503.966123 552 464 605 464.199498 604.933501 503.766625 552.797992 503.966123"></polyline>
                <polyline id="Path-14" stroke="#000000" stroke-width="4" fill="#A8C4FC" points="612 503.966123 612 464 665 464.199498 664.933501 503.766625 612.797992 503.966123"></polyline>
                <polyline id="Path-14" stroke="#000000" stroke-width="4" fill="#A8C4FC" points="672 503.966123 672 464 725 464.199498 724.933501 503.766625 672.797992 503.966123"></polyline>
                <polyline id="Path-14" stroke="#000000" stroke-width="4" fill="#A8C4FC" points="732 503.966123 732 464 785 464.199498 784.933501 503.766625 732.797992 503.966123"></polyline>
                <polyline id="Path-14" stroke="#000000" stroke-width="4" fill="#A8C4FC" points="11 553.966123 11 514 64 514.199498 63.9335006 553.766625 11.7979925 553.966123"></polyline>
                <polyline id="Path-14" stroke="#000000" stroke-width="4" fill="#A8C4FC" points="72 553.966123 72 514 125 514.199498 124.933501 553.766625 72.7979925 553.966123"></polyline>
                <polyline id="Path-14" stroke="#000000" stroke-width="4" fill="#A8C4FC" points="132 553.966123 132 514 185 514.199498 184.933501 553.766625 132.797992 553.966123"></polyline>
                <polyline id="Path-14" stroke="#000000" stroke-width="4" fill="#43AF65" points="192 553.966123 192 514 245 514.199498 244.933501 553.766625 192.797992 553.966123"></polyline>
                <polyline id="Path-14" stroke="#000000" stroke-width="4" fill="#43AF65" points="252 553.966123 252 514 305 514.199498 304.933501 553.766625 252.797992 553.966123"></polyline>
                <polyline id="Path-14" stroke="#000000" stroke-width="4" fill="#43AF65" points="312 553.966123 312 514 365 514.199498 364.933501 553.766625 312.797992 553.966123"></polyline>
                <polyline id="Path-14" stroke="#000000" stroke-width="4" fill="#307D48" points="372 553.966123 372 514 425 514.199498 424.933501 553.766625 372.797992 553.966123"></polyline>
                <polyline id="Path-14" stroke="#000000" stroke-width="4" fill="#43AF65" points="432 553.966123 432 514 485 514.199498 484.933501 553.766625 432.797992 553.966123"></polyline>
                <polyline id="Path-14" stroke="#000000" stroke-width="4" fill="#A8C4FC" points="492 553.966123 492 514 545 514.199498 544.933501 553.766625 492.797992 553.966123"></polyline>
                <polyline id="Path-14" stroke="#000000" stroke-width="4" fill="#A8C4FC" points="552 553.966123 552 514 605 514.199498 604.933501 553.766625 552.797992 553.966123"></polyline>
                <polyline id="Path-14" stroke="#000000" stroke-width="4" fill="#A8C4FC" points="612 553.966123 612 514 665 514.199498 664.933501 553.766625 612.797992 553.966123"></polyline>
                <polyline id="Path-14" stroke="#000000" stroke-width="4" fill="#A8C4FC" points="672 553.966123 672 514 725 514.199498 724.933501 553.766625 672.797992 553.966123"></polyline>
                <polyline id="Path-14" stroke="#000000" stroke-width="4" fill="#A8C4FC" points="732 553.966123 732 514 785 514.199498 784.933501 553.766625 732.797992 553.966123"></polyline>
                <polyline id="Path-14" stroke="#000000" stroke-width="4" fill="#A8C4FC" points="11 603.966123 11 564 64 564.199498 63.9335006 603.766625 11.7979925 603.966123"></polyline>
                <polyline id="Path-14" stroke="#000000" stroke-width="4" fill="#A8C4FC" points="72 603.966123 72 564 125 564.199498 124.933501 603.766625 72.7979925 603.966123"></polyline>
                <polyline id="Path-14" stroke="#000000" stroke-width="4" fill="#A8C4FC" points="132 603.966123 132 564 185 564.199498 184.933501 603.766625 132.797992 603.966123"></polyline>
                <polyline id="Path-14" stroke="#000000" stroke-width="4" fill="#43AF65" points="192 603.966123 192 564 245 564.199498 244.933501 603.766625 192.797992 603.966123"></polyline>
                <polyline id="Path-14" stroke="#000000" stroke-width="4" fill="#43AF65" points="252 603.966123 252 564 305 564.199498 304.933501 603.766625 252.797992 603.966123"></polyline>
                <polyline id="Path-14" stroke="#000000" stroke-width="4" fill="#43AF65" points="312 603.966123 312 564 365 564.199498 364.933501 603.766625 312.797992 603.966123"></polyline>
                <polyline id="Path-14" stroke="#000000" stroke-width="4" fill="#307D48" points="372 603.966123 372 564 425 564.199498 424.933501 603.766625 372.797992 603.966123"></polyline>
                <polyline id="Path-14" stroke="#000000" stroke-width="4" fill="#307D48" points="432 603.966123 432 564 485 564.199498 484.933501 603.766625 432.797992 603.966123"></polyline>
                <polyline id="Path-14" stroke="#000000" stroke-width="4" fill="#43AF65" points="492 603.966123 492 564 545 564.199498 544.933501 603.766625 492.797992 603.966123"></polyline>
                <polyline id="Path-14" stroke="#000000" stroke-width="4" fill="#A8C4FC" points="552 603.966123 552 564 605 564.199498 604.933501 603.766625 552.797992 603.966123"></polyline>
                <polyline id="Path-14" stroke="#000000" stroke-width="4" fill="#A8C4FC" points="612 603.966123 612 564 665 564.199498 664.933501 603.766625 612.797992 603.966123"></polyline>
                <polyline id="Path-14" stroke="#000000" stroke-width="4" fill="#A8C4FC" points="672 603.966123 672 564 725 564.199498 724.933501 603.766625 672.797992 603.966123"></polyline>
                <polyline id="Path-14" stroke="#000000" stroke-width="4" fill="#A8C4FC" points="732 603.966123 732 564 785 564.199498 784.933501 603.766625 732.797992 603.966123"></polyline>
            </g>
        </g>
    </g>
</svg>