<?xml version="1.0" encoding="UTF-8"?>
<svg width="499px" height="381px" viewBox="0 0 499 381" version="1.1" xmlns="http://www.w3.org/2000/svg" xmlns:xlink="http://www.w3.org/1999/xlink">
    <title>Abacus</title>
    <defs></defs>
    <g id="Page-1" stroke="none" stroke-width="1" fill="none" fill-rule="evenodd">
        <g id="Abacus" transform="translate(-149.000000, -93.000000)" stroke="#000000">
            <g id="abacus" transform="translate(151.000000, 96.000000)">
                <g id="abacus-lines" transform="translate(51.000000, 58.000000)" stroke-width="5" stroke-linecap="square">
                    <path d="M224,224.666667 L395.500081,224.666667" id="Line1-3"></path>
                    <path d="M0.493259571,224.666667 L52.009999,224.666667" id="Line1-1"></path>
                    <path d="M112.989587,224.666667 L161.00961,224.666667" id="Line1-2"></path>
                    <path d="M203,150.666667 L278,150.666667" id="Line2-3"></path>
                    <path d="M337.494014,150.666667 L395.50637,150.666667" id="Line2-4"></path>
                    <path d="M0.491427519,150.666667 L41,150.666667" id="Line2-1"></path>
                    <path d="M103,150.666667 L141,150.666667" id="Line2-2"></path>
                    <path d="M273,76.6666667 L395.5,76.6666667" id="Line3-3"></path>
                    <path d="M0.993831332,76.6666667 L84.5001663,76.6666667" id="Line3-1"></path>
                    <path d="M144.991667,76.6666667 L211,76.6666667" id="Line3-2"></path>
                    <path d="M370.41174,2 L395.530115,2" id="Line4-4"></path>
                    <path d="M0.524366411,2 L162.585928,2" id="Line4-1"></path>
                    <path d="M220.390561,2 L235.508271,2" id="Line4-2"></path>
                    <path d="M289.495099,2 L315,2" id="Line4-3"></path>
                </g>
                <g id="abacus-counters" transform="translate(88.000000, 24.000000)" stroke-width="6">
                    <path d="M154.687409,232.377169 C152.021587,232.377169 129.377169,234.198995 129.377169,257.687409 C129.377169,281.175824 151.214666,283.614973 154.687409,283.614973 C158.160152,283.614973 180.614973,282.99765 180.614973,257.687409 C180.614973,232.377169 157.353232,232.377169 154.687409,232.377169 Z" id="Window" transform="translate(154.996071, 257.996071) rotate(-300.000000) translate(-154.996071, -257.996071) "></path>
                    <path d="M44.6874093,232.377169 C42.021587,232.377169 19.3771689,234.198995 19.3771689,257.687409 C19.3771689,281.175824 41.2146663,283.614973 44.6874093,283.614973 C48.1601522,283.614973 70.6149726,282.99765 70.6149726,257.687409 C70.6149726,232.377169 47.3532315,232.377169 44.6874093,232.377169 Z" id="Window" transform="translate(44.996071, 257.996071) rotate(-300.000000) translate(-44.996071, -257.996071) "></path>
                    <path d="M34.6874093,158.377169 C32.021587,158.377169 9.37716889,160.198995 9.37716889,183.687409 C9.37716889,207.175824 31.2146663,209.614973 34.6874093,209.614973 C38.1601522,209.614973 60.6149726,208.99765 60.6149726,183.687409 C60.6149726,158.377169 37.3532315,158.377169 34.6874093,158.377169 Z" id="Window" transform="translate(34.996071, 183.996071) rotate(-300.000000) translate(-34.996071, -183.996071) "></path>
                    <path d="M134.687409,158.377169 C132.021587,158.377169 109.377169,160.198995 109.377169,183.687409 C109.377169,207.175824 131.214666,209.614973 134.687409,209.614973 C138.160152,209.614973 160.614973,208.99765 160.614973,183.687409 C160.614973,158.377169 137.353232,158.377169 134.687409,158.377169 Z" id="Window" transform="translate(134.996071, 183.996071) rotate(-300.000000) translate(-134.996071, -183.996071) "></path>
                    <path d="M270.687409,158.377169 C268.021587,158.377169 245.377169,160.198995 245.377169,183.687409 C245.377169,207.175824 267.214666,209.614973 270.687409,209.614973 C274.160152,209.614973 296.614973,208.99765 296.614973,183.687409 C296.614973,158.377169 273.353232,158.377169 270.687409,158.377169 Z" id="Window" transform="translate(270.996071, 183.996071) rotate(-300.000000) translate(-270.996071, -183.996071) "></path>
                    <path d="M204.687409,84.3771689 C202.021587,84.3771689 179.377169,86.198995 179.377169,109.687409 C179.377169,133.175824 201.214666,135.614973 204.687409,135.614973 C208.160152,135.614973 230.614973,134.99765 230.614973,109.687409 C230.614973,84.3771689 207.353232,84.3771689 204.687409,84.3771689 Z" id="Window" transform="translate(204.996071, 109.996071) rotate(-300.000000) translate(-204.996071, -109.996071) "></path>
                    <path d="M76.6874093,84.3771689 C74.021587,84.3771689 51.3771689,86.198995 51.3771689,109.687409 C51.3771689,133.175824 73.2146663,135.614973 76.6874093,135.614973 C80.1601522,135.614973 102.614973,134.99765 102.614973,109.687409 C102.614973,84.3771689 79.3532315,84.3771689 76.6874093,84.3771689 Z" id="Window" transform="translate(76.996071, 109.996071) rotate(-300.000000) translate(-76.996071, -109.996071) "></path>
                    <path d="M154.687409,9.37716889 C152.021587,9.37716889 129.377169,11.198995 129.377169,34.6874093 C129.377169,58.1758235 151.214666,60.6149726 154.687409,60.6149726 C158.160152,60.6149726 180.614973,59.9976496 180.614973,34.6874093 C180.614973,9.37716889 157.353232,9.37716889 154.687409,9.37716889 Z" id="Window" transform="translate(154.996071, 34.996071) rotate(-300.000000) translate(-154.996071, -34.996071) "></path>
                    <path d="M224.687409,9.37716889 C222.021587,9.37716889 199.377169,11.198995 199.377169,34.6874093 C199.377169,58.1758235 221.214666,60.6149726 224.687409,60.6149726 C228.160152,60.6149726 250.614973,59.9976496 250.614973,34.6874093 C250.614973,9.37716889 227.353232,9.37716889 224.687409,9.37716889 Z" id="Window" transform="translate(224.996071, 34.996071) rotate(-300.000000) translate(-224.996071, -34.996071) "></path>
                    <path d="M304.687409,9.37716889 C302.021587,9.37716889 279.377169,11.198995 279.377169,34.6874093 C279.377169,58.1758235 301.214666,60.6149726 304.687409,60.6149726 C308.160152,60.6149726 330.614973,59.9976496 330.614973,34.6874093 C330.614973,9.37716889 307.353232,9.37716889 304.687409,9.37716889 Z" id="Window" transform="translate(304.996071, 34.996071) rotate(-300.000000) translate(-304.996071, -34.996071) "></path>
                </g>
                <g id="abacus-body" stroke-width="6">
                    <path d="M13,341 L47.0142828,341 L47.0142828,11.9999997 C47.0142828,11.9999997 41.9973145,5.68434189e-14 30,5.68434189e-14 C18.057373,5.68434189e-14 13,11.9999997 13,11.9999997 L13,339 L13,341 Z" id="Path-2"></path>
                    <path d="M451,341 L485.014283,341 L485.014283,11.9999997 C485.014283,11.9999997 479.997314,5.68434189e-14 468,5.68434189e-14 C456.057373,5.68434189e-14 451,11.9999997 451,11.9999997 L451,339 L451,341 Z" id="Path-2"></path>
                    <polygon id="Path-3" points="494 374 494 341 0.998985802 341 0.998985802 374.015179 492.000988 374.015179"></polygon>
                </g>
            </g>
        </g>
    </g>
</svg>
