<?xml version="1.0" encoding="UTF-8"?>
<svg width="452px" height="399px" viewBox="0 0 452 399" version="1.1" xmlns="http://www.w3.org/2000/svg" xmlns:xlink="http://www.w3.org/1999/xlink">
    <!-- Generator: Sketch 43.2 (39069) - http://www.bohemiancoding.com/sketch -->
    <title>abacus</title>
    <desc>Created with Sketch.</desc>
    <defs></defs>
    <g id="Page-1" stroke="none" stroke-width="1" fill="none" fill-rule="evenodd">
        <g id="Abacus" transform="translate(-174.000000, -108.000000)" stroke="#000000">
            <g id="abacus" transform="translate(177.000000, 111.000000)">
                <g id="abacus-lines" transform="translate(33.000000, 78.000000)" stroke-width="5" stroke-linecap="square">
                    <path d="M218,225.777778 L377.594782,225.777778" id="Line1-3"></path>
                    <path d="M0.493259571,224.666667 L50.01326,224.666667" id="Line1-1"></path>
                    <path d="M106.989587,224.666667 L155.00961,224.666667" id="Line1-2"></path>
                    <path d="M197,150.666667 L272,150.666667" id="Line2-3"></path>
                    <path d="M331.615417,151.777778 L376.605418,151.777778" id="Line2-4"></path>
                    <path d="M0.491427519,150.666667 L41,150.666667" id="Line2-1"></path>
                    <path d="M97,150.666667 L135,150.666667" id="Line2-2"></path>
                    <path d="M263.598488,77.7777778 L377.594707,77.7777778" id="Line3-3"></path>
                    <path d="M0.993831332,76.6666667 L81.5038335,76.6666667" id="Line3-1"></path>
                    <path d="M138.991667,76.6666667 L205,76.6666667" id="Line3-2"></path>
                    <path d="M362.24804,2.66666667 L377.61804,2.66666667" id="Line4-4"></path>
                    <path d="M0.524366411,2 L160.584364,2" id="Line4-1"></path>
                    <path d="M214.390561,2 L229.508271,2" id="Line4-2"></path>
                    <path d="M283.495099,2 L309,2" id="Line4-3"></path>
                </g>
                <g id="abacus-counters" transform="translate(64.000000, 44.000000)" stroke-width="6">
                    <path d="M154.687409,232.377169 C152.021587,232.377169 129.377169,234.198995 129.377169,257.687409 C129.377169,281.175824 151.214666,283.614973 154.687409,283.614973 C158.160152,283.614973 180.614973,282.99765 180.614973,257.687409 C180.614973,232.377169 157.353232,232.377169 154.687409,232.377169 Z" id="Window" transform="translate(154.996071, 257.996071) rotate(-300.000000) translate(-154.996071, -257.996071) "></path>
                    <path d="M44.6874093,232.377169 C42.021587,232.377169 19.3771689,234.198995 19.3771689,257.687409 C19.3771689,281.175824 41.2146663,283.614973 44.6874093,283.614973 C48.1601522,283.614973 70.6149726,282.99765 70.6149726,257.687409 C70.6149726,232.377169 47.3532315,232.377169 44.6874093,232.377169 Z" id="Window" transform="translate(44.996071, 257.996071) rotate(-300.000000) translate(-44.996071, -257.996071) "></path>
                    <path d="M34.6874093,158.377169 C32.021587,158.377169 9.37716889,160.198995 9.37716889,183.687409 C9.37716889,207.175824 31.2146663,209.614973 34.6874093,209.614973 C38.1601522,209.614973 60.6149726,208.99765 60.6149726,183.687409 C60.6149726,158.377169 37.3532315,158.377169 34.6874093,158.377169 Z" id="Window" transform="translate(34.996071, 183.996071) rotate(-300.000000) translate(-34.996071, -183.996071) "></path>
                    <path d="M134.687409,158.377169 C132.021587,158.377169 109.377169,160.198995 109.377169,183.687409 C109.377169,207.175824 131.214666,209.614973 134.687409,209.614973 C138.160152,209.614973 160.614973,208.99765 160.614973,183.687409 C160.614973,158.377169 137.353232,158.377169 134.687409,158.377169 Z" id="Window" transform="translate(134.996071, 183.996071) rotate(-300.000000) translate(-134.996071, -183.996071) "></path>
                    <path d="M270.687409,158.377169 C268.021587,158.377169 245.377169,160.198995 245.377169,183.687409 C245.377169,207.175824 267.214666,209.614973 270.687409,209.614973 C274.160152,209.614973 296.614973,208.99765 296.614973,183.687409 C296.614973,158.377169 273.353232,158.377169 270.687409,158.377169 Z" id="Window" transform="translate(270.996071, 183.996071) rotate(-300.000000) translate(-270.996071, -183.996071) "></path>
                    <path d="M204.687409,84.3771689 C202.021587,84.3771689 179.377169,86.198995 179.377169,109.687409 C179.377169,133.175824 201.214666,135.614973 204.687409,135.614973 C208.160152,135.614973 230.614973,134.99765 230.614973,109.687409 C230.614973,84.3771689 207.353232,84.3771689 204.687409,84.3771689 Z" id="Window" transform="translate(204.996071, 109.996071) rotate(-300.000000) translate(-204.996071, -109.996071) "></path>
                    <path d="M76.6874093,84.3771689 C74.021587,84.3771689 51.3771689,86.198995 51.3771689,109.687409 C51.3771689,133.175824 73.2146663,135.614973 76.6874093,135.614973 C80.1601522,135.614973 102.614973,134.99765 102.614973,109.687409 C102.614973,84.3771689 79.3532315,84.3771689 76.6874093,84.3771689 Z" id="Window" transform="translate(76.996071, 109.996071) rotate(-300.000000) translate(-76.996071, -109.996071) "></path>
                    <path d="M154.687409,9.37716889 C152.021587,9.37716889 129.377169,11.198995 129.377169,34.6874093 C129.377169,58.1758235 151.214666,60.6149726 154.687409,60.6149726 C158.160152,60.6149726 180.614973,59.9976496 180.614973,34.6874093 C180.614973,9.37716889 157.353232,9.37716889 154.687409,9.37716889 Z" id="Window" transform="translate(154.996071, 34.996071) rotate(-300.000000) translate(-154.996071, -34.996071) "></path>
                    <path d="M224.687409,9.37716889 C222.021587,9.37716889 199.377169,11.198995 199.377169,34.6874093 C199.377169,58.1758235 221.214666,60.6149726 224.687409,60.6149726 C228.160152,60.6149726 250.614973,59.9976496 250.614973,34.6874093 C250.614973,9.37716889 227.353232,9.37716889 224.687409,9.37716889 Z" id="Window" transform="translate(224.996071, 34.996071) rotate(-300.000000) translate(-224.996071, -34.996071) "></path>
                    <path d="M304.687409,9.37716889 C302.021587,9.37716889 279.377169,11.198995 279.377169,34.6874093 C279.377169,58.1758235 301.214666,60.6149726 304.687409,60.6149726 C308.160152,60.6149726 330.614973,59.9976496 330.614973,34.6874093 C330.614973,9.37716889 307.353232,9.37716889 304.687409,9.37716889 Z" id="Window" transform="translate(304.996071, 34.996071) rotate(-300.000000) translate(-304.996071, -34.996071) "></path>
                </g>
                <g id="abacus-body" stroke-width="6">
                    <path d="M-9.09494702e-13,359 L34.0142828,359 L34.0142828,12.6334308 C34.0142828,12.6334308 28.9973145,5.68434189e-14 17,5.68434189e-14 C5.05737305,5.68434189e-14 -9.09494702e-13,12.6334308 -9.09494702e-13,12.6334308 L-9.09494702e-13,356.894428 L-9.09494702e-13,359 Z" id="Path-2"></path>
                    <path d="M411,359 L445.014283,359 L445.014283,12.6334308 C445.014283,12.6334308 439.997314,5.68434189e-14 428,5.68434189e-14 C416.057373,5.68434189e-14 411,12.6334308 411,12.6334308 L411,356.894428 L411,359 Z" id="Path-2"></path>
                    <polygon id="Path-3" points="445 392 445 359 -9.37916411e-13 359 -9.37916411e-13 392.015179 443.195621 392.015179"></polygon>
                </g>
            </g>
        </g>
    </g>
</svg>