<?xml version="1.0" encoding="UTF-8"?>
<svg width="456px" height="394px" viewBox="0 0 456 394" version="1.1" xmlns="http://www.w3.org/2000/svg" xmlns:xlink="http://www.w3.org/1999/xlink">
    <!-- Generator: Sketch 43.2 (39069) - http://www.bohemiancoding.com/sketch -->
    <title>Bridge</title>
    <desc>Created with Sketch.</desc>
    <defs></defs>
    <g id="Page-1" stroke="none" stroke-width="1" fill="none" fill-rule="evenodd">
        <g id="Bridge-Copy" transform="translate(-176.000000, -110.000000)" stroke="#000000">
            <g id="Bridge" transform="translate(178.000000, 110.000000)">
                <path d="M3.5,287.281385 L448.5,287.281385" id="bridge-base" stroke-width="10" stroke-linecap="square"></path>
                <path d="M37.6838535,390.84215 L74.4274084,390.84215" id="post-lft-bottom" stroke-width="6" stroke-linecap="square"></path>
                <rect id="post-lft" stroke-width="5" x="39.2652646" y="2.66797633" width="33.5807327" height="387.832024"></rect>
                <path d="M375.735414,390.84215 L412.478969,390.84215" id="post-rght-bottom" stroke-width="6" stroke-linecap="square"></path>
                <rect id="post-rght" stroke-width="5" x="377.316825" y="2.66797633" width="33.5807327" height="387.832024"></rect>
                <path d="M0,36.8126582 C29,26.8632911 39,2.98481013 39,2.98481013 L73,2.98481013 C73,2.98481013 215,323.35443 377,2.98481013 L411,2.98481013 C411,2.98481013 426,24.8734177 451,36.8126582" id="cable" stroke-width="5"></path>
                <path d="M224.918589,145.245045 L224.918589,281.702011" id="Line" stroke-width="2" stroke-linecap="square"></path>
                <path d="M241.918589,144.261611 L241.918589,281.702011" id="Line0" stroke-width="2" stroke-linecap="square"></path>
                <path d="M191.918589,139.291139 L191.918589,282.313617" id="Line2" stroke-width="2" stroke-linecap="square"></path>
                <path d="M208.918589,144.265823 L208.918589,281.702011" id="Line3" stroke-width="2" stroke-linecap="square"></path>
                <path d="M158.918589,120.387342 L158.918589,281.546955" id="Line41" stroke-width="2" stroke-linecap="square"></path>
                <path d="M125.918589,83.574667 L125.918589,282.003507" id="Line5" stroke-width="2" stroke-linecap="square"></path>
                <path d="M175.918589,132.326582 L175.918589,282.20594" id="Line6" stroke-width="2" stroke-linecap="square"></path>
                <path d="M142.918589,102.478463 L142.918589,281.775231" id="Line71" stroke-width="2" stroke-linecap="square"></path>
                <path d="M290.918589,123.372131 L290.918589,282.373916" id="Line8" stroke-width="2" stroke-linecap="square"></path>
                <path d="M257.918589,140.282001 L257.918589,282.313617" id="Line9" stroke-width="2" stroke-linecap="square"></path>
                <path d="M307.918589,108.448082 L307.918589,282.158562" id="Line101" stroke-width="2" stroke-linecap="square"></path>
                <path d="M274.918589,132.32656 L274.918589,282.481593" id="Line11" stroke-width="2" stroke-linecap="square"></path>
                <path d="M4.91858887,35.8102768 L4.91858887,280.537552" id="Line121" stroke-width="2" stroke-linecap="square"></path>
                <path d="M340.918589,66.6607442 L340.918589,281.663454" id="Line131" stroke-width="2" stroke-linecap="square"></path>
                <path d="M323.918589,90.5392234 L323.918589,281.774229" id="Line141" stroke-width="2" stroke-linecap="square"></path>
                <path d="M20.9185889,25.8683416 L20.9185889,281.223451" id="Line15" stroke-width="2" stroke-linecap="square"></path>
                <path d="M357.918589,36.7418981 L357.918589,281.801145" id="Line161" stroke-width="2" stroke-linecap="square"></path>
                <path d="M109.918589,62.6809977 L109.918589,282.124105" id="Line17" stroke-width="2" stroke-linecap="square"></path>
                <path d="M429.918589,26.5818664 L429.918589,281.167932" id="Line182" stroke-width="2" stroke-linecap="square"></path>
                <path d="M93.9185889,37.7764695 L93.9185889,281.96905" id="Line19" stroke-width="2" stroke-linecap="square"></path>
                <path d="M446.918589,35.8160214 L446.918589,281.478042" id="Line20" stroke-width="2" stroke-linecap="square"></path>
            </g>
        </g>
    </g>
</svg>