<?xml version="1.0" encoding="UTF-8"?>
<svg width="451px" height="400px" viewBox="0 0 451 400" version="1.1" xmlns="http://www.w3.org/2000/svg" xmlns:xlink="http://www.w3.org/1999/xlink">
    <!-- Generator: Sketch 43.2 (39069) - http://www.bohemiancoding.com/sketch -->
    <title>Computer</title>
    <desc>Created with Sketch.</desc>
    <defs></defs>
    <g id="Page-1" stroke="none" stroke-width="1" fill="none" fill-rule="evenodd">
        <g id="Mac" transform="translate(-176.000000, -117.000000)" stroke="#000000">
            <g id="Computer" transform="translate(176.000000, 117.000000)">
                <rect id="Screen" stroke-width="6" x="3" y="3" width="445" height="291" rx="21"></rect>
                <path d="M3,245 L448,245 L448,275.991071 C448,285.940117 439.946313,294 430.002283,294 L20.9977166,294 C11.0531865,294 3,285.946136 3,275.991071 L3,245 Z" id="Screen-bttm" stroke-width="6"></path>
                <path d="M178,292 C178,292 185,364 156,396" id="stand-lf" stroke-width="6"></path>
                <path d="M294,292 C294,292 301,364 272,396" id="stand-rg" stroke-width="6" transform="translate(283.371011, 344.000000) scale(-1, 1) translate(-283.371011, -344.000000) "></path>
                <path d="M294,397 L156.5,397" id="stand-bttm" stroke-width="6" stroke-linecap="square"></path>
                <circle id="screen-circle" stroke-width="3" cx="225" cy="269" r="9"></circle>
                <rect id="hero-img1" stroke-width="2" x="71" y="123" width="87" height="87"></rect>
                <rect id="hero-img2" stroke-width="2" x="182" y="123" width="87" height="87"></rect>
                <rect id="hero-img3" stroke-width="2" x="293" y="123" width="87" height="87"></rect>
                <path d="M4.5,91 L446.591619,91" id="header" stroke-width="2" stroke-linecap="square"></path>
                <path d="M22.5,90.5 L88.5,4.5" id="Line4" stroke-linecap="square"></path>
                <path d="M32.5,90.5 L98.5,4.5" id="Line3" stroke-linecap="square"></path>
                <path d="M42.5,90.5 L108.5,4.5" id="Line2" stroke-linecap="square"></path>
                <path d="M53.5,90.5 L119.5,4.5" id="Line1" stroke-linecap="square"></path>
            </g>
        </g>
    </g>
</svg>