<?xml version="1.0" encoding="UTF-8"?>
<svg preserveAspectRatio="xMinYMin meet" viewBox="0 0 451 396" version="1.1" class="header-svg">
    <title>Computer</title>
    <defs></defs>
    <g id="Page-1" stroke="none" stroke-width="1" fill="none" fill-rule="evenodd">
        <g id="Mac" transform="translate(-176.000000, -120.000000)" stroke="#000000">
            <g id="Computer" transform="translate(176.000000, 120.000000)">
                <rect id="Screen" stroke-width="6" x="3" y="3" width="445" height="287.268844" rx="21"></rect>
                <path d="M3,241.959799 L448,241.959799 L448,272.271549 C448,282.213796 439.946686,290.268844 430.002283,290.268844 L20.9977166,290.268844 C11.0567742,290.268844 3,282.213 3,272.271549 L3,241.959799 Z" id="Screen-bttm" stroke-width="6"></path>
                <path d="M178,288.331658 C178,288.331658 185,359.427136 156,391.025126" id="stand-lf" stroke-width="6"></path>
                <path d="M294,288.331658 C294,288.331658 301,359.427136 272,391.025126" id="stand-rg" stroke-width="6" transform="translate(283.371011, 339.678392) scale(-1, 1) translate(-283.371011, -339.678392) "></path>
                <path d="M294,392.012563 L156.5,392.012563" id="stand-bttm" stroke-width="6" stroke-linecap="square"></path>
                <ellipse id="screen-circle" stroke-width="3" cx="225" cy="265.620603" rx="9" ry="8.88693467"></ellipse>
            </g>
        </g>
    </g>
</svg>
