<?xml version="1.0" encoding="UTF-8"?>
<svg width="726px" height="105px" viewBox="0 0 726 105" version="1.1" xmlns="http://www.w3.org/2000/svg" xmlns:xlink="http://www.w3.org/1999/xlink">
    <!-- Generator: Sketch 43.2 (39069) - http://www.bohemiancoding.com/sketch -->
    <title>cw_horizontal_dark</title>
    <desc>Created with Sketch.</desc>
    <defs></defs>
    <g id="Page-1" stroke="none" stroke-width="1" fill="none" fill-rule="evenodd">
        <g id="Artboard-4" transform="translate(-169.000000, -135.000000)">
            <g id="cw_horizontal_dark" transform="translate(169.000000, 135.000000)">
                <path d="M161.901,47.34 L163.602,47.34 C161.805,53.496 157.312,56.576 150.122,56.576 C145.501,56.576 141.603,55.003 138.45,51.857 C135.292,48.715 133.714,44.553 133.714,39.376 C133.714,34.066 135.417,29.759 138.823,26.456 C142.231,23.155 146.261,21.503 150.911,21.503 C153.709,21.503 156.284,22.116 158.634,23.347 C160.991,24.574 162.169,26.073 162.169,27.843 C162.169,28.506 161.945,29.126 161.507,29.706 C161.075,30.287 160.447,30.578 159.631,30.578 C157.883,30.578 156.813,29.561 156.417,27.527 C156.1,25.994 155.616,24.924 154.955,24.318 C154.266,23.708 152.933,23.406 150.951,23.406 C147.411,23.406 144.748,24.633 142.962,27.089 C141.182,29.549 140.289,33.245 140.289,38.187 C140.289,43.285 141.251,47.275 143.168,50.156 C145.091,53.037 147.993,54.472 151.888,54.472 C157.13,54.472 160.468,52.095 161.901,47.34" id="Fill-1" fill="#1B1A19"></path>
                <path d="M189.18,28.161 C190.768,25.941 192.541,24.278 194.511,23.167 C196.476,22.057 198.636,21.503 200.988,21.503 C203.658,21.503 205.871,22.057 207.627,23.167 C209.381,24.278 210.527,25.646 211.054,27.268 C211.585,28.896 211.843,31.529 211.843,35.176 L211.843,44.13 C211.843,47.935 211.921,50.246 212.067,51.066 C212.213,51.885 212.641,52.486 213.353,52.868 C214.066,53.252 215.384,53.444 217.316,53.444 L217.316,55.266 L200.552,55.266 L200.552,53.444 L201.31,53.444 C203.231,53.444 204.479,53.17 205.052,52.613 C205.619,52.061 205.951,51.403 206.04,50.648 C206.135,49.898 206.18,47.723 206.18,44.13 L206.18,34.381 C206.18,31.687 206.023,29.695 205.708,28.398 C205.389,27.104 204.64,26.033 203.47,25.187 C202.287,24.341 200.819,23.92 199.049,23.92 C196.988,23.92 195.137,24.52 193.5,25.726 C191.86,26.924 190.423,28.728 189.18,31.132 L189.18,44.13 C189.18,47.778 189.239,50.024 189.357,50.869 C189.478,51.715 189.882,52.356 190.568,52.788 C191.253,53.227 192.509,53.444 194.331,53.444 L194.331,55.266 L177.849,55.266 L177.849,53.444 L178.676,53.444 C180.582,53.444 181.816,53.173 182.383,52.629 C182.952,52.091 183.284,51.441 183.377,50.691 C183.47,49.936 183.515,47.751 183.515,44.13 L183.515,11.796 C183.515,8.518 183.203,6.444 182.581,5.575 C181.962,4.701 180.477,4.267 178.124,4.267 L178.124,2.444 C182.218,2.444 185.628,1.889 188.351,0.779 L189.18,0.779 L189.18,28.161" id="Fill-2" fill="#1B1A19"></path>
                <path d="M254.715,35.453 L250.381,37.195 C243.546,39.971 240.129,43.456 240.129,47.658 C240.129,49.322 240.567,50.664 241.441,51.679 C242.318,52.699 243.452,53.205 244.857,53.205 C246.101,53.205 247.546,52.799 249.19,51.98 C250.831,51.16 252.676,49.93 254.715,48.292 L254.715,35.453 Z M266.183,49.322 L267.634,49.322 C267.397,53.839 265.178,56.101 260.994,56.101 C259.204,56.101 257.787,55.624 256.748,54.674 C255.707,53.722 255.029,52.308 254.715,50.431 C252.067,52.308 249.649,53.722 247.47,54.674 C245.284,55.624 243.327,56.101 241.61,56.101 C239.414,56.101 237.52,55.466 235.932,54.198 C234.345,52.93 233.548,51.251 233.548,49.162 C233.548,46.444 234.882,44.066 237.542,42.03 C240.197,39.995 243.875,38.015 248.559,36.085 L254.715,33.59 L254.715,32.005 C254.715,29.759 254.563,28.134 254.275,27.13 C253.983,26.126 253.23,25.228 252.007,24.435 C250.797,23.643 249.188,23.246 247.199,23.246 C243.226,23.246 241.017,24.569 240.565,27.209 C240.14,29.904 239.031,31.253 237.235,31.253 C235.625,31.253 234.821,30.486 234.821,28.953 C234.821,27.449 235.89,25.83 238.026,24.098 C240.169,22.369 243.499,21.503 248.013,21.503 C251.368,21.503 253.972,22.031 255.826,23.088 C257.675,24.146 258.895,25.347 259.488,26.696 C260.082,28.043 260.38,30.103 260.38,32.875 L260.38,45.993 C260.38,49.06 260.537,51.029 260.858,51.902 C261.176,52.772 261.863,53.205 262.926,53.205 C264.675,53.205 265.762,51.91 266.183,49.322 L266.183,49.322 Z" id="Fill-3" fill="#1B1A19"></path>
                <path d="M293.302,29.784 C294.199,27.434 295.656,25.467 297.679,23.88 C299.699,22.297 301.675,21.503 303.606,21.503 C305.347,21.503 306.724,22.046 307.725,23.127 C308.727,24.21 309.231,25.32 309.231,26.456 C309.231,27.221 308.969,27.882 308.459,28.437 C307.943,28.993 307.31,29.271 306.572,29.271 C305.252,29.271 304.251,28.293 303.561,26.338 C303.085,25.016 302.375,24.356 301.418,24.356 C300.287,24.356 298.929,25.126 297.344,26.676 C295.76,28.217 294.738,29.824 294.287,31.49 C293.839,33.156 293.617,35.439 293.617,38.346 L293.617,44.13 C293.617,47.591 293.661,49.772 293.754,50.668 C293.849,51.567 294.226,52.255 294.888,52.731 C295.559,53.205 296.737,53.444 298.442,53.444 L299.561,53.444 L299.561,55.266 L282.318,55.266 L282.318,53.444 L283.156,53.444 C284.74,53.444 285.87,53.227 286.54,52.788 C287.217,52.356 287.621,51.741 287.757,50.95 C287.886,50.156 287.949,47.883 287.949,44.13 L287.949,34.976 C287.949,31.49 287.907,29.303 287.812,28.42 C287.719,27.533 287.34,26.845 286.682,26.359 C286.022,25.867 284.848,25.624 283.156,25.624 L282.318,25.624 L282.318,23.841 C284.791,23.55 288.032,22.773 292.034,21.503 C292.8,23.59 293.223,26.351 293.302,29.784" id="Fill-4" fill="#1B1A19"></path>
                <path d="M326.22,4.938 C326.22,3.802 326.618,2.826 327.428,2.008 C328.23,1.187 329.201,0.779 330.339,0.779 C331.475,0.779 332.44,1.187 333.234,2.008 C334.022,2.826 334.422,3.802 334.422,4.938 C334.422,6.103 334.022,7.091 333.234,7.911 C332.44,8.729 331.475,9.14 330.339,9.14 C329.201,9.14 328.23,8.729 327.428,7.911 C326.618,7.091 326.22,6.103 326.22,4.938 Z M333.864,21.503 L333.864,44.13 C333.864,47.591 333.919,49.772 334.022,50.668 C334.128,51.567 334.513,52.255 335.173,52.731 C335.835,53.205 337.009,53.444 338.702,53.444 L339.529,53.444 L339.529,55.266 L322.055,55.266 L322.055,53.444 L323.401,53.444 C325.279,53.444 326.504,53.173 327.069,52.629 C327.638,52.091 327.964,51.441 328.059,50.691 C328.15,49.936 328.199,47.751 328.199,44.13 L328.199,34.303 C328.199,30.5 328.021,28.173 327.666,27.329 C327.303,26.483 326.832,25.954 326.239,25.743 C325.643,25.533 324.608,25.427 323.126,25.427 L322.055,25.427 L322.055,23.605 C326.756,23.127 330.409,22.429 332.996,21.503 L333.864,21.503 L333.864,21.503 Z" id="Fill-5" fill="#1B1A19"></path>
                <path d="M374.711,24.593 L364.921,24.593 L364.921,44.209 C364.921,47.22 365.056,49.249 365.321,50.293 C365.585,51.334 366.146,52.176 367.005,52.81 C367.866,53.444 368.78,53.761 369.757,53.761 C371.663,53.761 373.314,52.678 374.711,50.511 L375.979,51.267 C375.162,53.009 373.954,54.322 372.355,55.208 C370.753,56.09 369.139,56.534 367.5,56.534 C365.596,56.534 363.927,55.975 362.484,54.849 C361.05,53.73 360.149,52.413 359.791,50.906 C359.438,49.401 359.256,46.759 359.256,42.983 L359.256,24.593 L354.557,24.593 L354.557,22.792 C356.721,22.741 358.659,21.826 360.375,20.057 C362.088,18.287 363.185,15.802 363.652,12.604 L364.921,12.604 L364.921,22.773 L374.711,22.773 L374.711,24.593" id="Fill-6" fill="#1B1A19"></path>
                <path d="M408.487,49.124 L416.054,31.105 C417.14,28.458 417.677,26.987 417.677,26.697 C417.677,25.376 416.203,24.686 413.258,24.633 L413.258,22.812 L424.673,22.812 L424.673,24.633 C422.902,24.715 421.61,25.181 420.791,26.041 C419.968,26.899 418.953,28.795 417.736,31.726 L403.237,66.626 C401.866,69.96 400.649,72.228 399.594,73.431 C398.534,74.637 397.371,75.239 396.099,75.239 C394.381,75.239 393.527,74.456 393.527,72.898 C393.527,71.096 394.897,69.569 397.637,68.329 C399.247,67.61 400.32,67.002 400.861,66.5 C401.401,65.998 401.94,65.083 402.467,63.768 L405.57,56.059 L393.402,29.904 C392.325,27.607 391.424,26.154 390.709,25.545 C389.998,24.937 388.784,24.633 387.066,24.633 L387.066,22.812 L401.965,22.812 L401.965,24.633 C399.346,24.715 398.043,25.255 398.043,26.259 C398.043,26.656 398.557,27.95 399.59,30.142 L408.487,49.124" id="Fill-7" fill="#1B1A19"></path>
                <path d="M442.012,52.296 C442.012,51.135 442.43,50.135 443.266,49.302 C444.095,48.471 445.096,48.053 446.255,48.053 C447.446,48.053 448.457,48.471 449.287,49.302 C450.122,50.135 450.537,51.135 450.537,52.296 C450.537,53.485 450.116,54.495 449.272,55.325 C448.425,56.16 447.423,56.576 446.255,56.576 C445.066,56.576 444.063,56.145 443.245,55.287 C442.428,54.426 442.012,53.432 442.012,52.296 Z M442.012,24.832 C442.012,23.696 442.42,22.696 443.226,21.842 C444.032,20.98 445.041,20.551 446.255,20.551 C447.446,20.551 448.457,20.97 449.287,21.798 C450.122,22.634 450.537,23.643 450.537,24.832 C450.537,25.994 450.116,26.994 449.272,27.824 C448.425,28.656 447.423,29.071 446.255,29.071 C445.066,29.071 444.063,28.648 443.245,27.805 C442.428,26.958 442.012,25.968 442.012,24.832 L442.012,24.832 Z" id="Fill-8" fill="#1B1A19"></path>
                <path d="M538.336,56.576 L536.529,56.576 L526.857,30.816 L516.961,56.576 L515.302,56.576 L505.319,30.787 C504.183,27.849 503.337,26.089 502.783,25.508 C502.227,24.924 501.118,24.633 499.453,24.633 L499.453,22.812 L514.274,22.812 L514.274,24.633 C512.605,24.633 511.465,24.786 510.849,25.09 C510.242,25.397 509.937,25.921 509.937,26.665 C509.937,27.193 510.458,28.742 511.492,31.31 L518.101,48.726 L528.167,22.812 L529.702,22.812 L539.457,48.726 L546.609,30.27 C547.377,28.31 547.758,27.136 547.758,26.737 C547.758,25.439 546.427,24.739 543.758,24.633 L543.758,22.812 L554.299,22.812 L554.299,24.633 C553.028,24.66 552.029,24.905 551.308,25.368 C550.576,25.83 549.913,26.871 549.304,28.482 L548.435,30.787 L538.336,56.576" id="Fill-9" fill="#1B1A19"></path>
                <path d="M589.953,35.453 L585.619,37.195 C578.79,39.971 575.371,43.456 575.371,47.658 C575.371,49.322 575.807,50.664 576.679,51.679 C577.557,52.699 578.695,53.205 580.097,53.205 C581.346,53.205 582.788,52.799 584.43,51.98 C586.069,51.16 587.912,49.93 589.953,48.292 L589.953,35.453 Z M601.421,49.322 L602.872,49.322 C602.63,53.839 600.423,56.101 596.236,56.101 C594.442,56.101 593.029,55.624 591.989,54.674 C590.943,53.722 590.269,52.308 589.953,50.431 C587.307,52.308 584.891,53.722 582.708,54.674 C580.52,55.624 578.572,56.101 576.85,56.101 C574.65,56.101 572.761,55.466 571.174,54.198 C569.585,52.93 568.79,51.251 568.79,49.162 C568.79,46.444 570.125,44.066 572.78,42.03 C575.443,39.995 579.117,38.015 583.797,36.085 L589.953,33.59 L589.953,32.005 C589.953,29.759 589.805,28.134 589.515,27.13 C589.223,26.126 588.468,25.228 587.252,24.435 C586.029,23.643 584.43,23.246 582.443,23.246 C578.468,23.246 576.257,24.569 575.807,27.209 C575.384,29.904 574.271,31.253 572.477,31.253 C570.867,31.253 570.055,30.486 570.055,28.953 C570.055,27.449 571.128,25.83 573.269,24.098 C575.411,22.369 578.735,21.503 583.256,21.503 C586.613,21.503 589.211,22.031 591.064,23.088 C592.911,24.146 594.134,25.347 594.73,26.696 C595.32,28.043 595.618,30.103 595.618,32.875 L595.618,45.993 C595.618,49.06 595.777,51.029 596.095,51.902 C596.414,52.772 597.106,53.205 598.163,53.205 C599.913,53.205 601,51.91 601.421,49.322 L601.421,49.322 Z" id="Fill-10" fill="#1B1A19"></path>
                <path d="M636.545,24.593 L626.756,24.593 L626.756,44.209 C626.756,47.22 626.888,49.249 627.15,50.293 C627.419,51.334 627.981,52.176 628.834,52.81 C629.697,53.444 630.609,53.761 631.59,53.761 C633.492,53.761 635.142,52.678 636.545,50.511 L637.814,51.267 C636.991,53.009 635.783,54.322 634.186,55.208 C632.585,56.09 630.97,56.534 629.329,56.534 C627.431,56.534 625.762,55.975 624.319,54.849 C622.879,53.73 621.984,52.413 621.622,50.906 C621.269,49.401 621.089,46.759 621.089,42.983 L621.089,24.593 L616.392,24.593 L616.392,22.792 C618.553,22.741 620.492,21.826 622.208,20.057 C623.922,18.287 625.015,15.802 625.485,12.604 L626.756,12.604 L626.756,22.773 L636.545,22.773 L636.545,24.593" id="Fill-11" fill="#1B1A19"></path>
                <path d="M674.772,32.202 C674.852,31.595 674.896,31.054 674.896,30.578 C674.896,28.255 674.207,26.448 672.844,25.171 C671.482,23.887 669.806,23.246 667.818,23.246 C662.999,23.246 660.126,26.232 659.199,32.202 L674.772,32.202 Z M681.71,33.828 L659.041,33.828 C658.937,35.383 658.884,36.543 658.884,37.307 C658.884,43.003 659.775,47.283 661.56,50.147 C663.346,53.005 666.017,54.438 669.565,54.438 C674.388,54.438 677.801,52.28 679.817,47.973 L681.71,47.973 C680.856,50.668 679.178,52.779 676.671,54.293 C674.152,55.816 671.418,56.576 668.453,56.576 C665.703,56.576 663.106,55.879 660.657,54.495 C658.211,53.106 656.204,51.144 654.647,48.608 C653.083,46.071 652.307,42.994 652.307,39.376 C652.307,34.248 653.809,29.988 656.83,26.596 C659.847,23.199 663.614,21.503 668.137,21.503 C672.394,21.503 675.69,22.804 678.017,25.397 C680.342,27.997 681.577,30.806 681.71,33.828 L681.71,33.828 Z" id="Fill-12" fill="#1B1A19"></path>
                <path d="M709.635,29.784 C710.529,27.434 711.991,25.467 714.014,23.88 C716.03,22.297 718.005,21.503 719.939,21.503 C721.68,21.503 723.055,22.046 724.058,23.127 C725.063,24.21 725.564,25.32 725.564,26.456 C725.564,27.221 725.304,27.882 724.792,28.437 C724.276,28.993 723.652,29.271 722.907,29.271 C721.589,29.271 720.584,28.293 719.899,26.338 C719.425,25.016 718.714,24.356 717.758,24.356 C716.622,24.356 715.26,25.126 713.677,26.676 C712.09,28.217 711.079,29.824 710.625,31.49 C710.18,33.156 709.952,35.439 709.952,38.346 L709.952,44.13 C709.952,47.591 709.996,49.772 710.089,50.668 C710.183,51.567 710.561,52.255 711.23,52.731 C711.896,53.205 713.072,53.444 714.779,53.444 L715.894,53.444 L715.894,55.266 L698.661,55.266 L698.661,53.444 L699.489,53.444 C701.073,53.444 702.207,53.227 702.874,52.788 C703.551,52.356 703.952,51.741 704.086,50.95 C704.217,50.156 704.286,47.883 704.286,44.13 L704.286,34.976 C704.286,31.49 704.24,29.303 704.143,28.42 C704.056,27.533 703.677,26.845 703.018,26.359 C702.357,25.867 701.179,25.624 699.489,25.624 L698.661,25.624 L698.661,23.841 C701.133,23.55 704.367,22.773 708.367,21.503 C709.133,23.59 709.554,26.351 709.635,29.784" id="Fill-13" fill="#1B1A19"></path>
                <g id="Group">
                    <polygon id="Fill-1" fill="#1A1918" points="6 94.1915 70 94.1915 70 22.615 6 22.615"></polygon>
                    <path d="M56.48,68.001 C56.48,68.001 63.028,79.431 64.398,82.052 C66.211,85.522 63.739,87.008 63.739,87.008 C63.739,87.008 60.441,88.666 58.789,85.69 C57.392,83.159 52.826,75.113 51.202,72.629 C49.114,69.434 48.237,68.331 45.432,68.331 L38.778,68.331 L38.339,68.331 L31.639,68.331 C28.811,68.331 27.925,69.434 25.817,72.629 C24.182,75.113 19.587,83.159 18.173,85.69 C16.509,88.666 13.185,87.008 13.185,87.008 C13.185,87.008 10.693,85.522 12.523,82.052 C13.905,79.431 20.499,68.001 20.499,68.001 C20.499,68.001 22.16,65.467 22.16,63.375 L22.16,57.528 L22.16,56.427 L22.16,50.602 C22.16,48.513 20.499,45.985 20.499,45.985 C20.499,45.985 13.905,34.583 12.523,31.968 C10.693,28.505 13.185,27.022 13.185,27.022 C13.185,27.022 16.509,25.371 18.173,28.34 C19.587,30.863 24.182,38.894 25.817,41.368 C27.925,44.558 28.811,45.652 31.639,45.652 L38.339,45.652 L38.778,45.652 L45.432,45.652 C48.237,45.652 49.114,44.558 51.202,41.368 C52.826,38.894 57.392,30.863 58.789,28.34 C60.441,25.371 63.739,27.022 63.739,27.022 C63.739,27.022 66.211,28.505 64.398,31.968 C63.028,34.583 56.48,45.985 56.48,45.985 C56.48,45.985 54.831,48.513 54.831,50.602 L54.831,56.427 L54.831,57.528 L54.831,63.375 C54.831,65.467 56.48,68.001 56.48,68.001 Z M31.694,7.618 L51.254,7.618 C52.926,7.618 54.283,8.972 54.283,10.641 C54.283,12.311 52.926,13.662 51.254,13.662 L31.694,13.662 C30.021,13.662 28.668,12.311 28.668,10.641 C28.668,8.972 30.021,7.618 31.694,7.618 Z M73.85,13.995 C73.356,13.004 70.167,6.684 70.167,6.684 C70.167,6.684 71.38,5.967 71.933,5.695 C72.482,5.421 72.895,5.072 72.145,3.66 C71.34,2.138 70.551,2.581 70.551,2.581 C70.551,2.581 69.487,3.171 68.299,3.771 C66.32,0.855 63.57,0.574 62.747,0.582 C62.199,0.584 59.503,0.582 58.68,0.582 C57.854,0.582 57.088,0.691 56.753,1.133 C56.425,1.57 55.657,1.957 54.725,1.957 L26.855,1.957 C26.58,1.98 26.525,1.79 26.356,1.681 C24.486,0.637 22.429,1.655 21.984,2.15 C21.549,2.643 19.788,4.788 18.749,5.967 C17.699,7.149 16.793,7.373 16.082,7.592 C16.518,7.012 16.191,6.462 16.191,6.462 L15.775,5.64 L16.354,4.073 L16.873,3.799 L16.572,3.08 C16.572,3.08 16.242,3.222 15.635,3.522 C15.035,3.823 15.035,4.1 15.035,4.1 C14.763,5.088 14.043,5.144 14.043,5.144 C14.043,5.144 12.448,2.122 12.233,1.735 C12.009,1.351 11.573,0.141 6.239,2.998 C0.907,5.86 2.171,6.958 2.171,6.958 L3.987,10.471 L3.434,10.916 L4.761,13.552 C4.761,13.552 4.426,13.717 3.267,14.489 C2.117,15.257 0.852,16.027 0.852,18.113 L0.852,94.851 C0.852,100.625 2.505,103.26 8.935,103.26 L67.643,103.26 C71.431,103.26 75.063,101.281 75.063,94.689 L75.063,18.829 C75.063,15.039 74.343,14.983 73.85,13.995 Z M46.915,50.93 L30.428,50.93 C28.971,50.93 27.787,52.111 27.787,53.568 L27.787,60.717 C27.787,62.175 28.971,63.357 30.428,63.357 L46.915,63.357 C48.371,63.357 49.553,62.175 49.553,60.717 L49.553,53.568 C49.553,52.111 48.371,50.93 46.915,50.93 L46.915,50.93 Z" id="Fill-16" fill="#F9C525"></path>
                </g>
                <path d="M136.805,101.687 L138.868,98.843 C140.275,100.375 142.556,101.75 145.463,101.75 C148.464,101.75 149.621,100.281 149.621,98.874 C149.621,94.498 137.492,97.217 137.492,89.559 C137.492,86.09 140.493,83.433 145.088,83.433 C148.308,83.433 150.965,84.495 152.872,86.371 L150.809,89.09 C149.152,87.434 146.933,86.683 144.745,86.683 C142.619,86.683 141.244,87.746 141.244,89.278 C141.244,93.186 153.372,90.779 153.372,98.53 C153.372,102 150.903,105 145.307,105 C141.462,105 138.681,103.626 136.805,101.687" id="Fill-17" fill="#1A1918"></path>
                <path d="M159.839,96.374 L159.839,83.777 L163.559,83.777 L163.559,96.28 C163.559,99.592 165.404,101.75 168.873,101.75 C172.342,101.75 174.187,99.592 174.187,96.28 L174.187,83.777 L177.907,83.777 L177.907,96.374 C177.907,101.531 174.938,105 168.873,105 C162.84,105 159.839,101.531 159.839,96.374" id="Fill-18" fill="#1A1918"></path>
                <path d="M197.689,90.31 C197.689,88.309 196.22,86.996 194.157,86.996 L189.124,86.996 L189.124,93.591 L194.157,93.591 C196.22,93.591 197.689,92.278 197.689,90.31 Z M185.467,104.626 L185.467,83.777 L194.657,83.777 C199.034,83.777 201.44,86.746 201.44,90.31 C201.44,93.842 199.002,96.811 194.657,96.811 L189.124,96.811 L189.124,104.626 L185.467,104.626 L185.467,104.626 Z" id="Fill-19" fill="#1A1918"></path>
                <path d="M219.848,90.31 C219.848,88.309 218.379,86.996 216.316,86.996 L211.283,86.996 L211.283,93.591 L216.316,93.591 C218.379,93.591 219.848,92.278 219.848,90.31 Z M207.625,104.626 L207.625,83.777 L216.816,83.777 C221.192,83.777 223.599,86.746 223.599,90.31 C223.599,93.842 221.161,96.811 216.816,96.811 L211.283,96.811 L211.283,104.626 L207.625,104.626 L207.625,104.626 Z" id="Fill-20" fill="#1A1918"></path>
                <path d="M246.446,94.217 C246.446,89.903 243.726,86.683 239.538,86.683 C235.317,86.683 232.629,89.903 232.629,94.217 C232.629,98.499 235.317,101.75 239.538,101.75 C243.726,101.75 246.446,98.499 246.446,94.217 Z M228.879,94.217 C228.879,87.996 233.286,83.433 239.538,83.433 C245.758,83.433 250.197,87.996 250.197,94.217 C250.197,100.437 245.758,105 239.538,105 C233.286,105 228.879,100.437 228.879,94.217 L228.879,94.217 Z" id="Fill-21" fill="#1A1918"></path>
                <path d="M269.073,90.278 C269.073,88.277 267.572,86.996 265.509,86.996 L260.477,86.996 L260.477,93.623 L265.509,93.623 C267.572,93.623 269.073,92.31 269.073,90.278 Z M268.729,104.626 L264.134,96.843 L260.477,96.843 L260.477,104.626 L256.819,104.626 L256.819,83.777 L265.978,83.777 C270.104,83.777 272.824,86.434 272.824,90.31 C272.824,93.997 270.386,96.03 267.853,96.436 L272.98,104.626 L268.729,104.626 L268.729,104.626 Z" id="Fill-22" fill="#1A1918"></path>
                <polyline id="Fill-23" fill="#1A1918" points="284.262 104.626 284.262 86.996 277.948 86.996 277.948 83.777 294.233 83.777 294.233 86.996 287.919 86.996 287.919 104.626 284.262 104.626"></polyline>
                <polyline id="Fill-24" fill="#1A1918" points="300.45 104.626 300.45 83.777 314.735 83.777 314.735 86.996 304.107 86.996 304.107 92.373 314.517 92.373 314.517 95.591 304.107 95.591 304.107 101.406 314.735 101.406 314.735 104.626 300.45 104.626"></polyline>
                <path d="M333.862,90.278 C333.862,88.277 332.362,86.996 330.299,86.996 L325.266,86.996 L325.266,93.623 L330.299,93.623 C332.362,93.623 333.862,92.31 333.862,90.278 Z M333.518,104.626 L328.924,96.843 L325.266,96.843 L325.266,104.626 L321.609,104.626 L321.609,83.777 L330.768,83.777 C334.894,83.777 337.613,86.434 337.613,90.31 C337.613,93.997 335.176,96.03 332.644,96.436 L337.77,104.626 L333.518,104.626 L333.518,104.626 Z" id="Fill-25" fill="#1A1918"></path>
            </g>
        </g>
    </g>
</svg>