<?xml version="1.0" encoding="UTF-8"?>
<svg width="211px" height="268px" viewBox="0 0 211 268" version="1.1" xmlns="http://www.w3.org/2000/svg" xmlns:xlink="http://www.w3.org/1999/xlink">
    <!-- Generator: Sketch 43.2 (39069) - http://www.bohemiancoding.com/sketch -->
    <title>howdo</title>
    <desc>Created with Sketch.</desc>
    <defs></defs>
    <g id="Current" stroke="none" stroke-width="1" fill="none" fill-rule="evenodd">
        <g id="Logo" transform="translate(-92.000000, -434.000000)" fill-rule="nonzero" fill="#182E8B">
            <g id="Group-Copy" transform="translate(92.000000, 434.000000)">
                <g id="howdo" transform="translate(0.000000, -0.000000)">
                    <path d="M168.070139,117.017838 C162.982139,123.344677 156.162805,128.187007 149.484805,132.711227 C136.040472,141.830359 121.465472,149.712399 110.282472,161.729859 C99.8139419,172.858528 92.6929236,186.713452 89.7361387,201.705587 C88.2488221,208.943232 88.4665709,216.427893 90.3721387,223.566761 C92.4204872,230.519937 95.9594203,236.942864 100.742472,242.388225 C106.691867,248.980303 113.717052,254.513939 121.518472,258.753178 C125.151817,260.834199 128.916911,262.676069 132.789805,264.267072 C134.220805,264.850272 135.651805,265.345109 137.118139,265.786927 C137.506805,265.892964 140.280472,266.423146 140.333472,266.917982 C140.333472,266.917982 130.881805,265.150709 130.033805,264.832599 C125.122472,263.613181 120.246472,262.270053 115.423472,260.750197 C105.670863,257.71682 96.1818448,253.892721 87.0508054,249.315937 C70.7621387,241.045097 54.791472,229.222037 47.000472,212.203192 C42.8554766,202.949094 41.4809,192.691475 43.0431387,182.672051 C44.562472,172.792992 48.8731387,163.67386 51.7881387,154.183601 C57.4591387,135.644901 59.7028054,114.331582 50.286472,96.588155 C46.3666176,89.1226433 40.5390347,82.8296187 33.3971387,78.3498917 C25.800472,73.6666167 15.9071387,70.2734515 6.98547204,72.6592708 C5.88967934,72.9558354 4.82934497,73.3706337 3.8231387,73.8963623 C3.09880537,74.2851625 2.26847204,75.1511265 1.45580537,75.3101812 C-0.522861296,75.6989813 0.00713870407,73.1010892 0.254472037,71.9523614 C1.32809639,67.639821 2.94892395,63.4824251 5.07747204,59.5814463 C9.75327652,50.7366407 15.4708535,42.4836513 22.1081387,34.9986709 C28.5055476,27.6650026 35.6061638,20.976292 43.3081387,15.0284795 C49.729785,10.4585349 56.8467699,6.95551286 64.384472,4.65458358 C80.284472,-0.647237144 97.191472,-1.97269233 113.179805,3.59421944 C121.408016,6.65529014 129.251854,10.664554 136.552805,15.5409888 C143.397444,19.8853506 149.589759,25.1812717 154.943805,31.2697236 C160.386182,37.7087038 165.096732,44.732501 168.988805,52.2119155 C173.741381,60.7903896 176.743882,70.2274872 177.822139,79.9757834 C178.266029,84.7457771 178.135539,89.5518411 177.433472,94.2906994 C176.410359,102.570382 173.175865,110.421303 168.070139,117.017838 Z" id="Shape"></path>
                    <path d="M200.020333,219.37128 C200.126333,218.487643 209.807667,197.227342 210.620333,181.162825 C211.433,165.098308 187,200.708871 187,200.708871" id="Shape"></path>
                    <path d="M115.081856,220.805574 C114.922856,219.921937 103.598522,199.297855 102.061522,183.286356 C100.524522,167.274857 128.296522,201.277201 128.296522,201.277201" id="Shape"></path>
                    <path d="M141.842536,244.377528 C144.545536,241.443854 142.319536,232.943268 133.380203,227.994902 C124.44087,223.046536 120.554203,237.944653 127.72687,242.239127 C134.899536,246.533602 139.139536,247.29353 141.842536,244.377528 Z" id="Shape"></path>
                    <path d="M176.889469,244.571732 C179.839803,247.028243 187.860469,244.465696 192.153469,235.647001 C196.446469,226.828306 181.977469,223.876959 178.232136,230.946053 C174.486803,238.015147 173.939136,242.132895 176.889469,244.571732 Z" id="Shape"></path>
                    <path d="M151,263.553604 C151,268.448952 157.112667,267.229533 160.787333,267.229533 C164.462,267.229533 169.355667,266.010114 169.355667,262.334185 C169.355667,258.658256 166.9,255 160.787333,255 C154.674667,255 151,258.658256 151,263.553604 Z" id="Shape"></path>
                </g>
            </g>
        </g>
    </g>
</svg>