<?xml version="1.0" encoding="UTF-8"?>
<svg width="711px" height="123px" viewBox="0 0 711 123" version="1.1" xmlns="http://www.w3.org/2000/svg" xmlns:xlink="http://www.w3.org/1999/xlink">
    <!-- Generator: Sketch 43.2 (39069) - http://www.bohemiancoding.com/sketch -->
    <title>Group 4</title>
    <desc>Created with Sketch.</desc>
    <defs>
        <path d="M465.085615,95.2035112 L465.085615,22.2937185 C465.085615,9.97093664 472.893479,3.29609647 483.540567,3.29609647 L513.884769,3.29609647 C551.681931,3.29609647 574.928074,24.3475155 574.928074,58.0640158 C574.928074,92.2939654 550.972125,114.029983 513.174963,114.029983 L484.782728,114.029983 C473.780737,114.029983 465.085615,105.643646 465.085615,95.2035112 Z M500.221005,84.9345263 L512.287705,84.9345263 C528.968143,84.9345263 539.792683,75.1789906 539.792683,58.2351656 C539.792683,41.63364 529.323046,32.3915536 512.82006,32.3915536 L500.221005,32.3915536 L500.221005,84.9345263 Z M583.800647,58.5774651 C583.800647,25.0321145 609.176207,0.9 644.489049,0.9 C679.801891,0.9 705,24.8609647 705,58.5774651 C705,92.2939654 679.801891,116.42608 644.489049,116.42608 C608.998756,116.42608 583.800647,92.4651152 583.800647,58.5774651 Z M618.936038,58.5774651 C618.936038,75.0078409 629.050772,85.790275 644.489049,85.790275 C659.749876,85.790275 669.864609,75.0078409 669.864609,58.5774651 C669.864609,42.318239 659.749876,31.1935054 644.489049,31.1935054 C628.87332,31.1935054 618.936038,41.8047898 618.936038,58.5774651 Z M0.162767546,98.9688056 C0.162767546,109.40894 5.30886013,114.885732 15.0686909,114.885732 L20.2147835,114.885732 C30.5069686,114.885732 35.8305127,109.40894 35.8305127,98.9688056 L35.8305127,72.7828942 L72.5629667,72.7828942 L72.5629667,98.9688056 C72.5629667,109.40894 77.7090592,114.885732 87.46889,114.885732 L92.792434,114.885732 C102.907168,114.885732 108.230712,109.40894 108.230712,98.9688056 L108.230712,18.3572743 C108.230712,7.74598992 102.907168,2.44034773 92.792434,2.44034773 L87.46889,2.44034773 C77.7090592,2.44034773 72.5629667,7.74598992 72.5629667,18.3572743 L72.5629667,44.0297365 L35.8305127,44.0297365 L35.8305127,18.3572743 C35.8305127,7.74598992 30.5069686,2.44034773 20.2147835,2.44034773 L15.0686909,2.44034773 C5.30886013,2.44034773 0.162767546,7.74598992 0.162767546,18.3572743 L0.162767546,98.9688056 Z M120.652315,58.5774651 C120.652315,25.0321145 146.027875,0.9 181.340717,0.9 C216.653559,0.9 241.851667,24.8609647 241.851667,58.5774651 C241.851667,92.2939654 216.653559,116.42608 181.340717,116.42608 C145.850423,116.42608 120.652315,92.4651152 120.652315,58.5774651 Z M155.787705,58.5774651 C155.787705,75.0078409 165.902439,85.790275 181.340717,85.790275 C196.601543,85.790275 206.716277,75.0078409 206.716277,58.5774651 C206.716277,42.318239 196.601543,31.1935054 181.340717,31.1935054 C165.724988,31.1935054 155.787705,41.8047898 155.787705,58.5774651 Z M278.761573,101.878351 C281.600796,112.147336 288.343952,115.056882 299.345943,115.056882 C309.993031,115.056882 317.623444,111.805037 320.462668,101.878351 L333.771528,56.1813686 L347.25784,101.878351 C350.451966,111.976186 357.550025,115.056882 368.197113,115.056882 C379.199104,115.056882 386.474614,111.633887 389.136386,101.878351 L415.221752,14.4208301 C415.754107,12.7093326 408.656048,2.78264723 394.45993,2.78264723 C386.119711,2.78264723 377.602041,7.23254068 375.11772,20.582221 L365.535341,68.84645 L353.468641,25.5455637 C351.516675,17.6726753 343.531359,13.0516321 334.481334,13.0516321 C324.898955,13.0516321 316.913639,16.9880763 314.961672,25.5455637 L302.894973,68.84645 L293.312593,21.0956703 C290.47337,6.54794168 280.890991,2.78264723 273.792932,2.78264723 C258.709557,2.78264723 251.256595,12.8804824 251.611498,14.4208301 L278.761573,101.878351 Z" id="path-1"></path>
        <filter x="-0.4%" y="-2.6%" width="101.7%" height="110.4%" filterUnits="objectBoundingBox" id="filter-2">
            <feOffset dx="6" dy="6" in="SourceAlpha" result="shadowOffsetOuter1"></feOffset>
            <feColorMatrix values="0 0 0 0 1   0 0 0 0 1   0 0 0 0 1  0 0 0 1 0" type="matrix" in="shadowOffsetOuter1"></feColorMatrix>
        </filter>
    </defs>
    <g id="Page-1" stroke="none" stroke-width="1" fill="none" fill-rule="evenodd">
        <g id="Logo" transform="translate(-75.000000, -87.000000)">
            <g id="Group-4" transform="translate(75.000000, 87.000000)">
                <g id="DO">
                    <use fill="black" fill-opacity="1" filter="url(#filter-2)" xlink:href="#path-1"></use>
                    <use fill="#182E8B" fill-rule="evenodd" xlink:href="#path-1"></use>
                </g>
            </g>
        </g>
    </g>
</svg>