<?xml version="1.0" encoding="UTF-8"?>
<svg width="719px" height="172px" viewBox="0 0 719 172" version="1.1" xmlns="http://www.w3.org/2000/svg" xmlns:xlink="http://www.w3.org/1999/xlink">
    <!-- Generator: Sketch 43.2 (39069) - http://www.bohemiancoding.com/sketch -->
    <title>Group 4</title>
    <desc>Created with Sketch.</desc>
    <defs>
        <path d="M473.085615,95.2035112 L473.085615,22.2937185 C473.085615,9.97093664 480.893479,3.29609647 491.540567,3.29609647 L521.884769,3.29609647 C559.681931,3.29609647 582.928074,24.3475155 582.928074,58.0640158 C582.928074,92.2939654 558.972125,114.029983 521.174963,114.029983 L492.782728,114.029983 C481.780737,114.029983 473.085615,105.643646 473.085615,95.2035112 Z M508.221005,84.9345263 L520.287705,84.9345263 C536.968143,84.9345263 547.792683,75.1789906 547.792683,58.2351656 C547.792683,41.63364 537.323046,32.3915536 520.82006,32.3915536 L508.221005,32.3915536 L508.221005,84.9345263 Z M591.800647,58.5774651 C591.800647,25.0321145 617.176207,0.9 652.489049,0.9 C687.801891,0.9 713,24.8609647 713,58.5774651 C713,92.2939654 687.801891,116.42608 652.489049,116.42608 C616.998756,116.42608 591.800647,92.4651152 591.800647,58.5774651 Z M626.936038,58.5774651 C626.936038,75.0078409 637.050772,85.790275 652.489049,85.790275 C667.749876,85.790275 677.864609,75.0078409 677.864609,58.5774651 C677.864609,42.318239 667.749876,31.1935054 652.489049,31.1935054 C636.87332,31.1935054 626.936038,41.8047898 626.936038,58.5774651 Z M8.16276755,98.9688056 C8.16276755,109.40894 13.3088601,114.885732 23.0686909,114.885732 L28.2147835,114.885732 C38.5069686,114.885732 43.8305127,109.40894 43.8305127,98.9688056 L43.8305127,72.7828942 L80.5629667,72.7828942 L80.5629667,98.9688056 C80.5629667,109.40894 85.7090592,114.885732 95.46889,114.885732 L100.792434,114.885732 C110.907168,114.885732 116.230712,109.40894 116.230712,98.9688056 L116.230712,18.3572743 C116.230712,7.74598992 110.907168,2.44034773 100.792434,2.44034773 L95.46889,2.44034773 C85.7090592,2.44034773 80.5629667,7.74598992 80.5629667,18.3572743 L80.5629667,44.0297365 L43.8305127,44.0297365 L43.8305127,18.3572743 C43.8305127,7.74598992 38.5069686,2.44034773 28.2147835,2.44034773 L23.0686909,2.44034773 C13.3088601,2.44034773 8.16276755,7.74598992 8.16276755,18.3572743 L8.16276755,98.9688056 Z M128.652315,58.5774651 C128.652315,25.0321145 154.027875,0.9 189.340717,0.9 C224.653559,0.9 249.851667,24.8609647 249.851667,58.5774651 C249.851667,92.2939654 224.653559,116.42608 189.340717,116.42608 C153.850423,116.42608 128.652315,92.4651152 128.652315,58.5774651 Z M163.787705,58.5774651 C163.787705,75.0078409 173.902439,85.790275 189.340717,85.790275 C204.601543,85.790275 214.716277,75.0078409 214.716277,58.5774651 C214.716277,42.318239 204.601543,31.1935054 189.340717,31.1935054 C173.724988,31.1935054 163.787705,41.8047898 163.787705,58.5774651 Z M286.761573,101.878351 C289.600796,112.147336 296.343952,115.056882 307.345943,115.056882 C317.993031,115.056882 325.623444,111.805037 328.462668,101.878351 L341.771528,56.1813686 L355.25784,101.878351 C358.451966,111.976186 365.550025,115.056882 376.197113,115.056882 C387.199104,115.056882 394.474614,111.633887 397.136386,101.878351 L423.221752,14.4208301 C423.754107,12.7093326 416.656048,2.78264723 402.45993,2.78264723 C394.119711,2.78264723 385.602041,7.23254068 383.11772,20.582221 L373.535341,68.84645 L361.468641,25.5455637 C359.516675,17.6726753 351.531359,13.0516321 342.481334,13.0516321 C332.898955,13.0516321 324.913639,16.9880763 322.961672,25.5455637 L310.894973,68.84645 L301.312593,21.0956703 C298.47337,6.54794168 288.890991,2.78264723 281.792932,2.78264723 C266.709557,2.78264723 259.256595,12.8804824 259.611498,14.4208301 L286.761573,101.878351 Z" id="path-1"></path>
        <filter x="-0.4%" y="-2.6%" width="101.7%" height="110.4%" filterUnits="objectBoundingBox" id="filter-2">
            <feOffset dx="6" dy="6" in="SourceAlpha" result="shadowOffsetOuter1"></feOffset>
            <feColorMatrix values="0 0 0 0 1   0 0 0 0 1   0 0 0 0 1  0 0 0 1 0" type="matrix" in="shadowOffsetOuter1"></feColorMatrix>
        </filter>
        <rect id="path-3" x="0" y="137.990948" width="642.374316" height="27.3839597" rx="13.6919798"></rect>
        <filter x="-0.5%" y="-11.0%" width="101.9%" height="143.8%" filterUnits="objectBoundingBox" id="filter-4">
            <feOffset dx="6" dy="6" in="SourceAlpha" result="shadowOffsetOuter1"></feOffset>
            <feColorMatrix values="0 0 0 0 1   0 0 0 0 1   0 0 0 0 1  0 0 0 1 0" type="matrix" in="shadowOffsetOuter1"></feColorMatrix>
        </filter>
    </defs>
    <g id="Page-1" stroke="none" stroke-width="1" fill="none" fill-rule="evenodd">
        <g id="Logo" transform="translate(-67.000000, -87.000000)">
            <g id="Group-4" transform="translate(67.000000, 87.000000)">
                <g id="DO">
                    <use fill="black" fill-opacity="1" filter="url(#filter-2)" xlink:href="#path-1"></use>
                    <use fill="#000000" fill-rule="evenodd" xlink:href="#path-1"></use>
                </g>
                <g id="Rectangle">
                    <use fill="black" fill-opacity="1" filter="url(#filter-4)" xlink:href="#path-3"></use>
                    <use fill="#000000" fill-rule="evenodd" xlink:href="#path-3"></use>
                </g>
            </g>
        </g>
    </g>
</svg>