<?xml version="1.0" encoding="UTF-8"?>
<svg width="230px" height="230px" viewBox="0 0 230 230" version="1.1" xmlns="http://www.w3.org/2000/svg" xmlns:xlink="http://www.w3.org/1999/xlink">
    <!-- Generator: Sketch 43.2 (39069) - http://www.bohemiancoding.com/sketch -->
    <title>Group 5</title>
    <desc>Created with Sketch.</desc>
    <defs></defs>
    <g id="Page-1" stroke="none" stroke-width="1" fill="none" fill-rule="evenodd">
        <g id="Logo" transform="translate(-67.000000, -362.000000)">
            <g id="Group-5" transform="translate(67.000000, 362.000000)">
                <g id="Group">
                    <circle id="Oval" fill="#FFB9EF" cx="115" cy="115" r="115"></circle>
                    <path d="M22.208,117.776 C22.208,120.704 23.6,122.24 26.24,122.24 L27.632,122.24 C30.416,122.24 31.856,120.704 31.856,117.776 L31.856,110.432 L41.792,110.432 L41.792,117.776 C41.792,120.704 43.184,122.24 45.824,122.24 L47.264,122.24 C50,122.24 51.44,120.704 51.44,117.776 L51.44,95.168 C51.44,92.192 50,90.704 47.264,90.704 L45.824,90.704 C43.184,90.704 41.792,92.192 41.792,95.168 L41.792,102.368 L31.856,102.368 L31.856,95.168 C31.856,92.192 30.416,90.704 27.632,90.704 L26.24,90.704 C23.6,90.704 22.208,92.192 22.208,95.168 L22.208,117.776 Z M54.8,106.448 C54.8,97.04 61.664,90.272 71.216,90.272 C80.768,90.272 87.584,96.992 87.584,106.448 C87.584,115.904 80.768,122.672 71.216,122.672 C61.616,122.672 54.8,115.952 54.8,106.448 Z M64.304,106.448 C64.304,111.056 67.04,114.08 71.216,114.08 C75.344,114.08 78.08,111.056 78.08,106.448 C78.08,101.888 75.344,98.768 71.216,98.768 C66.992,98.768 64.304,101.744 64.304,106.448 Z M97.568,118.592 C98.336,121.472 100.16,122.288 103.136,122.288 C106.016,122.288 108.08,121.376 108.848,118.592 L112.448,105.776 L116.096,118.592 C116.96,121.424 118.88,122.288 121.76,122.288 C124.736,122.288 126.704,121.328 127.424,118.592 L134.48,94.064 C134.624,93.584 132.704,90.8 128.864,90.8 C126.608,90.8 124.304,92.048 123.632,95.792 L121.04,109.328 L117.776,97.184 C117.248,94.976 115.088,93.68 112.64,93.68 C110.048,93.68 107.888,94.784 107.36,97.184 L104.096,109.328 L101.504,95.936 C100.736,91.856 98.144,90.8 96.224,90.8 C92.144,90.8 90.128,93.632 90.224,94.064 L97.568,118.592 Z" id="HOW-Copy" fill="#000000"></path>
                    <path d="M148.208,116.72 L148.208,96.272 C148.208,92.816 150.32,90.944 153.2,90.944 L161.408,90.944 C171.632,90.944 177.92,96.848 177.92,106.304 C177.92,115.904 171.44,122 161.216,122 L153.536,122 C150.56,122 148.208,119.648 148.208,116.72 Z M157.712,113.84 L160.976,113.84 C165.488,113.84 168.416,111.104 168.416,106.352 C168.416,101.696 165.584,99.104 161.12,99.104 L157.712,99.104 L157.712,113.84 Z M180.32,106.448 C180.32,97.04 187.184,90.272 196.736,90.272 C206.288,90.272 213.104,96.992 213.104,106.448 C213.104,115.904 206.288,122.672 196.736,122.672 C187.136,122.672 180.32,115.952 180.32,106.448 Z M189.824,106.448 C189.824,111.056 192.56,114.08 196.736,114.08 C200.864,114.08 203.6,111.056 203.6,106.448 C203.6,101.888 200.864,98.768 196.736,98.768 C192.512,98.768 189.824,101.744 189.824,106.448 Z" id="DO-Copy" fill="#000000"></path>
                    <rect id="Rectangle-Copy" fill="#000000" x="22" y="134" width="170" height="10" rx="5"></rect>
                </g>
            </g>
        </g>
    </g>
</svg>