<?xml version="1.0" encoding="UTF-8"?>
<svg width="975px" height="274px" viewBox="0 0 975 274" version="1.1" xmlns="http://www.w3.org/2000/svg" xmlns:xlink="http://www.w3.org/1999/xlink">
    <!-- Generator: Sketch 43.2 (39069) - http://www.bohemiancoding.com/sketch -->
    <title>Group Copy</title>
    <desc>Created with Sketch.</desc>
    <defs></defs>
    <g id="Current" stroke="none" stroke-width="1" fill="none" fill-rule="evenodd">
        <g id="Logo" transform="translate(-92.000000, -434.000000)">
            <g id="Group-Copy" transform="translate(92.000000, 434.000000)">
                <g id="Group-4" transform="translate(267.000000, 157.000000)" fill="#182E8B">
                    <path d="M0,97.5284579 C0,107.968593 5.14609258,113.445384 14.9059233,113.445384 L20.0520159,113.445384 C30.3442011,113.445384 35.6677451,107.968593 35.6677451,97.5284579 L35.6677451,71.3425464 L72.4001991,71.3425464 L72.4001991,97.5284579 C72.4001991,107.968593 77.5462917,113.445384 87.3061224,113.445384 L92.6296665,113.445384 C102.7444,113.445384 108.067944,107.968593 108.067944,97.5284579 L108.067944,16.9169266 C108.067944,6.30564219 102.7444,1 92.6296665,1 L87.3061224,1 C77.5462917,1 72.4001991,6.30564219 72.4001991,16.9169266 L72.4001991,42.5893888 L35.6677451,42.5893888 L35.6677451,16.9169266 C35.6677451,6.30564219 30.3442011,1 20.0520159,1 L14.9059233,1 C5.14609258,1 0,6.30564219 0,16.9169266 L0,97.5284579 Z M120,57.6774651 C120,24.1321145 145.37556,0 180.688402,0 C216.001244,0 241.199353,23.9609647 241.199353,57.6774651 C241.199353,91.3939654 216.001244,115.52608 180.688402,115.52608 C145.198109,115.52608 120,91.5651152 120,57.6774651 Z M155,57.3839597 C155,73.8143355 165.114734,84.5967696 180.553011,84.5967696 C195.813838,84.5967696 205.928571,73.8143355 205.928571,57.3839597 C205.928571,41.1247336 195.813838,30 180.553011,30 C164.937282,30 155,40.6112844 155,57.3839597 Z M278.162176,100.095704 C281.001399,110.364689 287.744555,113.274235 298.746546,113.274235 C309.393634,113.274235 317.024047,110.022389 319.863271,100.095704 L333.172131,54.3987214 L346.658443,100.095704 C349.852569,110.193539 356.950628,113.274235 367.597716,113.274235 C378.599707,113.274235 385.875217,109.85124 388.536989,100.095704 L414.622355,12.6381829 C415.154709,10.9266854 408.056651,1 393.860533,1 C385.520314,1 377.002644,5.44989345 374.518323,18.7995738 L364.935944,67.0638027 L352.869244,23.7629165 C350.917278,15.8900281 342.931962,11.2689849 333.881937,11.2689849 C324.299557,11.2689849 316.314241,15.2054291 314.362275,23.7629165 L302.295575,67.0638027 L292.713196,19.313023 C289.873973,4.76529446 280.291593,1 273.193535,1 C258.11016,1 250.657198,11.0978351 251.012101,12.6381829 L278.162176,100.095704 Z M468.721662,95.9074147 L468.721662,22.997622 C468.721662,10.6748402 476.529526,4 487.176615,4 L517.520816,4 C555.317978,4 578.564121,25.051419 578.564121,58.7679194 C578.564121,92.997869 554.608173,114.733887 516.81101,114.733887 L488.418775,114.733887 C477.416784,114.733887 468.721662,106.347549 468.721662,95.9074147 Z M503.721662,85.5429726 L515.788362,85.5429726 C532.4688,85.5429726 543.293339,75.787437 543.293339,58.8436119 C543.293339,42.2420864 532.823703,33 516.320716,33 L503.721662,33 L503.721662,85.5429726 Z M586.721662,58.6774651 C586.721662,25.1321145 612.097222,1 647.410064,1 C682.722906,1 707.921015,24.9609647 707.921015,58.6774651 C707.921015,92.3939654 682.722906,116.52608 647.410064,116.52608 C611.91977,116.52608 586.721662,92.5651152 586.721662,58.6774651 Z M621.721662,59.3839597 C621.721662,75.8143355 631.836396,86.5967696 647.274673,86.5967696 C662.5355,86.5967696 672.650233,75.8143355 672.650233,59.3839597 C672.650233,43.1247336 662.5355,32 647.274673,32 C631.658944,32 621.721662,42.6112844 621.721662,59.3839597 Z" id="HOW"></path>
                </g>
                <g id="Group-4" transform="translate(407.000000, 179.000000)"></g>
                <g id="howdo" transform="translate(0.000000, -0.000000)" fill-rule="nonzero" fill="#182E8B">
                    <path d="M168.070139,117.017838 C162.982139,123.344677 156.162805,128.187007 149.484805,132.711227 C136.040472,141.830359 121.465472,149.712399 110.282472,161.729859 C99.8139419,172.858528 92.6929236,186.713452 89.7361387,201.705587 C88.2488221,208.943232 88.4665709,216.427893 90.3721387,223.566761 C92.4204872,230.519937 95.9594203,236.942864 100.742472,242.388225 C106.691867,248.980303 113.717052,254.513939 121.518472,258.753178 C125.151817,260.834199 128.916911,262.676069 132.789805,264.267072 C134.220805,264.850272 135.651805,265.345109 137.118139,265.786927 C137.506805,265.892964 140.280472,266.423146 140.333472,266.917982 C140.333472,266.917982 130.881805,265.150709 130.033805,264.832599 C125.122472,263.613181 120.246472,262.270053 115.423472,260.750197 C105.670863,257.71682 96.1818448,253.892721 87.0508054,249.315937 C70.7621387,241.045097 54.791472,229.222037 47.000472,212.203192 C42.8554766,202.949094 41.4809,192.691475 43.0431387,182.672051 C44.562472,172.792992 48.8731387,163.67386 51.7881387,154.183601 C57.4591387,135.644901 59.7028054,114.331582 50.286472,96.588155 C46.3666176,89.1226433 40.5390347,82.8296187 33.3971387,78.3498917 C25.800472,73.6666167 15.9071387,70.2734515 6.98547204,72.6592708 C5.88967934,72.9558354 4.82934497,73.3706337 3.8231387,73.8963623 C3.09880537,74.2851625 2.26847204,75.1511265 1.45580537,75.3101812 C-0.522861296,75.6989813 0.00713870407,73.1010892 0.254472037,71.9523614 C1.32809639,67.639821 2.94892395,63.4824251 5.07747204,59.5814463 C9.75327652,50.7366407 15.4708535,42.4836513 22.1081387,34.9986709 C28.5055476,27.6650026 35.6061638,20.976292 43.3081387,15.0284795 C49.729785,10.4585349 56.8467699,6.95551286 64.384472,4.65458358 C80.284472,-0.647237144 97.191472,-1.97269233 113.179805,3.59421944 C121.408016,6.65529014 129.251854,10.664554 136.552805,15.5409888 C143.397444,19.8853506 149.589759,25.1812717 154.943805,31.2697236 C160.386182,37.7087038 165.096732,44.732501 168.988805,52.2119155 C173.741381,60.7903896 176.743882,70.2274872 177.822139,79.9757834 C178.266029,84.7457771 178.135539,89.5518411 177.433472,94.2906994 C176.410359,102.570382 173.175865,110.421303 168.070139,117.017838 Z" id="Shape"></path>
                    <path d="M200.020333,219.37128 C200.126333,218.487643 209.807667,197.227342 210.620333,181.162825 C211.433,165.098308 187,200.708871 187,200.708871" id="Shape"></path>
                    <path d="M115.081856,220.805574 C114.922856,219.921937 103.598522,199.297855 102.061522,183.286356 C100.524522,167.274857 128.296522,201.277201 128.296522,201.277201" id="Shape"></path>
                    <path d="M141.842536,244.377528 C144.545536,241.443854 142.319536,232.943268 133.380203,227.994902 C124.44087,223.046536 120.554203,237.944653 127.72687,242.239127 C134.899536,246.533602 139.139536,247.29353 141.842536,244.377528 Z" id="Shape"></path>
                    <path d="M176.889469,244.571732 C179.839803,247.028243 187.860469,244.465696 192.153469,235.647001 C196.446469,226.828306 181.977469,223.876959 178.232136,230.946053 C174.486803,238.015147 173.939136,242.132895 176.889469,244.571732 Z" id="Shape"></path>
                    <path d="M151,263.553604 C151,268.448952 157.112667,267.229533 160.787333,267.229533 C164.462,267.229533 169.355667,266.010114 169.355667,262.334185 C169.355667,258.658256 166.9,255 160.787333,255 C154.674667,255 151,258.658256 151,263.553604 Z" id="Shape"></path>
                </g>
            </g>
        </g>
    </g>
</svg>