<?xml version="1.0" encoding="UTF-8"?>
<svg width="1280px" height="910px" viewBox="0 0 1280 910" version="1.1" xmlns="http://www.w3.org/2000/svg" xmlns:xlink="http://www.w3.org/1999/xlink">
    <!-- Generator: Sketch 43.2 (39069) - http://www.bohemiancoding.com/sketch -->
    <title>Colours Copy 2</title>
    <desc>Created with Sketch.</desc>
    <defs></defs>
    <g id="Page-1" stroke="none" stroke-width="1" fill="none" fill-rule="evenodd">
        <g id="Colours-Copy-2">
            <rect id="Rectangle-5-Copy-40" fill="#D8D8D8" x="1034" y="335" width="115" height="115"></rect>
            <rect id="Rectangle-5-Copy-24" fill="#D8D8D8" x="1109" y="565" width="115" height="115"></rect>
            <rect id="Rectangle-5-Copy-41" fill="#FFB9EF" x="1142" y="335" width="115" height="115"></rect>
            <rect id="Rectangle-5-Copy-25" fill-opacity="0.709999979" fill="#AFE4D4" x="1177" y="565" width="115" height="115"></rect>
            <rect id="Rectangle-5-Copy-42" fill-opacity="0.74000001" fill="#96C7EC" x="1085" y="220" width="115" height="115"></rect>
            <rect id="Rectangle-5-Copy-26" fill-opacity="0.74000001" fill="#96C7EC" x="1070" y="450" width="115" height="115"></rect>
            <rect id="Rectangle-5-Copy-43" fill-opacity="0.860000014" fill="#FFBB92" x="1165" y="220" width="115" height="115"></rect>
            <rect id="Rectangle-5-Copy-28" fill-opacity="0.860000014" fill="#FFBB92" x="1150" y="450" width="115" height="115"></rect>
            <rect id="Rectangle-5-Copy-29" fill-opacity="0.680000007" fill="#96C7EC" x="1242" y="565" width="115" height="115"></rect>
            <rect id="Rectangle-5-Copy-44" fill-opacity="0.720000029" fill="#96C7EC" x="992" y="335" width="115" height="115"></rect>
            <rect id="Rectangle-5-Copy-30" fill-opacity="0.720000029" fill="#96C7EC" x="977" y="565" width="115" height="115"></rect>
            <rect id="Rectangle-5-Copy-47" fill="#FFB9EF" x="889" y="565" width="115" height="115"></rect>
            <rect id="Rectangle-5-Copy-31" fill-opacity="0.75999999" fill="#FFB9EF" x="1226" y="450" width="115" height="115"></rect>
            <rect id="Rectangle-5-Copy-45" fill-opacity="0.579999983" fill="#FFB9EF" x="984" y="220" width="115" height="115"></rect>
            <rect id="Rectangle-5-Copy-33" fill-opacity="0.550000012" fill="#FFB9EF" x="970" y="450" width="115" height="115"></rect>
            <rect id="Rectangle-5" fill-opacity="0.620000005" fill="#D8D8D8" x="0" y="795" width="115" height="115"></rect>
            <rect id="Rectangle-5-Copy-12" fill="#D8D8D8" x="530" y="795" width="115" height="115"></rect>
            <rect id="Rectangle-5-Copy-27" fill="#D8D8D8" x="887" y="795" width="115" height="115"></rect>
            <rect id="Rectangle-5-Copy-6" fill="#D8D8D8" x="295" y="795" width="115" height="115"></rect>
            <rect id="Rectangle-5-Copy" fill-opacity="0.720000029" fill="#FFBB92" x="108" y="795" width="115" height="115"></rect>
            <rect id="Rectangle-5-Copy-46" fill-opacity="0.720000029" fill="#FFBB92" x="-31" y="680" width="115" height="115"></rect>
            <rect id="Rectangle-5-Copy-13" fill-opacity="0.709999979" fill="#AFE4D4" x="638" y="795" width="115" height="115"></rect>
            <rect id="Rectangle-5-Copy-32" fill-opacity="0.709999979" fill="#AFE4D4" x="995" y="795" width="115" height="115"></rect>
            <rect id="Rectangle-5-Copy-7" fill-opacity="0.720000029" fill="#FFBB92" x="373" y="795" width="115" height="115"></rect>
            <rect id="Rectangle-5-Copy-2" fill-opacity="0.560000002" fill="#96C7EC" x="51" y="680" width="115" height="115"></rect>
            <rect id="Rectangle-5-Copy-15" fill-opacity="0.74000001" fill="#96C7EC" x="581" y="680" width="115" height="115"></rect>
            <rect id="Rectangle-5-Copy-34" fill-opacity="0.74000001" fill="#96C7EC" x="938" y="680" width="115" height="115"></rect>
            <rect id="Rectangle-5-Copy-8" fill-opacity="0.769999981" fill="#FFBB92" x="316" y="680" width="115" height="115"></rect>
            <rect id="Rectangle-5-Copy-16" fill-opacity="0.769999981" fill="#FFBB92" x="846" y="680" width="115" height="115"></rect>
            <rect id="Rectangle-5-Copy-3" fill-opacity="0.850000024" fill="#96C7EC" x="131" y="680" width="115" height="115"></rect>
            <rect id="Rectangle-5-Copy-17" fill-opacity="0.860000014" fill="#FFBB92" x="661" y="680" width="115" height="115"></rect>
            <rect id="Rectangle-5-Copy-35" fill-opacity="0.860000014" fill="#FFBB92" x="1203" y="680" width="115" height="115"></rect>
            <rect id="Rectangle-5-Copy-9" fill="#96C7EC" x="396" y="680" width="115" height="115"></rect>
            <rect id="Rectangle-5-Copy-18" fill="#96C7EC" x="926" y="680" width="115" height="115"></rect>
            <rect id="Rectangle-5-Copy-4" fill-opacity="0.800000012" fill="#96C7EC" x="223" y="795" width="115" height="115"></rect>
            <rect id="Rectangle-5-Copy-48" fill-opacity="0.360000014" fill="#96C7EC" x="150" y="795" width="115" height="115"></rect>
            <rect id="Rectangle-5-Copy-19" fill-opacity="0.680000007" fill="#96C7EC" x="753" y="795" width="115" height="115"></rect>
            <rect id="Rectangle-5-Copy-36" fill-opacity="0.680000007" fill="#96C7EC" x="1018" y="680" width="115" height="115"></rect>
            <rect id="Rectangle-5-Copy-10" fill-opacity="0.580000043" fill="#96C7EC" x="488" y="795" width="115" height="115"></rect>
            <rect id="Rectangle-5-Copy-37" fill-opacity="0.720000029" fill="#96C7EC" x="1110" y="795" width="115" height="115"></rect>
            <rect id="Rectangle-5-Copy-20" fill-opacity="0.529999971" fill="#96C7EC" x="1018" y="795" width="115" height="115"></rect>
            <rect id="Rectangle-5-Copy-5" fill-opacity="0.75999999" fill="#FFB9EF" x="207" y="680" width="115" height="115"></rect>
            <rect id="Rectangle-5-Copy-21" fill-opacity="0.75999999" fill="#FFB9EF" x="737" y="680" width="115" height="115"></rect>
            <rect id="Rectangle-5-Copy-38" fill-opacity="0.75999999" fill="#FFB9EF" x="845" y="795" width="115" height="115"></rect>
            <rect id="Rectangle-5-Copy-14" fill-opacity="0.720000029" fill="#FFBB92" x="831" y="795" width="115" height="115"></rect>
            <rect id="Rectangle-5-Copy-11" fill-opacity="0.75999999" fill="#FFB9EF" x="472" y="680" width="115" height="115"></rect>
            <rect id="Rectangle-5-Copy-39" fill-opacity="0.75999999" fill="#FFB9EF" x="1094" y="680" width="115" height="115"></rect>
            <rect id="Rectangle-5-Copy-22" fill-opacity="0.75999999" fill="#FFB9EF" x="1002" y="680" width="115" height="115"></rect>
            <rect id="Rectangle-5-Copy-23" fill-opacity="0.75999999" fill="#FFB9EF" x="926" y="795" width="115" height="115"></rect>
            <rect id="Rectangle-5-Copy-28" fill="#FFBB92" x="1188" y="795" width="115" height="115"></rect>
            <rect id="Rectangle-5-Copy-33" fill-opacity="0.720000029" fill="#FFBB92" x="829" y="680" width="115" height="115"></rect>
            <rect id="Rectangle-5-Copy-3" fill-opacity="0.400000036" fill="#96C7EC" transform="translate(1118.500000, 737.500000) rotate(-180.000000) translate(-1118.500000, -737.500000) " x="1061" y="680" width="115" height="115"></rect>
            <rect id="Rectangle-5" fill-opacity="0.620000005" fill="#D8D8D8" transform="translate(1229.500000, 507.500000) rotate(-180.000000) translate(-1229.500000, -507.500000) " x="1172" y="450" width="115" height="115"></rect>
            <rect id="Rectangle-5-Copy-12" fill="#D8D8D8" transform="translate(699.500000, 507.500000) rotate(-180.000000) translate(-699.500000, -507.500000) " x="642" y="450" width="115" height="115"></rect>
            <rect id="Rectangle-5-Copy-27" fill="#D8D8D8" transform="translate(342.500000, 507.500000) rotate(-180.000000) translate(-342.500000, -507.500000) " x="285" y="450" width="115" height="115"></rect>
            <rect id="Rectangle-5-Copy-6" fill="#D8D8D8" transform="translate(934.500000, 507.500000) rotate(-180.000000) translate(-934.500000, -507.500000) " x="877" y="450" width="115" height="115"></rect>
            <rect id="Rectangle-5-Copy" fill-opacity="0.720000029" fill="#FFBB92" transform="translate(1121.500000, 507.500000) rotate(-180.000000) translate(-1121.500000, -507.500000) " x="1064" y="450" width="115" height="115"></rect>
            <rect id="Rectangle-5-Copy-46" fill-opacity="0.720000029" fill="#FFBB92" transform="translate(1260.500000, 622.500000) rotate(-180.000000) translate(-1260.500000, -622.500000) " x="1203" y="565" width="115" height="115"></rect>
            <rect id="Rectangle-5-Copy-13" fill-opacity="0.709999979" fill="#AFE4D4" transform="translate(591.500000, 507.500000) rotate(-180.000000) translate(-591.500000, -507.500000) " x="534" y="450" width="115" height="115"></rect>
            <rect id="Rectangle-5-Copy-32" fill-opacity="0.709999979" fill="#AFE4D4" transform="translate(234.500000, 507.500000) rotate(-180.000000) translate(-234.500000, -507.500000) " x="177" y="450" width="115" height="115"></rect>
            <rect id="Rectangle-5-Copy-7" fill-opacity="0.730000019" fill="#FFBB92" transform="translate(856.500000, 507.500000) rotate(-180.000000) translate(-856.500000, -507.500000) " x="799" y="450" width="115" height="115"></rect>
            <rect id="Rectangle-5-Copy-2" fill-opacity="0.560000002" fill="#96C7EC" transform="translate(1178.500000, 622.500000) rotate(-180.000000) translate(-1178.500000, -622.500000) " x="1121" y="565" width="115" height="115"></rect>
            <rect id="Rectangle-5-Copy-15" fill-opacity="0.74000001" fill="#96C7EC" transform="translate(648.500000, 622.500000) rotate(-180.000000) translate(-648.500000, -622.500000) " x="591" y="565" width="115" height="115"></rect>
            <rect id="Rectangle-5-Copy-34" fill-opacity="0.74000001" fill="#96C7EC" transform="translate(291.500000, 622.500000) rotate(-180.000000) translate(-291.500000, -622.500000) " x="234" y="565" width="115" height="115"></rect>
            <rect id="Rectangle-5-Copy-8" fill-opacity="0.769999981" fill="#FFBB92" transform="translate(913.500000, 622.500000) rotate(-180.000000) translate(-913.500000, -622.500000) " x="856" y="565" width="115" height="115"></rect>
            <rect id="Rectangle-5-Copy-16" fill-opacity="0.769999981" fill="#FFBB92" transform="translate(383.500000, 622.500000) rotate(-180.000000) translate(-383.500000, -622.500000) " x="326" y="565" width="115" height="115"></rect>
            <rect id="Rectangle-5-Copy-3" fill-opacity="0.850000024" fill="#96C7EC" transform="translate(1098.500000, 622.500000) rotate(-180.000000) translate(-1098.500000, -622.500000) " x="1041" y="565" width="115" height="115"></rect>
            <rect id="Rectangle-5-Copy-49" fill-opacity="0.850000024" fill="#96C7EC" transform="translate(1230.500000, 392.500000) rotate(-180.000000) translate(-1230.500000, -392.500000) " x="1173" y="335" width="115" height="115"></rect>
            <rect id="Rectangle-5-Copy-17" fill-opacity="0.860000014" fill="#FFBB92" transform="translate(568.500000, 622.500000) rotate(-180.000000) translate(-568.500000, -622.500000) " x="511" y="565" width="115" height="115"></rect>
            <rect id="Rectangle-5-Copy-35" fill-opacity="0.860000014" fill="#FFBB92" transform="translate(26.500000, 622.500000) rotate(-180.000000) translate(-26.500000, -622.500000) " x="-31" y="565" width="115" height="115"></rect>
            <rect id="Rectangle-5-Copy-9" fill-opacity="0.680000007" fill="#96C7EC" transform="translate(833.500000, 622.500000) rotate(-180.000000) translate(-833.500000, -622.500000) " x="776" y="565" width="115" height="115"></rect>
            <rect id="Rectangle-5-Copy-18" fill="#96C7EC" transform="translate(303.500000, 622.500000) rotate(-180.000000) translate(-303.500000, -622.500000) " x="246" y="565" width="115" height="115"></rect>
            <rect id="Rectangle-5-Copy-4" fill-opacity="0.649999976" fill="#FFB9EF" transform="translate(1006.500000, 507.500000) rotate(-180.000000) translate(-1006.500000, -507.500000) " x="949" y="450" width="115" height="115"></rect>
            <rect id="Rectangle-5-Copy-48" fill-opacity="0.360000014" fill="#96C7EC" transform="translate(1079.500000, 507.500000) rotate(-180.000000) translate(-1079.500000, -507.500000) " x="1022" y="450" width="115" height="115"></rect>
            <rect id="Rectangle-5-Copy-19" fill-opacity="0.680000007" fill="#96C7EC" transform="translate(476.500000, 507.500000) rotate(-180.000000) translate(-476.500000, -507.500000) " x="419" y="450" width="115" height="115"></rect>
            <rect id="Rectangle-5-Copy-36" fill-opacity="0.680000007" fill="#96C7EC" transform="translate(211.500000, 622.500000) rotate(-180.000000) translate(-211.500000, -622.500000) " x="154" y="565" width="115" height="115"></rect>
            <rect id="Rectangle-5-Copy-10" fill-opacity="0.580000043" fill="#96C7EC" transform="translate(771.500000, 507.500000) rotate(-180.000000) translate(-771.500000, -507.500000) " x="714" y="450" width="115" height="115"></rect>
            <rect id="Rectangle-5-Copy-37" fill-opacity="0.720000029" fill="#96C7EC" transform="translate(119.500000, 507.500000) rotate(-180.000000) translate(-119.500000, -507.500000) " x="62" y="450" width="115" height="115"></rect>
            <rect id="Rectangle-5-Copy-20" fill-opacity="0.529999971" fill="#96C7EC" transform="translate(211.500000, 507.500000) rotate(-180.000000) translate(-211.500000, -507.500000) " x="154" y="450" width="115" height="115"></rect>
            <rect id="Rectangle-5-Copy-5" fill-opacity="0.75999999" fill="#FFB9EF" transform="translate(1022.500000, 622.500000) rotate(-180.000000) translate(-1022.500000, -622.500000) " x="965" y="565" width="115" height="115"></rect>
            <rect id="Rectangle-5-Copy-21" fill-opacity="0.75999999" fill="#FFB9EF" transform="translate(492.500000, 622.500000) rotate(-180.000000) translate(-492.500000, -622.500000) " x="435" y="565" width="115" height="115"></rect>
            <rect id="Rectangle-5-Copy-38" fill-opacity="0.75999999" fill="#FFB9EF" transform="translate(384.500000, 507.500000) rotate(-180.000000) translate(-384.500000, -507.500000) " x="327" y="450" width="115" height="115"></rect>
            <rect id="Rectangle-5-Copy-14" fill-opacity="0.720000029" fill="#FFBB92" transform="translate(398.500000, 507.500000) rotate(-180.000000) translate(-398.500000, -507.500000) " x="341" y="450" width="115" height="115"></rect>
            <rect id="Rectangle-5-Copy-11" fill-opacity="0.719999969" fill="#FFB9EF" transform="translate(757.500000, 622.500000) rotate(-180.000000) translate(-757.500000, -622.500000) " x="700" y="565" width="115" height="115"></rect>
            <rect id="Rectangle-5-Copy-39" fill-opacity="0.75999999" fill="#FFB9EF" transform="translate(135.500000, 622.500000) rotate(-180.000000) translate(-135.500000, -622.500000) " x="78" y="565" width="115" height="115"></rect>
            <rect id="Rectangle-5-Copy-22" fill-opacity="0.75999999" fill="#FFB9EF" transform="translate(227.500000, 622.500000) rotate(-180.000000) translate(-227.500000, -622.500000) " x="170" y="565" width="115" height="115"></rect>
            <rect id="Rectangle-5-Copy-23" fill-opacity="0.699999988" fill="#AFE4D4" transform="translate(303.500000, 507.500000) rotate(-180.000000) translate(-303.500000, -507.500000) " x="246" y="450" width="115" height="115"></rect>
            <rect id="Rectangle-5-Copy-28" fill="#AFE4D4" transform="translate(41.500000, 507.500000) rotate(-180.000000) translate(-41.500000, -507.500000) " x="-16" y="450" width="115" height="115"></rect>
            <rect id="Rectangle-5-Copy-33" fill-opacity="0.720000029" fill="#FFBB92" transform="translate(400.500000, 622.500000) rotate(-180.000000) translate(-400.500000, -622.500000) " x="343" y="565" width="115" height="115"></rect>
            <rect id="Rectangle-5" fill-opacity="0.620000005" fill="#D8D8D8" transform="translate(1128.500000, 277.500000) rotate(-180.000000) translate(-1128.500000, -277.500000) " x="1071" y="220" width="115" height="115"></rect>
            <rect id="Rectangle-5-Copy-12" fill="#D8D8D8" transform="translate(598.500000, 277.500000) rotate(-180.000000) translate(-598.500000, -277.500000) " x="541" y="220" width="115" height="115"></rect>
            <rect id="Rectangle-5-Copy-27" fill="#D8D8D8" transform="translate(241.500000, 277.500000) rotate(-180.000000) translate(-241.500000, -277.500000) " x="184" y="220" width="115" height="115"></rect>
            <rect id="Rectangle-5-Copy-6" fill="#D8D8D8" transform="translate(833.500000, 277.500000) rotate(-180.000000) translate(-833.500000, -277.500000) " x="776" y="220" width="115" height="115"></rect>
            <rect id="Rectangle-5-Copy" fill-opacity="0.720000029" fill="#FFBB92" transform="translate(1020.500000, 277.500000) rotate(-180.000000) translate(-1020.500000, -277.500000) " x="963" y="220" width="115" height="115"></rect>
            <rect id="Rectangle-5-Copy-46" fill-opacity="0.720000029" fill="#FFBB92" transform="translate(1159.500000, 392.500000) rotate(-180.000000) translate(-1159.500000, -392.500000) " x="1102" y="335" width="115" height="115"></rect>
            <rect id="Rectangle-5-Copy-13" fill-opacity="0.709999979" fill="#AFE4D4" transform="translate(490.500000, 277.500000) rotate(-180.000000) translate(-490.500000, -277.500000) " x="433" y="220" width="115" height="115"></rect>
            <rect id="Rectangle-5-Copy-32" fill-opacity="0.709999979" fill="#AFE4D4" transform="translate(133.500000, 277.500000) rotate(-180.000000) translate(-133.500000, -277.500000) " x="76" y="220" width="115" height="115"></rect>
            <rect id="Rectangle-5-Copy-7" fill-opacity="0.720000029" fill="#FFBB92" transform="translate(735.500000, 277.500000) rotate(-180.000000) translate(-735.500000, -277.500000) " x="678" y="220" width="115" height="115"></rect>
            <rect id="Rectangle-5-Copy-2" fill-opacity="0.390000015" fill="#96C7EC" transform="translate(1077.500000, 392.500000) rotate(-180.000000) translate(-1077.500000, -392.500000) " x="1020" y="335" width="115" height="115"></rect>
            <rect id="Rectangle-5-Copy-15" fill-opacity="0.74000001" fill="#96C7EC" transform="translate(547.500000, 392.500000) rotate(-180.000000) translate(-547.500000, -392.500000) " x="490" y="335" width="115" height="115"></rect>
            <rect id="Rectangle-5-Copy-34" fill-opacity="0.74000001" fill="#96C7EC" transform="translate(190.500000, 392.500000) rotate(-180.000000) translate(-190.500000, -392.500000) " x="133" y="335" width="115" height="115"></rect>
            <rect id="Rectangle-5-Copy-8" fill-opacity="0.839999974" fill="#FFB9EF" transform="translate(832.500000, 392.500000) rotate(-180.000000) translate(-832.500000, -392.500000) " x="775" y="335" width="115" height="115"></rect>
            <rect id="Rectangle-5-Copy-16" fill-opacity="0.769999981" fill="#FFBB92" transform="translate(282.500000, 392.500000) rotate(-180.000000) translate(-282.500000, -392.500000) " x="225" y="335" width="115" height="115"></rect>
            <rect id="Rectangle-5-Copy-3" fill-opacity="0.850000024" fill="#96C7EC" transform="translate(997.500000, 392.500000) rotate(-180.000000) translate(-997.500000, -392.500000) " x="940" y="335" width="115" height="115"></rect>
            <rect id="Rectangle-5-Copy-17" fill-opacity="0.860000014" fill="#FFBB92" transform="translate(467.500000, 392.500000) rotate(-180.000000) translate(-467.500000, -392.500000) " x="410" y="335" width="115" height="115"></rect>
            <rect id="Rectangle-5-Copy-9" fill-opacity="0.680000007" fill="#96C7EC" transform="translate(747.500000, 392.500000) rotate(-180.000000) translate(-747.500000, -392.500000) " x="690" y="335" width="115" height="115"></rect>
            <rect id="Rectangle-5-Copy-18" fill="#96C7EC" transform="translate(202.500000, 392.500000) rotate(-180.000000) translate(-202.500000, -392.500000) " x="145" y="335" width="115" height="115"></rect>
            <rect id="Rectangle-5-Copy-4" fill-opacity="0.839999974" fill="#AFE4D4" transform="translate(905.500000, 277.500000) rotate(-180.000000) translate(-905.500000, -277.500000) " x="848" y="220" width="115" height="115"></rect>
            <rect id="Rectangle-5-Copy-48" fill-opacity="0.360000014" fill="#96C7EC" transform="translate(978.500000, 277.500000) rotate(-180.000000) translate(-978.500000, -277.500000) " x="921" y="220" width="115" height="115"></rect>
            <rect id="Rectangle-5-Copy-19" fill-opacity="0.680000007" fill="#96C7EC" transform="translate(375.500000, 277.500000) rotate(-180.000000) translate(-375.500000, -277.500000) " x="318" y="220" width="115" height="115"></rect>
            <rect id="Rectangle-5-Copy-36" fill-opacity="0.680000007" fill="#96C7EC" transform="translate(110.500000, 392.500000) rotate(-180.000000) translate(-110.500000, -392.500000) " x="53" y="335" width="115" height="115"></rect>
            <rect id="Rectangle-5-Copy-10" fill-opacity="0.580000043" fill="#96C7EC" transform="translate(640.500000, 277.500000) rotate(-180.000000) translate(-640.500000, -277.500000) " x="583" y="220" width="115" height="115"></rect>
            <rect id="Rectangle-5-Copy-37" fill-opacity="0.720000029" fill="#96C7EC" transform="translate(18.500000, 277.500000) rotate(-180.000000) translate(-18.500000, -277.500000) " x="-39" y="220" width="115" height="115"></rect>
            <rect id="Rectangle-5-Copy-20" fill-opacity="0.529999971" fill="#96C7EC" transform="translate(110.500000, 277.500000) rotate(-180.000000) translate(-110.500000, -277.500000) " x="53" y="220" width="115" height="115"></rect>
            <rect id="Rectangle-5-Copy-5" fill-opacity="0.699999988" fill="#AFE4D4" transform="translate(921.500000, 392.500000) rotate(-180.000000) translate(-921.500000, -392.500000) " x="864" y="335" width="115" height="115"></rect>
            <rect id="Rectangle-5-Copy-21" fill-opacity="0.75999999" fill="#FFB9EF" transform="translate(391.500000, 392.500000) rotate(-180.000000) translate(-391.500000, -392.500000) " x="334" y="335" width="115" height="115"></rect>
            <rect id="Rectangle-5-Copy-38" fill-opacity="0.75999999" fill="#FFB9EF" transform="translate(283.500000, 277.500000) rotate(-180.000000) translate(-283.500000, -277.500000) " x="226" y="220" width="115" height="115"></rect>
            <rect id="Rectangle-5-Copy-14" fill-opacity="0.720000029" fill="#FFBB92" transform="translate(297.500000, 277.500000) rotate(-180.000000) translate(-297.500000, -277.500000) " x="240" y="220" width="115" height="115"></rect>
            <rect id="Rectangle-5-Copy-11" fill-opacity="0.75999999" fill="#FFB9EF" transform="translate(656.500000, 392.500000) rotate(-180.000000) translate(-656.500000, -392.500000) " x="599" y="335" width="115" height="115"></rect>
            <rect id="Rectangle-5-Copy-39" fill-opacity="0.75999999" fill="#FFB9EF" transform="translate(34.500000, 392.500000) rotate(-180.000000) translate(-34.500000, -392.500000) " x="-23" y="335" width="115" height="115"></rect>
            <rect id="Rectangle-5-Copy-22" fill-opacity="0.75999999" fill="#FFB9EF" transform="translate(126.500000, 392.500000) rotate(-180.000000) translate(-126.500000, -392.500000) " x="69" y="335" width="115" height="115"></rect>
            <rect id="Rectangle-5-Copy-23" fill-opacity="0.75999999" fill="#FFB9EF" transform="translate(202.500000, 277.500000) rotate(-180.000000) translate(-202.500000, -277.500000) " x="145" y="220" width="115" height="115"></rect>
            <rect id="Rectangle-5-Copy-33" fill-opacity="0.720000029" fill="#FFBB92" transform="translate(299.500000, 392.500000) rotate(-180.000000) translate(-299.500000, -392.500000) " x="242" y="335" width="115" height="115"></rect>
            <rect id="Rectangle-5" fill="#FFB9EF" transform="translate(1229.500000, 49.500000) rotate(-180.000000) translate(-1229.500000, -49.500000) " x="1172" y="-8" width="115" height="115"></rect>
            <rect id="Rectangle-5-Copy-12" fill="#D8D8D8" transform="translate(679.500000, 49.500000) rotate(-180.000000) translate(-679.500000, -49.500000) " x="622" y="-8" width="115" height="115"></rect>
            <rect id="Rectangle-5-Copy-27" fill="#D8D8D8" transform="translate(342.500000, 49.500000) rotate(-180.000000) translate(-342.500000, -49.500000) " x="285" y="-8" width="115" height="115"></rect>
            <rect id="Rectangle-5-Copy-6" fill="#D8D8D8" transform="translate(934.500000, 49.500000) rotate(-180.000000) translate(-934.500000, -49.500000) " x="877" y="-8" width="115" height="115"></rect>
            <rect id="Rectangle-5-Copy" fill-opacity="0.720000029" fill="#FFBB92" transform="translate(1121.500000, 49.500000) rotate(-180.000000) translate(-1121.500000, -49.500000) " x="1064" y="-8" width="115" height="115"></rect>
            <rect id="Rectangle-5-Copy-46" fill-opacity="0.720000029" fill="#FFBB92" transform="translate(1260.500000, 164.500000) rotate(-180.000000) translate(-1260.500000, -164.500000) " x="1203" y="107" width="115" height="115"></rect>
            <rect id="Rectangle-5-Copy-13" fill-opacity="0.709999979" fill="#AFE4D4" transform="translate(591.500000, 49.500000) rotate(-180.000000) translate(-591.500000, -49.500000) " x="534" y="-8" width="115" height="115"></rect>
            <rect id="Rectangle-5-Copy-32" fill-opacity="0.709999979" fill="#AFE4D4" transform="translate(234.500000, 49.500000) rotate(-180.000000) translate(-234.500000, -49.500000) " x="177" y="-8" width="115" height="115"></rect>
            <rect id="Rectangle-5-Copy-7" fill-opacity="0.720000029" fill="#FFBB92" transform="translate(856.500000, 49.500000) rotate(-180.000000) translate(-856.500000, -49.500000) " x="799" y="-8" width="115" height="115"></rect>
            <rect id="Rectangle-5-Copy-2" fill-opacity="0.699999988" fill="#AFE4D4" transform="translate(1178.500000, 164.500000) rotate(-180.000000) translate(-1178.500000, -164.500000) " x="1121" y="107" width="115" height="115"></rect>
            <rect id="Rectangle-5-Copy-15" fill-opacity="0.74000001" fill="#96C7EC" transform="translate(648.500000, 164.500000) rotate(-180.000000) translate(-648.500000, -164.500000) " x="591" y="107" width="115" height="115"></rect>
            <rect id="Rectangle-5-Copy-34" fill-opacity="0.74000001" fill="#96C7EC" transform="translate(291.500000, 164.500000) rotate(-180.000000) translate(-291.500000, -164.500000) " x="234" y="107" width="115" height="115"></rect>
            <rect id="Rectangle-5-Copy-8" fill-opacity="0.769999981" fill="#FFBB92" transform="translate(913.500000, 164.500000) rotate(-180.000000) translate(-913.500000, -164.500000) " x="856" y="107" width="115" height="115"></rect>
            <rect id="Rectangle-5-Copy-16" fill-opacity="0.769999981" fill="#FFBB92" transform="translate(383.500000, 164.500000) rotate(-180.000000) translate(-383.500000, -164.500000) " x="326" y="107" width="115" height="115"></rect>
            <rect id="Rectangle-5-Copy-3" fill-opacity="0.850000024" fill="#96C7EC" transform="translate(1098.500000, 164.500000) rotate(-180.000000) translate(-1098.500000, -164.500000) " x="1041" y="107" width="115" height="115"></rect>
            <rect id="Rectangle-5-Copy-17" fill-opacity="0.860000014" fill="#FFBB92" transform="translate(568.500000, 164.500000) rotate(-180.000000) translate(-568.500000, -164.500000) " x="511" y="107" width="115" height="115"></rect>
            <rect id="Rectangle-5-Copy-35" fill-opacity="0.860000014" fill="#FFBB92" transform="translate(26.500000, 164.500000) rotate(-180.000000) translate(-26.500000, -164.500000) " x="-31" y="107" width="115" height="115"></rect>
            <rect id="Rectangle-5-Copy-9" fill-opacity="0.680000007" fill="#96C7EC" transform="translate(833.500000, 164.500000) rotate(-180.000000) translate(-833.500000, -164.500000) " x="776" y="107" width="115" height="115"></rect>
            <rect id="Rectangle-5-Copy-18" fill="#AFE4D4" transform="translate(303.500000, 164.500000) rotate(-180.000000) translate(-303.500000, -164.500000) " x="246" y="107" width="115" height="115"></rect>
            <rect id="Rectangle-5-Copy-4" fill-opacity="0.680000007" fill="#96C7EC" transform="translate(1006.500000, 49.500000) rotate(-180.000000) translate(-1006.500000, -49.500000) " x="949" y="-8" width="115" height="115"></rect>
            <rect id="Rectangle-5-Copy-48" fill-opacity="0.360000014" fill="#96C7EC" transform="translate(1079.500000, 49.500000) rotate(-180.000000) translate(-1079.500000, -49.500000) " x="1022" y="-8" width="115" height="115"></rect>
            <rect id="Rectangle-5-Copy-19" fill-opacity="0.680000007" fill="#96C7EC" transform="translate(476.500000, 49.500000) rotate(-180.000000) translate(-476.500000, -49.500000) " x="419" y="-8" width="115" height="115"></rect>
            <rect id="Rectangle-5-Copy-36" fill-opacity="0.680000007" fill="#96C7EC" transform="translate(211.500000, 164.500000) rotate(-180.000000) translate(-211.500000, -164.500000) " x="154" y="107" width="115" height="115"></rect>
            <rect id="Rectangle-5-Copy-10" fill-opacity="0.580000043" fill="#96C7EC" transform="translate(741.500000, 49.500000) rotate(-180.000000) translate(-741.500000, -49.500000) " x="684" y="-8" width="115" height="115"></rect>
            <rect id="Rectangle-5-Copy-37" fill-opacity="0.720000029" fill="#96C7EC" transform="translate(119.500000, 49.500000) rotate(-180.000000) translate(-119.500000, -49.500000) " x="62" y="-8" width="115" height="115"></rect>
            <rect id="Rectangle-5-Copy-20" fill-opacity="0.529999971" fill="#96C7EC" transform="translate(211.500000, 49.500000) rotate(-180.000000) translate(-211.500000, -49.500000) " x="154" y="-8" width="115" height="115"></rect>
            <rect id="Rectangle-5-Copy-5" fill-opacity="0.75999999" fill="#FFB9EF" transform="translate(1022.500000, 164.500000) rotate(-180.000000) translate(-1022.500000, -164.500000) " x="965" y="107" width="115" height="115"></rect>
            <rect id="Rectangle-5-Copy-21" fill-opacity="0.75999999" fill="#FFB9EF" transform="translate(492.500000, 164.500000) rotate(-180.000000) translate(-492.500000, -164.500000) " x="435" y="107" width="115" height="115"></rect>
            <rect id="Rectangle-5-Copy-38" fill-opacity="0.75999999" fill="#FFB9EF" transform="translate(384.500000, 49.500000) rotate(-180.000000) translate(-384.500000, -49.500000) " x="327" y="-8" width="115" height="115"></rect>
            <rect id="Rectangle-5-Copy-14" fill-opacity="0.720000029" fill="#FFBB92" transform="translate(398.500000, 49.500000) rotate(-180.000000) translate(-398.500000, -49.500000) " x="341" y="-8" width="115" height="115"></rect>
            <rect id="Rectangle-5-Copy-11" fill-opacity="0.75999999" fill="#FFB9EF" transform="translate(757.500000, 164.500000) rotate(-180.000000) translate(-757.500000, -164.500000) " x="700" y="107" width="115" height="115"></rect>
            <rect id="Rectangle-5-Copy-39" fill-opacity="0.680000007" fill="#AFE4D4" transform="translate(135.500000, 164.500000) rotate(-180.000000) translate(-135.500000, -164.500000) " x="78" y="107" width="115" height="115"></rect>
            <rect id="Rectangle-5-Copy-22" fill-opacity="0.75999999" fill="#FFB9EF" transform="translate(227.500000, 164.500000) rotate(-180.000000) translate(-227.500000, -164.500000) " x="170" y="107" width="115" height="115"></rect>
            <rect id="Rectangle-5-Copy-23" fill-opacity="0.75999999" fill="#FFB9EF" transform="translate(303.500000, 49.500000) rotate(-180.000000) translate(-303.500000, -49.500000) " x="246" y="-8" width="115" height="115"></rect>
            <rect id="Rectangle-5-Copy-28" fill="#AFE4D4" transform="translate(41.500000, 49.500000) rotate(-180.000000) translate(-41.500000, -49.500000) " x="-16" y="-8" width="115" height="115"></rect>
            <rect id="Rectangle-5-Copy-33" fill-opacity="0.600000024" fill="#FFBB92" transform="translate(400.500000, 164.500000) rotate(-180.000000) translate(-400.500000, -164.500000) " x="343" y="107" width="115" height="115"></rect>
        </g>
    </g>
</svg>