<?xml version="1.0" encoding="UTF-8"?>
<svg width="635px" height="563px" viewBox="0 0 635 563" version="1.1" xmlns="http://www.w3.org/2000/svg" xmlns:xlink="http://www.w3.org/1999/xlink">
    <!-- Generator: Sketch 43.2 (39069) - http://www.bohemiancoding.com/sketch -->
    <title>Group 2</title>
    <desc>Created with Sketch.</desc>
    <defs>
        <radialGradient cx="79.3599643%" cy="24.2119496%" fx="79.3599643%" fy="24.2119496%" r="71.8164853%" gradientTransform="translate(0.793600,0.242119),scale(1.000000,0.581882),translate(-0.793600,-0.242119)" id="radialGradient-1">
            <stop stop-color="#EFA30A" offset="0%"></stop>
            <stop stop-color="#FF910A" offset="100%"></stop>
        </radialGradient>
        <radialGradient cx="6997.14%" cy="1860.94%" fx="6997.14%" fy="1860.94%" r="8369%" gradientTransform="translate(69.971400,18.609400),scale(1.000000,0.601352),translate(-69.971400,-18.609400)" id="radialGradient-2">
            <stop stop-color="#EFA30A" offset="0%"></stop>
            <stop stop-color="#FF910A" offset="100%"></stop>
        </radialGradient>
        <radialGradient cx="9691.84748%" cy="3875.23128%" fx="9691.84748%" fy="3875.23128%" r="7656%" gradientTransform="translate(96.918475,38.752313),scale(1.000000,0.606625),translate(-96.918475,-38.752313)" id="radialGradient-3">
            <stop stop-color="#EFA30A" offset="0%"></stop>
            <stop stop-color="#FF910A" offset="100%"></stop>
        </radialGradient>
        <radialGradient cx="77.7820944%" cy="48.1640607%" fx="77.7820944%" fy="48.1640607%" r="79.1700836%" id="radialGradient-4">
            <stop stop-color="#87D1FF" offset="0%"></stop>
            <stop stop-color="#4FBBFF" offset="100%"></stop>
        </radialGradient>
        <radialGradient cx="82.287769%" cy="51.6607426%" fx="82.287769%" fy="51.6607426%" r="63.6132524%" id="radialGradient-5">
            <stop stop-color="#F28C08" offset="0%"></stop>
            <stop stop-color="#D16900" offset="100%"></stop>
        </radialGradient>
        <radialGradient cx="82.2887437%" cy="51.6568236%" fx="82.2887437%" fy="51.6568236%" r="63.6095174%" id="radialGradient-6">
            <stop stop-color="#F25E08" offset="0%"></stop>
            <stop stop-color="#D15100" offset="100%"></stop>
        </radialGradient>
        <radialGradient cx="74.7348291%" cy="30.2339881%" fx="74.7348291%" fy="30.2339881%" r="65.4830244%" id="radialGradient-7">
            <stop stop-color="#94ACB2" offset="0%"></stop>
            <stop stop-color="#5792A1" offset="100%"></stop>
        </radialGradient>
        <radialGradient cx="74.7348291%" cy="30.2339881%" fx="74.7348291%" fy="30.2339881%" r="65.4830244%" id="radialGradient-8">
            <stop stop-color="#B2B2B2" offset="0%"></stop>
            <stop stop-color="#808080" offset="100%"></stop>
        </radialGradient>
        <radialGradient cx="69.4756836%" cy="25.1117309%" fx="69.4756836%" fy="25.1117309%" r="49.3606529%" gradientTransform="translate(0.694757,0.251117),scale(0.704906,1.000000),translate(-0.694757,-0.251117)" id="radialGradient-9">
            <stop stop-color="#FFFFFF" offset="0%"></stop>
            <stop stop-color="#E8E8E8" offset="100%"></stop>
        </radialGradient>
        <radialGradient cx="73.3781231%" cy="54.661129%" fx="73.3781231%" fy="54.661129%" r="52.3373452%" id="radialGradient-10">
            <stop stop-color="#9684FE" offset="0%"></stop>
            <stop stop-color="#7C6BDB" offset="100%"></stop>
        </radialGradient>
        <radialGradient cx="69.5303968%" cy="25.0819075%" fx="69.5303968%" fy="25.0819075%" r="65.489625%" gradientTransform="translate(0.695304,0.250819),scale(0.997722,1.000000),translate(-0.695304,-0.250819)" id="radialGradient-11">
            <stop stop-color="#94ACB2" offset="0%"></stop>
            <stop stop-color="#5792A1" offset="100%"></stop>
        </radialGradient>
        <radialGradient cx="74.4994539%" cy="14.7342556%" fx="74.4994539%" fy="14.7342556%" r="57.2897707%" gradientTransform="translate(0.744995,0.147343),scale(0.997722,1.000000),translate(-0.744995,-0.147343)" id="radialGradient-12">
            <stop stop-color="#FCF6E6" offset="0%"></stop>
            <stop stop-color="#FCDF92" offset="100%"></stop>
        </radialGradient>
        <radialGradient cx="87.557935%" cy="46.2569203%" fx="87.557935%" fy="46.2569203%" r="69.6900115%" id="radialGradient-13">
            <stop stop-color="#B9DAE1" offset="0%"></stop>
            <stop stop-color="#87D0D9" offset="100%"></stop>
        </radialGradient>
        <radialGradient cx="82.4055265%" cy="40.5245428%" fx="82.4055265%" fy="40.5245428%" r="78.2187961%" id="radialGradient-14">
            <stop stop-color="#ED7248" offset="0%"></stop>
            <stop stop-color="#D95B30" offset="99%"></stop>
        </radialGradient>
    </defs>
    <g id="Universe" stroke="none" stroke-width="1" fill="none" fill-rule="evenodd">
        <g id="Artboard-Copy-4" transform="translate(0.000000, -124.000000)">
            <g id="Group-2" transform="translate(-198.000000, 118.000000)">
                <g id="Sun" fill-rule="nonzero">
                    <path d="M137.262838,470.796318 C101.062815,459.128374 69.3874741,423.354591 49.7146604,371.920364 C29.3256407,319.264672 22.090283,255.644193 29.5246667,194.389811 C36.501939,133.019775 57.6225907,78.486605 88.4576212,42.2259053 C118.346633,6.56315519 155.861733,-7.09734233 192.082558,4.49261465 C228.303382,16.0825716 259.99388,51.8875099 279.618664,103.393708 C300.025724,156.024245 307.262656,219.64567 299.808658,280.88828 C292.845255,342.27706 271.722169,396.829412 240.875703,433.088167 C210.964613,468.652561 173.47694,482.295566 137.262838,470.796318 L137.262838,470.796318 Z" id="Shape" fill="url(#radialGradient-1)" opacity="0.47"></path>
                    <path d="M236.750396,422.257867 C206.828746,453.351282 170.537369,463.114395 136.171487,449.315625 C63.92607,420.465069 18.7577217,302.020846 34.3047841,182.192231 C41.6886673,125.18829 62.7418891,75.5286745 92.6772303,44.5053142 C122.612571,13.481954 158.885899,3.73144999 193.249145,17.4709356 C265.560894,46.2568329 310.784644,164.792662 295.203157,284.702273 C287.822239,341.710408 266.73025,391.345723 236.750396,422.257867 L236.750396,422.257867 Z" id="Shape" fill="url(#radialGradient-2)" opacity="0.47"></path>
                    <ellipse id="Oval" fill="url(#radialGradient-3)" transform="translate(164.704190, 237.665206) rotate(-13.280000) translate(-164.704190, -237.665206) " cx="164.70419" cy="237.665206" rx="121.467367" ry="200.234602"></ellipse>
                    <path d="M262.986475,354.613473 C215.792047,418.143788 147.347987,414.205305 102.955733,345.404811 C58.5634799,276.604316 51.9613193,164.233832 87.5190593,82.6686174 C50.9429734,131.905156 34.9923239,211.623754 46.6209527,287.070307 C58.2495816,362.51686 95.3496483,420.015696 141.747015,434.499636 C188.144382,448.983575 235.428921,417.827214 262.986475,354.613473 L262.986475,354.613473 Z" id="Shape" fill="#6B1200" opacity="0.04"></path>
                    <path d="M164.699403,37.4044432 C213.830352,37.3898896 258.128461,86.1662559 276.936179,160.987646 C295.743897,235.809035 285.357053,321.939409 250.619346,379.213564 C215.88164,436.48772 163.634648,453.625539 118.242724,422.635136 C72.8507994,391.644733 43.2538632,318.629656 43.2538624,237.639045 C43.2538613,127.066578 97.6233523,37.4243124 164.699403,37.4044432 L164.699403,37.4044432 Z M164.699403,32.7628864 C96.0768624,32.8820875 40.4991483,124.660984 40.5473425,237.782818 C40.5955368,350.904652 96.2513986,442.55477 164.873973,442.515078 C233.496547,442.475386 289.11338,350.760907 289.113418,237.639045 C289.017076,124.482265 233.343232,32.834737 164.699403,32.8348485 L164.699403,32.7628864 Z" id="Shape" fill="#EA7500"></path>
                    <path d="M262.986475,354.613473 C215.792047,418.143788 147.347987,414.205305 102.955733,345.404811 C58.5634799,276.604316 51.9613193,164.233832 87.5190593,82.6686174 C50.9429734,131.905156 34.9923239,211.623754 46.6209527,287.070307 C58.2495816,362.51686 95.3496483,420.015696 141.747015,434.499636 C188.144382,448.983575 235.428921,417.827214 262.986475,354.613473 L262.986475,354.613473 Z" id="Shape" fill="#EA7500" opacity="0.35"></path>
                    <path d="M206.934687,98.3563598 C205.777855,103.861462 199.666289,105.372667 193.292799,101.73858 C186.919309,98.1044924 182.684867,90.6923939 183.819872,85.1872917 C184.954878,79.6821894 191.08827,78.1709848 197.46176,81.805072 C203.83525,85.4391591 208.091519,92.8512576 206.934687,98.3563598 Z" id="Shape" fill="#CC6611"></path>
                </g>
                <path d="M199,372 C199,372 473.574799,261.857276 291,138" id="Path-2" stroke="#313131"></path>
                <path d="M198,402 C198,402 632,255 284,116" id="Path-2" stroke="#313131"></path>
                <path d="M198,431 C198,431 789,234 277,97" id="Path-2" stroke="#313131"></path>
                <path d="M198,464 C198,464 944.302945,204.2137 270,80" id="Path-2" stroke="#313131"></path>
                <path d="M198,492 C198,492 1128.51464,180.862943 260,63" id="Path-2" stroke="#313131"></path>
                <path d="M198,521 C198,521 1313.53471,193.328404 250,49" id="Path-2" stroke="#313131"></path>
                <path d="M198,553 C198,553 1465.64529,171.293921 239,35" id="Path-2" stroke="#313131"></path>
                <path d="M198,568 C198,568 1606,197 227,24" id="Path-2" stroke="#313131"></path>
                <g id="Earth" transform="translate(404.000000, 269.000000)" fill-rule="nonzero">
                    <circle id="Oval" fill="url(#radialGradient-4)" transform="translate(33.458477, 33.457399) rotate(-45.000000) translate(-33.458477, -33.457399) " cx="33.4584771" cy="33.4573988" r="23.612659"></circle>
                    <path d="M52.6279191,47.2485549 C43.4462693,54.699928 30.1697395,54.215105 21.5560282,46.1138933 C12.9423169,38.0126817 11.6450204,24.7907938 18.5198844,15.1698844 C11.3759033,20.9675863 8.24776393,30.3854529 10.5033471,39.3052151 C12.7589303,48.2249773 19.9878624,55.0238014 29.0290571,56.7286801 C38.0702518,58.4335587 47.2787825,54.7343115 52.6279191,47.2485549 L52.6279191,47.2485549 Z" id="Shape" fill="#000000" opacity="0.04"></path>
                    <path d="M33.4573988,9.84473988 C46.504727,9.84473988 57.0816763,20.4216892 57.0816763,33.4690173 C57.0816763,46.5163455 46.504727,57.0932948 33.4573988,57.0932948 C20.4100707,57.0932948 9.83312139,46.5163455 9.83312139,33.4690173 C9.83312139,20.4216892 20.4100707,9.84473988 33.4573988,9.84473988 L33.4573988,9.84473988 Z M33.4573988,9.29479769 C23.6822678,9.29323129 14.868861,15.1806295 11.1273567,24.2113733 C7.38585237,33.2421171 9.45318718,43.6374875 16.3652487,50.549549 C23.2773102,57.4616105 33.6726805,59.5289453 42.7034244,55.787441 C51.7341682,52.0459367 57.6215664,43.2325299 57.62,33.4573988 C57.6050597,20.1189561 46.7958416,9.30973795 33.4573988,9.29479769 L33.4573988,9.29479769 Z" id="Shape" fill="#28A0DD"></path>
                    <path d="M35.994104,33.4845087 C33.4845087,33.9492486 30.9620039,34.3171676 28.4265896,34.5882659 C24.7452078,34.9823625 21.044939,35.1737112 17.3425434,35.1614451 C16.1458382,35.1614451 15.1892486,34.3016763 15.2202312,33.2869942 C15.2512139,32.2723121 16.2116763,31.4706358 17.3580347,31.4745087 C20.9233339,31.4854999 24.4865448,31.3006163 28.0315607,30.9206936 C30.4714451,30.6625048 32.9022929,30.3087861 35.324104,29.8595376 C36.4859538,29.6465318 37.2217919,28.6395954 37.012659,27.6481503 C36.7338691,26.6195752 35.6932092,25.994154 34.654104,26.2306936 C32.3304046,26.661869 29.9925048,27.0026782 27.6404046,27.2531214 C25.8511561,27.446763 24.0580347,27.5874759 22.2610405,27.6752601 C21.7521914,27.7179447 21.2475023,27.5546022 20.8601584,27.221865 C20.4728145,26.8891278 20.2352322,26.4148425 20.2006936,25.9053757 C20.2002825,24.8567438 21.0346693,23.9983212 22.0828902,23.9689595 C23.8050096,23.888921 25.5258382,23.7598266 27.2453757,23.5816763 L28.2019653,23.473237 C28.6998534,23.4247005 29.1571671,23.1775469 29.4705577,22.7876307 C29.7839483,22.3977145 29.9269635,21.8979472 29.8672832,21.4012717 C29.7116855,20.3933793 28.7845049,19.6907101 27.7720809,19.8134104 C26.7393256,19.9321773 25.7065703,20.0354528 24.673815,20.123237 C21.0733147,20.4155315 17.4580154,20.4814994 13.8492486,20.3207514 C11.2344283,24.2023955 9.83987345,28.7771829 9.84473988,33.4573988 C9.84479433,35.1936762 10.0343953,36.9247591 10.4101734,38.6198844 C15.6540519,38.9839653 20.9178946,38.952895 26.1571098,38.5269364 C26.2810405,38.5269364 26.4049711,38.4998266 26.5443931,38.4765896 C29.9369942,38.1874181 33.3166859,37.7317148 36.6834682,37.1094798 C37.9111561,36.8848555 38.7360694,35.8624277 38.5269364,34.8709827 C38.3178035,33.8795376 37.1791908,33.2676301 35.994104,33.4845087 Z" id="Shape" fill="#5CE075"></path>
                    <path d="M42.0667052,43.9140462 C41.1977374,44.0680552 40.6079809,44.8841136 40.7344509,45.7575145 C40.8112288,46.1829886 41.056186,46.5595874 41.4140023,46.8022612 C41.7718186,47.0449349 42.2123151,47.1332161 42.6360116,47.0471676 C42.9109827,47.0006936 43.1820809,46.946474 43.4531792,46.8961272 C44.9222736,46.6147013 46.3797495,46.2893834 47.8256069,45.9201734 C48.6939965,45.6827632 49.5949067,46.1733917 49.8665896,47.0316763 C49.9656087,47.4612873 49.8881392,47.9126642 49.6515387,48.2846731 C49.4149381,48.6566819 49.0389868,48.918222 48.6079191,49.0106936 C47.1026782,49.395395 45.5858189,49.7336224 44.057341,50.0253757 C42.0537958,50.412659 40.0347592,50.7237765 38.0002312,50.9587283 C37.0832043,51.0267538 36.3828659,51.8056668 36.4123699,52.7247399 C36.4817393,53.1679126 36.7253762,53.5649708 37.0890601,53.8275506 C37.452744,54.0901304 37.9062984,54.1964442 38.3487861,54.1228324 C40.4633526,53.8801349 42.5624277,53.5573988 44.6460116,53.1546243 C45.5212717,52.9880925 46.392659,52.8021965 47.2640462,52.6046821 L47.2640462,52.6046821 C47.593237,52.3684393 47.9146821,52.120578 48.2322543,51.8688439 L48.2671098,51.8378613 C48.6853757,51.5022158 49.0920231,51.1497881 49.487052,50.780578 L49.5180347,50.757341 C49.8084971,50.4823699 50.0950867,50.203526 50.3739306,49.9169364 L50.3739306,49.9169364 C50.4707514,49.8239884 50.5598266,49.7271676 50.6527746,49.626474 L50.6527746,49.626474 C50.9277457,49.3321387 51.1949711,49.0339306 51.4583237,48.724104 L51.4854335,48.6931214 C51.8301156,48.2787283 52.1631792,47.8565896 52.4846243,47.4189595 L52.5078613,47.3879769 C52.744104,47.062659 52.976474,46.7295954 53.1972254,46.3887861 L53.1972254,46.3887861 C53.2746821,46.276474 53.3443931,46.160289 53.4179769,46.0479769 L53.4179769,46.0479769 C53.6348555,45.7032948 53.8401156,45.3547399 54.0376301,44.9984393 L54.0376301,44.9674566 C54.3009827,44.4949711 54.5488439,44.0069942 54.7812139,43.5112717 L54.7812139,43.480289 C54.9554913,43.0930058 55.1220231,42.7289595 55.2769364,42.3455491 L55.2769364,42.3455491 C55.5054335,41.7607514 55.5364162,41.6678035 55.7300578,41.1217341 C55.8501156,40.7731792 55.9624277,40.4168786 56.0631214,40.060578 C53.1236416,41.1062428 47.6823121,42.7715607 44.6305202,43.4260694 C43.8094798,43.5887283 42.9548748,43.7513873 42.0667052,43.9140462 Z" id="Shape" fill="#5CE075"></path>
                    <path d="M64.7924855,38.3604046 L50.180289,38.3604046 C49.1495872,38.3582839 48.3139679,37.5243946 48.309711,36.4936994 L48.309711,36.4936994 C48.3139679,35.4630042 49.1495872,34.629115 50.180289,34.6269942 L64.7924855,34.6269942 C65.8231874,34.629115 66.6588067,35.4630042 66.6630636,36.4936994 L66.6630636,36.4936994 C66.6588067,37.5243946 65.8231874,38.3582839 64.7924855,38.3604046 Z" id="Shape" fill="#E6E6E6"></path>
                    <path d="M54.0608671,34.6269942 C54.0624342,33.8262059 53.5812569,33.1033966 52.8418742,32.7958617 C52.1024916,32.4883267 51.2506465,32.6566858 50.6838482,33.2223749 C50.1170499,33.788064 49.9470225,34.6395776 50.2531085,35.3795613 C50.5591945,36.119545 51.2810598,36.6021372 52.0818497,36.6021387 C53.1733202,36.6021408 54.0587311,35.7184626 54.0608671,34.6269942 Z" id="Shape" fill="#E6E6E6"></path>
                    <path d="M64.2464162,34.6269942 C64.2479833,33.8262059 63.766806,33.1033966 63.0274234,32.7958617 C62.2880407,32.4883267 61.4361956,32.6566858 60.8693973,33.2223749 C60.302599,33.788064 60.1325717,34.6395776 60.4386576,35.3795613 C60.7447436,36.119545 61.4666089,36.6021372 62.2673988,36.6021387 C63.3588693,36.6021408 64.2442802,35.7184626 64.2464162,34.6269942 Z" id="Shape" fill="#E6E6E6"></path>
                    <circle id="Oval" fill="#E6E6E6" transform="translate(57.067531, 34.627084) rotate(-45.000000) translate(-57.067531, -34.627084) " cx="57.0675312" cy="34.6270845" r="3.22219653"></circle>
                    <path d="M52.6279191,47.2485549 C43.4462693,54.699928 30.1697395,54.215105 21.5560282,46.1138933 C12.9423169,38.0126817 11.6450204,24.7907938 18.5198844,15.1698844 C11.3759033,20.9675863 8.24776393,30.3854529 10.5033471,39.3052151 C12.7589303,48.2249773 19.9878624,55.0238014 29.0290571,56.7286801 C38.0702518,58.4335587 47.2787825,54.7343115 52.6279191,47.2485549 L52.6279191,47.2485549 Z" id="Shape" fill="#000000" opacity="0.04"></path>
                    <path d="M24.8480925,51.6635838 L14.5386127,51.6635838 C13.8107554,51.6635869 13.2201114,51.074675 13.2179769,50.3468208 L13.2179769,50.3468208 C13.2201114,49.6189667 13.8107554,49.0300547 14.5386127,49.0300578 L24.8480925,49.0300578 C25.5744378,49.0321847 26.1627286,49.6204755 26.1648555,50.3468208 L26.1648555,50.3468208 C26.1627286,51.0731661 25.5744378,51.6614569 24.8480925,51.6635838 L24.8480925,51.6635838 Z" id="Shape" fill="#E6E6E6"></path>
                    <path d="M17.2767052,49.026185 C17.2782714,48.4600075 16.9382125,47.9487805 16.4154309,47.7313897 C15.8926494,47.5139989 15.2903668,47.6333674 14.8900174,48.0337168 C14.489668,48.4340662 14.3702994,49.0363488 14.5876903,49.5591304 C14.8050811,50.0819119 15.3163081,50.4219708 15.8824855,50.4204046 C16.6524918,50.4204046 17.2767052,49.7961912 17.2767052,49.026185 Z" id="Shape" fill="#E6E6E6"></path>
                    <path d="M24.4608092,49.026185 C24.4623766,48.4603596 24.1227379,47.9493769 23.6004326,47.731758 C23.0781272,47.514139 22.4761486,47.632796 22.0754936,48.0323413 C21.6748385,48.4318865 21.5545121,49.0335336 21.7706814,49.5564406 C21.9868506,50.0793476 22.4968892,50.4204025 23.0627168,50.4204046 C23.833352,50.4204076 24.4586745,49.7968173 24.4608092,49.026185 L24.4608092,49.026185 Z" id="Shape" fill="#E6E6E6"></path>
                    <circle id="Oval" fill="#E6E6E6" cx="19.3951445" cy="49.026185" r="2.2733526"></circle>
                </g>
                <g id="Jupiter" transform="translate(552.000000, 227.000000)">
                    <g id="mars">
                        <circle id="Oval" fill="url(#radialGradient-5)" fill-rule="nonzero" transform="translate(46.442364, 46.440867) rotate(-45.000000) translate(-46.442364, -46.440867) " cx="46.4423637" cy="46.4408671" r="32.7757803"></circle>
                        <path d="M73.0506936,65.583815 C60.3060156,75.9267657 41.8773997,75.2538024 29.9210541,64.008837 C17.9647085,52.7638716 16.1639836,34.4111019 25.7067052,21.0567052 C15.7904329,29.1042616 11.4483887,42.1768227 14.5792729,54.5579852 C17.710157,66.9391477 27.7443462,76.3763214 40.2940643,78.7427947 C52.8437824,81.109268 65.6257728,75.9744921 73.0506936,65.583815 L73.0506936,65.583815 Z" id="Shape" fill="#6B1200" fill-rule="nonzero" opacity="0.04"></path>
                        <path d="M46.4408671,13.6650867 C64.5513375,13.6650867 79.2327746,28.3465238 79.2327746,46.4569942 C79.2327746,64.5674647 64.5513375,79.2489017 46.4408671,79.2489017 C28.3303966,79.2489017 13.6489595,64.5674647 13.6489595,46.4569942 C13.6489595,28.3465238 28.3303966,13.6650867 46.4408671,13.6650867 L46.4408671,13.6650867 Z M46.4408671,12.9017341 C32.8724016,12.8995598 20.6388667,21.07162 15.4454354,33.6068316 C10.252004,46.1420432 13.1215882,60.5714379 22.7159422,70.1657919 C32.3102962,79.7601459 46.7396909,82.6297301 59.2749025,77.4362987 C71.8101141,72.2428674 79.9821743,60.0093325 79.98,46.4408671 C79.959262,27.9263122 64.9554219,12.9224721 46.4408671,12.9017341 L46.4408671,12.9017341 Z" id="Shape" fill="#BA5117" fill-rule="nonzero"></path>
                        <path d="M73.0506936,65.583815 C60.3060156,75.9267657 41.8773997,75.2538024 29.9210541,64.008837 C17.9647085,52.7638716 16.1639836,34.4111019 25.7067052,21.0567052 C15.7904329,29.1042616 11.4483887,42.1768227 14.5792729,54.5579852 C17.710157,66.9391477 27.7443462,76.3763214 40.2940643,78.7427947 C52.8437824,81.109268 65.6257728,75.9744921 73.0506936,65.583815 L73.0506936,65.583815 Z" id="Shape" fill="#822B00" fill-rule="nonzero" opacity="0.14"></path>
                        <path d="M24.4219075,33.0445665 C25.8572254,30.5072254 27.647341,29.082659 29.1686705,29.3568208 C28.8610019,28.9990531 28.5306068,28.6614755 28.1795376,28.346185 C26.6850867,27.5021965 24.1907514,29.1364162 22.5780347,31.9909249 C20.9653179,34.8454335 20.8416763,37.839711 22.3361272,38.7052023 C22.7770745,38.8589447 23.2278599,38.9828658 23.6854335,39.0761272 C22.6747977,37.8988439 22.9919653,35.5819075 24.4219075,33.0445665 Z" id="Shape" fill="#822B00" fill-rule="nonzero" opacity="0.14"></path>
                        <path d="M28.1795376,28.346185 C29.6739884,29.1901734 29.566474,32.1898266 27.9537572,35.0443353 C26.3410405,37.8988439 23.830578,39.5276879 22.3361272,38.7052023 C20.8416763,37.8827168 20.9653179,34.8454335 22.5780347,31.9909249 C24.1907514,29.1364162 26.6850867,27.5021965 28.1795376,28.346185 Z" id="Shape" stroke="#BA5117" stroke-width="1.42"></path>
                        <path d="M31.7705202,24.6906936 C32.9800578,23.6155491 34.1842197,23.1962428 34.9260694,23.6155491 C34.8314026,23.3733787 34.7200366,23.1380731 34.5927746,22.9113295 C33.9584393,22.1963584 32.3403468,22.5941618 30.980289,23.8036994 C29.6202312,25.013237 29.0289017,26.5614451 29.6524855,27.2764162 C29.8571389,27.4337869 30.0707334,27.5791747 30.2921965,27.7118497 C29.9696532,26.9216185 30.5556069,25.7604624 31.7705202,24.6906936 Z" id="Shape" fill="#822B00" fill-rule="nonzero" opacity="0.14"></path>
                        <path d="M34.5927746,22.9059538 C35.2217341,23.6209249 34.6304046,25.1745087 33.2649711,26.3840462 C31.8995376,27.5935838 30.2814451,27.996763 29.6524855,27.2764162 C29.023526,26.5560694 29.6148555,25.0024855 30.980289,23.7983237 C32.3457225,22.5941618 33.9584393,22.1909827 34.5927746,22.9059538 Z" id="Shape" stroke="#BA5117" stroke-width="1.42"></path>
                    </g>
                    <path d="M79.2220231,46.4408671 C79.2224945,43.0399063 78.69476,39.659504 77.6576879,36.4205202 C69.553475,39.4256369 61.2354405,41.8191607 52.7734682,43.5809827 L52.6874566,43.5809827 L52.6874566,43.5809827 C49.2111561,44.2977457 45.7115607,44.9123699 42.1886705,45.4248555 C40.0706358,45.7312717 38.5116763,47.5052601 38.7374566,49.4297688 L38.8127168,50.0856069 C39.0384971,52.0047399 41.0543931,53.359422 43.2799422,53.0368786 C53.0984845,51.6233103 62.7841375,49.4046179 72.2389595,46.403237 C74.3569942,45.7312717 76.5932948,46.6290173 77.2276301,48.456763 C77.2975145,48.6610405 77.3673988,48.8706936 77.442659,49.0803468 C78.0769942,50.9080925 76.7868208,53.0261272 74.5666474,53.7303468 C65.9488816,56.4665339 57.1459457,58.581035 48.2256069,60.0575723 C45.9247977,60.4338728 44.252948,62.2616185 44.5163584,64.1807514 L44.6184971,64.8527168 C44.8819075,66.766474 47.0752023,68.0781503 49.483526,67.6588439 C58.3172726,66.1990723 67.0409015,64.1371563 75.5934104,61.4875145 C77.9898153,56.8346839 79.2342205,51.6745503 79.2220231,46.4408671 L79.2220231,46.4408671 Z" id="Shape" fill="#BA5117" fill-rule="nonzero"></path>
                    <path d="M44.0809249,33.1359538 C44.1185549,33.3563584 44.156185,33.576763 44.1884393,33.7917919 C44.3708657,34.7320564 44.9235167,35.5595585 45.7221594,36.0882802 C46.5208021,36.6170018 47.4984236,36.802579 48.4352601,36.6032948 C49.3276301,36.4312717 50.22,36.2538728 51.1231214,36.0657225 L51.1231214,36.0657225 L51.2091329,36.0657225 C59.1087697,34.4151448 66.8775673,32.1908683 74.4537572,29.410578 C73.0387484,27.0899998 71.3414009,24.95387 69.400578,23.0510983 C62.9134157,25.3113725 56.2853312,27.1448253 49.5587861,28.539711 C48.7147977,28.7171098 47.8654335,28.8837572 47.0160694,29.0504046 C45.0944171,29.3953554 43.7945426,31.2047046 44.0809249,33.1359538 L44.0809249,33.1359538 Z" id="Shape" fill="#BA5117" fill-rule="nonzero"></path>
                    <circle id="Oval" fill="url(#radialGradient-5)" fill-rule="nonzero" opacity="0.53" transform="translate(46.442364, 46.440867) rotate(-45.000000) translate(-46.442364, -46.440867) " cx="46.4423637" cy="46.4408671" r="32.7757803"></circle>
                </g>
                <g id="Mars" transform="translate(500.000000, 142.000000)" fill-rule="nonzero">
                    <circle id="Oval" fill="url(#radialGradient-6)" transform="translate(30.549778, 30.550533) rotate(-45.000000) translate(-30.549778, -30.550533) " cx="30.5497783" cy="30.5505325" r="21.3897041"></circle>
                    <path d="M47.9156805,43.0392899 C39.6045615,49.8263612 27.5510258,49.4052511 19.7338277,42.0547104 C11.9166295,34.7041698 10.7553282,22.6993193 17.0186391,13.9866864 C10.5782182,19.246098 7.76944265,27.7613349 9.81671344,35.8204361 C11.8639842,43.8795374 18.3962485,50.0218499 26.5659625,51.5698176 C34.7356765,53.1177854 43.0621393,49.7908505 47.9156805,43.0392899 L47.9156805,43.0392899 Z" id="Shape" fill="#6B1200" opacity="0.04"></path>
                    <path d="M30.5505325,9.1608284 C42.3637399,9.1608284 51.9402367,18.7373251 51.9402367,30.5505325 C51.9402367,42.3637399 42.3637399,51.9402367 30.5505325,51.9402367 C18.7373251,51.9402367 9.1608284,42.3637399 9.1608284,30.5505325 C9.1608284,18.7373251 18.7373251,9.1608284 30.5505325,9.1608284 L30.5505325,9.1608284 Z M30.5505325,8.66272189 C18.4622285,8.66272189 8.66272189,18.4622285 8.66272189,30.5505325 C8.66272189,42.6388366 18.4622285,52.4383432 30.5505325,52.4383432 C42.6388366,52.4383432 52.4383432,42.6388366 52.4383432,30.5505325 C52.4264051,18.4671769 42.6338882,8.67466001 30.5505325,8.66272189 L30.5505325,8.66272189 Z" id="Shape" fill="#B73A18"></path>
                    <path d="M47.9156805,43.0392899 C39.6045615,49.8263612 27.5510258,49.4052511 19.7338277,42.0547104 C11.9166295,34.7041698 10.7553282,22.6993193 17.0186391,13.9866864 C10.5782182,19.246098 7.76944265,27.7613349 9.81671344,35.8204361 C11.8639842,43.8795374 18.3962485,50.0218499 26.5659625,51.5698176 C34.7356765,53.1177854 43.0621393,49.7908505 47.9156805,43.0392899 L47.9156805,43.0392899 Z" id="Shape" fill="#7F2100" opacity="0.14"></path>
                    <path d="M42.3823669,12.6656213 C41.0973964,13.2840434 39.8015976,13.8747929 38.4949704,14.4378698 C32.8937719,16.8547932 27.0884797,18.7681479 21.1478698,20.1552663 C20.5992308,20.2852071 20.0469822,20.407929 19.4947337,20.516213 C18.2505045,20.7774157 17.4376461,21.9783381 17.6575148,23.2305325 C17.6863905,23.3713018 17.7116568,23.5156805 17.7405325,23.6564497 C17.8708358,24.27334 18.246143,24.8108348 18.7803865,25.1456728 C19.31463,25.4805108 19.9619735,25.5839639 20.5739645,25.4323077 L22.3065089,25.0424852 L22.3065089,25.0424852 L22.3606509,25.0424852 C29.1606075,23.4428959 35.7896597,21.1884863 42.1549704,18.3108284 C43.3260164,17.7464119 44.7337566,18.2087501 45.3421302,19.357574 L45.526213,19.7473964 C46.0784615,20.8807692 45.4937278,22.3065089 44.2195858,22.8840237 C37.551794,25.8914392 30.6084707,28.2461735 23.4868047,29.9152663 L23.4290533,29.9152663 L23.4290533,29.9152663 C21.1719329,30.4494675 18.8967653,30.9114793 16.6035503,31.3013018 C15.2247337,31.5359172 14.2393491,32.716213 14.416213,33.9650888 L14.477574,34.3946154 C14.6544379,35.6434911 15.9935503,36.491716 17.4409467,36.2462722 C23.8185721,35.1658878 30.0962521,33.5614577 36.2101775,31.4492899 C37.5817751,30.9764497 39.0544379,31.5286982 39.4984024,32.7089941 L39.6463905,33.1132544 C40.090355,34.2935503 39.2854438,35.6976331 37.8416568,36.1921302 C32.2698791,38.1182725 26.5666025,39.6405938 20.7760947,40.7472781 C19.2817751,41.032426 18.2205917,42.252426 18.4227219,43.4976923 C18.4479882,43.6384615 18.469645,43.7792308 18.4949112,43.9236095 C18.6970414,45.1688757 20.1516568,45.973787 21.7145562,45.6742012 C29.863316,44.1217103 37.8417204,41.7801695 45.5370414,38.6826627 C45.7930692,38.575965 46.0354206,38.4390365 46.2589349,38.2747929 C47.9433531,37.5841815 49.6061144,36.862288 51.2472189,36.1091124 C53.6536763,27.200753 50.0810723,17.7528445 42.3823669,12.6656213 L42.3823669,12.6656213 Z" id="Shape" fill="#B73A18"></path>
                    <ellipse id="Oval" fill="#ED7248" style="mix-blend-mode: darken;" transform="translate(31.245084, 26.773779) rotate(-4.310000) translate(-31.245084, -26.773779) " cx="31.2450837" cy="26.7737791" rx="17.249645" ry="13.8386982"></ellipse>
                </g>
                <g id="Mercury" transform="translate(322.000000, 261.000000)" fill-rule="nonzero">
                    <circle id="Oval" fill="url(#radialGradient-7)" transform="translate(13.977761, 13.979053) rotate(-13.280000) translate(-13.977761, -13.979053) " cx="13.9777608" cy="13.979053" r="11.6133333"></circle>
                    <circle id="Oval" fill="url(#radialGradient-8)" transform="translate(13.977761, 13.979053) rotate(-13.280000) translate(-13.977761, -13.979053) " cx="13.9777608" cy="13.979053" r="11.6133333"></circle>
                    <path d="M23.407619,20.7619048 C18.8918396,24.4266881 12.3620894,24.1882393 8.12563719,20.203848 C3.88918499,16.2194568 3.25114011,9.7165809 6.63238095,4.9847619 C3.11878116,7.83622583 1.58027906,12.468183 2.68963484,16.8551591 C3.79899062,21.2421353 7.35437153,24.5859777 11.8010714,25.4244823 C16.2477713,26.2629869 20.7767715,24.4435988 23.407619,20.7619048 L23.407619,20.7619048 Z" id="Shape" fill="#262626" opacity="0.09"></path>
                    <path d="M13.9790476,2.36571429 C20.3960704,2.36571429 25.5980952,7.5677391 25.5980952,13.9847619 C25.5980952,20.4017847 20.3960704,25.6038095 13.9790476,25.6038095 C7.56202481,25.6038095 2.36,20.4017847 2.36,13.9847619 C2.36,7.5677391 7.56202481,2.36571429 13.9790476,2.36571429 L13.9790476,2.36571429 Z M13.9790476,2.0952381 C9.17155161,2.09523816 4.83746843,4.99130561 2.99789735,9.43292649 C1.15832627,13.8745474 2.17556669,18.9869544 5.57525212,22.386095 C8.97493754,25.7852356 14.0875075,26.8016567 18.5288335,24.9613738 C22.9701595,23.1210908 25.8655323,18.7865436 25.8647619,13.9790476 C25.857412,7.41810416 20.5399922,2.10153652 13.9790476,2.0952381 L13.9790476,2.0952381 Z" id="Shape" fill="#424242"></path>
                    <path d="M19.9504762,21.3047619 L19.8990476,21.0761905 C19.7504762,20.407619 18.9695238,20.007619 18.16,20.1638095 C15.0057143,20.7790476 14.5657143,20.6857143 11.3714286,20.8419048 C10.5447619,20.8819048 9.84761905,20.3371429 9.84761905,19.6533333 L9.84761905,19.4190476 C9.83238095,18.7333333 10.4647619,18.16 11.2514286,18.12 C14.7618916,17.9499375 18.2524035,17.4912464 21.687619,16.7485714 C22.4666667,16.5790476 22.967619,15.88 22.8057143,15.2152381 C22.7866667,15.1390476 22.7695238,15.0628571 22.7504762,14.9866667 C22.5885714,14.3219048 21.8514286,13.9257143 21.1104762,14.0857143 C19.8787302,14.352381 18.6406349,14.5803175 17.3961905,14.7695238 L17.3961905,14.7695238 L17.3638095,14.7695238 C13.4375949,15.3658779 9.46281471,15.5802137 5.4952381,15.4095238 C4.73333333,15.3771429 4.16190476,14.7752381 4.20190476,14.0933333 L4.21904762,13.8590476 C4.2932178,13.1571847 4.90919333,12.6396642 5.61333333,12.687619 C9.40459859,12.8519826 13.2028592,12.6465678 16.9542857,12.0742857 L16.9847619,12.0742857 L16.9847619,12.0742857 C17.3028571,12.0266667 17.6209524,11.9752381 17.9371429,11.9219048 C18.2732348,11.8728169 18.5753842,11.6904129 18.7753744,11.4158745 C18.9753645,11.141336 19.0563332,10.7978108 19,10.4628571 C18.9866667,10.3866667 18.9714286,10.3104762 18.9561905,10.232381 C18.8136171,9.55702702 18.1619006,9.11581332 17.4819048,9.23428571 C17.1790476,9.28571429 16.8761905,9.3352381 16.5733333,9.38095238 C13.2967735,9.88199917 9.98205384,10.0898066 6.66857143,10.0019048 C5.49269841,9.97142857 4.31873016,9.90349206 3.14666667,9.79809524 C1.20526647,14.8369576 2.99122461,20.5491825 7.45714286,23.5847619 L7.55619048,23.5847619 C7.70567025,23.6223844 7.85919202,23.6415746 8.01333333,23.6419048 C12.5066667,23.6419048 14.2552381,23.6990476 18.68,22.8342857 C19.5295238,22.6666667 20.0990476,21.9733333 19.9504762,21.3047619 Z" id="Shape" fill="url(#radialGradient-9)" opacity="0.39"></path>
                    <path d="M23.407619,20.7619048 C18.8918396,24.4266881 12.3620894,24.1882393 8.12563719,20.203848 C3.88918499,16.2194568 3.25114011,9.7165809 6.63238095,4.9847619 C3.11878116,7.83622583 1.58027906,12.468183 2.68963484,16.8551591 C3.79899062,21.2421353 7.35437153,24.5859777 11.8010714,25.4244823 C16.2477713,26.2629869 20.7767715,24.4435988 23.407619,20.7619048 L23.407619,20.7619048 Z" id="Shape" fill="#262626" opacity="0.09"></path>
                </g>
                <g id="Neptune" transform="translate(753.000000, 281.000000)" fill-rule="nonzero">
                    <circle id="Oval" fill="url(#radialGradient-10)" transform="translate(33.578115, 33.574554) rotate(-67.500000) translate(-33.578115, -33.574554) " cx="33.5781145" cy="33.5745541" r="25.4378146"></circle>
                    <path d="M24.9275497,44.1312583 C31.3973494,43.7483842 37.8279976,42.8672296 44.1623179,41.4956291 C45.6975497,41.1672848 46.6825828,39.7917881 46.3808609,38.4828477 L46.2743709,38.0391391 C45.9549007,36.7301987 44.4995364,35.9492715 43.0441722,36.2643046 C35.7480464,37.8438021 28.321028,38.7424713 20.8587417,38.9487417 C20.1775305,38.9973252 19.5054161,38.7698076 18.9937837,38.3174345 C18.4821514,37.8650613 18.1740256,37.2258739 18.1388079,36.5438411 L18.1388079,36.1001325 C18.1888573,34.7114192 19.3271455,33.6103556 20.716755,33.6064901 C26.1128631,33.4547518 31.4918238,32.9269376 36.8145033,32.0268874 C37.4763492,31.9310407 38.0716198,31.5724561 38.4657536,31.0321922 C38.8598875,30.4919283 39.0196072,29.8156002 38.9088079,29.1560927 L38.8200662,28.7123841 C38.539221,27.3831176 37.2568157,26.5144547 35.9182119,26.746755 C35.3236424,26.8488079 34.7246358,26.9419868 34.1433775,27.0351656 L34.1433775,27.0351656 C25.7470846,28.3065756 17.2318014,28.6013869 8.76768212,27.9137086 C6.37371994,38.4372588 10.8736089,49.3269545 19.997947,55.0908609 C26.0792933,54.9787538 32.1464052,54.4614262 38.1589404,53.5423179 L38.1589404,53.5068212 C40.0047682,53.2258057 41.847638,52.9063355 43.6875497,52.5484106 C45.3603311,52.2245033 46.4784768,50.8445695 46.1856291,49.5311921 L46.0880132,49.0874834 C45.7951656,47.7563576 44.2554967,46.9843046 42.6625828,47.312649 C40.8877483,47.6587417 39.1129139,47.9663797 37.3380795,48.2355629 C33.3269536,48.8508389 29.2966004,49.2767991 25.2470199,49.5134437 C23.6230464,49.6110596 22.2564238,48.5550331 22.212053,47.2061589 L22.212053,46.7624503 C22.1454967,45.3647682 23.3790066,44.22 24.9275497,44.1312583 Z" id="Shape" fill="#664CAF"></path>
                    <path d="M54.2256291,48.4263576 C44.3413878,56.4970703 30.0071891,55.9956827 20.7110162,47.2540696 C11.4148434,38.5124565 10.0338442,24.2361305 17.4821192,13.8747682 C9.82224588,20.1292327 6.48131442,30.2561397 8.91576375,39.8407859 C11.3502131,49.425432 19.1187946,56.7305816 28.8348884,58.5716425 C38.5509823,60.4127034 48.4535278,56.4559797 54.2256291,48.4263576 L54.2256291,48.4263576 Z" id="Shape" fill="#6B1200" opacity="0.04"></path>
                    <path d="M33.5754305,8.13317881 C47.6267981,8.13317881 59.0176821,19.5240629 59.0176821,33.5754305 C59.0176821,47.6267981 47.6267981,59.0176821 33.5754305,59.0176821 C19.5240629,59.0176821 8.13317881,47.6267981 8.13317881,33.5754305 C8.13317881,19.5240629 19.5240629,8.13317881 33.5754305,8.13317881 L33.5754305,8.13317881 Z M33.5754305,7.54304636 C23.0459104,7.54125165 13.5521968,13.8827004 9.52148025,23.6101935 C5.49076373,33.3376865 7.71688866,44.5354067 15.1617492,51.9815365 C22.6066098,59.4276662 33.8039504,61.6556999 43.5321304,57.6266415 C53.2603104,53.5975832 59.6033773,44.1049507 59.6033775,33.5754305 C59.586268,19.2069665 47.9438913,7.56260508 33.5754305,7.54304636 L33.5754305,7.54304636 Z" id="Shape" fill="#6047BA"></path>
                    <path d="M54.2256291,48.4263576 C44.3413878,56.4970703 30.0071891,55.9956827 20.7110162,47.2540696 C11.4148434,38.5124565 10.0338442,24.2361305 17.4821192,13.8747682 C9.82224588,20.1292327 6.48131442,30.2561397 8.91576375,39.8407859 C11.3502131,49.425432 19.1187946,56.7305816 28.8348884,58.5716425 C38.5509823,60.4127034 48.4535278,56.4559797 54.2256291,48.4263576 L54.2256291,48.4263576 Z" id="Shape" fill="#230068" opacity="0.15"></path>
                    <path d="M50.866755,14.9174834 C50.667439,15.0104397 50.4593439,15.0832729 50.2455629,15.1349007 C46.6692715,15.974989 43.03234,16.6583002 39.3347682,17.1848344 C37.6974834,17.4155629 36.0557616,17.628543 34.4007285,17.7838411 C32.9054305,17.934702 31.8405298,18.9951656 32.057947,20.1798675 C32.057947,20.3174172 32.106755,20.4505298 32.1333775,20.5880795 C32.3463576,21.7683444 33.8150331,22.6335762 35.3680132,22.469404 C37.0807285,22.2800883 38.7830905,22.0656291 40.4750993,21.8260265 L40.4750993,21.8570861 C45.1757274,21.1720897 49.8345038,20.2255212 54.4297351,19.0217881 C53.3922196,17.5302439 52.197729,16.154274 50.866755,14.9174834 L50.866755,14.9174834 Z" id="Shape" fill="#664CAF"></path>
                    <path d="M28.1666225,11.3234437 C28.3174834,12.5081457 29.6530464,13.4177483 31.1128477,13.3068212 C36.0405663,12.9262099 40.939747,12.2386056 45.7818543,11.2480132 C42.4384843,9.41864342 38.7258796,8.36613211 34.9198675,8.1686755 C33.4201325,8.34172185 31.9159603,8.48370861 30.3984768,8.61238411 C29.0052318,8.70112583 27.9536424,9.72609272 28.1133775,10.9152318 L28.1666225,11.3234437 Z" id="Shape" fill="#664CAF"></path>
                    <circle id="Oval" fill="url(#radialGradient-10)" opacity="0.61" transform="translate(33.578115, 33.574554) rotate(-67.500000) translate(-33.578115, -33.574554) " cx="33.5781145" cy="33.5745541" r="25.4378146"></circle>
                </g>
                <g id="Saturn" transform="translate(631.000000, 133.000000)" fill-rule="nonzero">
                    <g id="saturn-2" transform="translate(7.649007, 0.000000)">
                        <ellipse id="Oval" fill="url(#radialGradient-11)" cx="29.3619868" cy="28.8015789" rx="28.0157616" ry="27.9519298"></ellipse>
                        <ellipse id="Oval" fill="url(#radialGradient-12)" cx="29.3619868" cy="28.8015789" rx="28.0157616" ry="27.9519298"></ellipse>
                        <path d="M52.1101325,45.1178947 C41.2253779,53.9951513 25.4320085,53.4490768 15.1893179,43.8413138 C4.94662724,34.2335507 3.42694289,18.5397792 11.6366887,7.15333333 C3.20660196,14.0286416 -0.467343158,25.1544225 2.21571464,35.6827996 C4.89877244,46.2111767 13.4528029,54.2349569 24.1505278,56.2579097 C34.8482526,58.2808625 45.7518017,53.9365343 52.1101325,45.1178947 L52.1101325,45.1178947 Z" id="Shape" fill="#C1840C" opacity="0.09"></path>
                        <path d="M29.3619868,0.844561404 C44.8348239,0.841758407 57.3813669,13.3521323 57.3879329,28.7897147 C57.3944989,44.2272971 44.8586025,56.7482907 29.3857685,56.7585898 C13.9129345,56.7688889 1.36030444,44.2645949 1.34622517,28.8270175 C1.33945968,21.4088304 4.28796205,14.292088 9.54252328,9.0437735 C14.7970845,3.79545895 21.9268563,0.845908322 29.3619868,0.844561404 L29.3619868,0.844561404 Z M29.3619868,1.65411544e-15 C13.418989,5.86259613e-15 0.494635762,12.8949061 0.494635762,28.8015789 C0.494635762,44.7082518 13.418989,57.6031579 29.3619868,57.6031579 C45.3049845,57.6031579 58.2293377,44.7082518 58.2293377,28.8015789 C58.2124742,12.9018805 45.2979942,0.0168250918 29.3619868,-6.29163388e-15 L29.3619868,1.65411544e-15 Z" id="Shape" fill="#E2C37D"></path>
                        <path d="M13.3602649,11.9510526 C14.7727815,12.887193 14.4617219,15.8278947 12.6718543,18.524386 C10.8819868,21.2208772 8.27622517,22.6403509 6.86370861,21.7042105 C5.45119205,20.7680702 5.76225166,17.8070175 7.55211921,15.1308772 C9.34198675,12.4547368 11.9477483,11.0149123 13.3602649,11.9510526 Z" id="Shape" fill="#BC9342"></path>
                        <path d="M20.0709934,7.05157895 C20.6421192,7.79947368 19.9486093,9.28508772 18.5411921,10.3789474 C17.1337748,11.472807 15.4815894,11.7475439 14.9104636,10.9996491 C14.3393377,10.2517544 15.037947,8.76105263 16.4708609,7.6722807 C17.9037748,6.58350877 19.4998675,6.30368421 20.0709934,7.05157895 Z" id="Shape" fill="#BC9342"></path>
                    </g>
                    <path d="M8.54139073,50.1801754 C4.50991622,50.1664533 1.03284435,47.3517403 0.188675497,43.4185965 C-0.786380292,38.8147713 2.16298754,34.2937527 6.77701987,33.3194737 L7.09827815,33.2482456 L7.34304636,34.4184211 L7.02688742,34.4896491 C3.06052604,35.326782 0.523093381,39.2107722 1.35642384,43.1692982 C2.08649312,46.5500207 5.07522537,48.968997 8.54139073,48.9845614 C9.05566618,48.9845326 9.56848147,48.9299569 10.0711921,48.8217544 L69.8609272,36.2194737 C73.5432,35.4446171 76.0423135,32.0177046 75.6482185,28.283643 C75.2541235,24.5495814 72.0943993,21.7171875 68.3311258,21.7245614 C67.8171616,21.7254452 67.3046098,21.7782882 66.8013245,21.8822807 L66.4800662,21.9535088 L66.235298,20.7833333 L66.551457,20.7121053 C71.1668598,19.7425098 75.6970042,22.6866564 76.6736424,27.2905263 C77.6486982,31.8943515 74.6993303,36.4153701 70.085298,37.3896491 L10.3108609,49.9919298 C9.72907127,50.1150721 9.13612467,50.1781529 8.54139073,50.1801754 Z" id="Shape" fill="#FFFFFF"></path>
                </g>
                <g id="Uranus" transform="translate(578.000000, 361.000000)" fill-rule="nonzero">
                    <circle id="Oval" fill="url(#radialGradient-13)" transform="translate(27.465914, 27.465029) rotate(-45.000000) translate(-27.465914, -27.465029) " cx="27.465914" cy="27.4650289" r="19.383526"></circle>
                    <path d="M42.4708092,39.7398844 C34.5695147,45.3748641 23.7193697,44.3016514 17.075121,37.2279388 C10.4308723,30.1542261 10.0384604,19.2581973 16.1566474,11.7248555 C10.0064585,16.1109962 6.96284475,23.6692125 8.35712663,31.0934318 C9.75140852,38.517651 15.329821,44.4566351 22.6522863,46.3125868 C29.9747515,48.1685386 37.7085509,45.6036672 42.4708092,39.7398844 L42.4708092,39.7398844 Z" id="Shape" fill="#6B1200" opacity="0.04"></path>
                    <path d="M27.4491329,8.08150289 C27.8528902,8.08150289 28.2598266,8.08150289 28.666763,8.11965318 C39.024264,8.88345045 46.9415254,17.6712918 46.6245548,28.052079 C46.3075842,38.4328663 37.8689102,46.7212897 27.484104,46.8517341 C27.0792871,46.8517341 26.6723507,46.8390173 26.2632948,46.8135838 C15.9053762,46.0495078 7.98817678,37.2608003 8.30601203,26.8796023 C8.62384728,16.4984044 17.0638718,8.21049671 27.4491329,8.08150289 L27.4491329,8.08150289 Z M27.4491329,7.6300578 C16.7171313,7.61141443 7.91678578,16.1321019 7.58896107,26.8591116 C7.26113635,37.5861214 15.5247489,46.628295 26.2378613,47.2650289 C26.6511561,47.2904624 27.0708092,47.3031792 27.484104,47.3031792 C38.2161057,47.3218226 47.0164512,38.8011351 47.3442759,28.0741254 C47.6721006,17.3471156 39.4084881,8.30494199 28.6953757,7.66820809 C28.2947977,7.6300578 27.8624277,7.6300578 27.4491329,7.6300578 L27.4491329,7.6300578 Z" id="Shape" fill="#568A91"></path>
                    <g id="Group" opacity="0.56" transform="translate(10.491329, 34.017341)" fill="#C9EBF4">
                        <path d="M21.3514451,0.238439306 C14.4184279,2.01964727 7.29746473,2.96633407 0.139884393,3.0583815 C1.08273193,4.7043138 2.26086305,6.20375341 3.63699422,7.50924855 C10.0047906,7.19416187 16.3243607,6.23552154 22.4991329,4.64797688 C23.1046249,4.50972471 23.6284002,4.13233042 23.9511932,3.60172815 C24.2739862,3.07112587 24.3683209,2.43248043 24.2127168,1.83121387 C23.8456237,0.61468964 22.578839,-0.0904871938 21.3514451,0.238439306 L21.3514451,0.238439306 Z" id="Shape"></path>
                    </g>
                    <g id="Group" opacity="0.56" transform="translate(7.947977, 27.658960)" fill="#C9EBF4">
                        <path d="M13.482948,0.317919075 C9.09545121,1.0607727 4.65891856,1.47732858 0.20982659,1.56416185 C0.345289448,3.10596888 0.665503161,4.62591664 1.16358382,6.09132948 C5.54116918,5.97066822 9.90506604,5.54575129 14.2236994,4.81965318 C14.83921,4.7331453 15.3934477,4.40105133 15.7600283,3.89909953 C16.1266088,3.39714773 16.2742786,2.76813303 16.1693642,2.15549133 C15.9133724,0.920460916 14.726773,0.108798854 13.482948,0.317919075 L13.482948,0.317919075 Z" id="Shape"></path>
                    </g>
                    <g id="Group" opacity="0.3" transform="translate(7.947977, 11.445087)" fill="#568A91">
                        <path d="M34.5228324,28.2947977 C26.6215378,33.9297774 15.7713929,32.8565647 9.12714416,25.7828521 C2.48289547,18.7091394 2.09048349,7.81311058 8.20867052,0.279768786 C2.05848161,4.66590948 -0.985132131,12.2241258 0.409149754,19.6483451 C1.80343164,27.0725643 7.38184417,33.0115484 14.7043094,34.8675001 C22.0267746,36.7234519 29.760574,34.1585805 34.5228324,28.2947977 L34.5228324,28.2947977 Z" id="Shape"></path>
                    </g>
                </g>
                <g id="Venus" transform="translate(377.000000, 161.000000)" fill-rule="nonzero">
                    <circle id="Oval" fill="url(#radialGradient-14)" transform="translate(25.969018, 25.969942) rotate(-45.000000) translate(-25.969018, -25.969942) " cx="25.9690183" cy="25.9699422" r="18.3262428"></circle>
                    <path d="M42.1680925,34.5454335 C35.8959398,41.2437341 25.637821,42.2736855 18.1592217,36.956009 C10.6806224,31.6383325 8.28491946,21.6108499 12.5521387,13.4869364 C7.67098515,18.6997295 6.26059424,26.2723268 8.93779939,32.8928589 C11.6150045,39.5133909 17.8926324,43.9771137 25.0251673,44.3318216 C32.1577022,44.6865294 38.8472306,40.8676759 42.1680925,34.5454335 Z" id="Shape" fill="#6B1200" opacity="0.04"></path>
                    <path d="M25.9939884,7.64069364 C35.5956623,7.70002557 43.5253476,15.1569385 44.1740578,24.7368569 C44.822768,34.3167753 37.9707618,42.7746397 28.4647399,44.1278613 C27.63091,44.2412447 26.7904049,44.2984834 25.9489017,44.2991908 C16.3550651,44.2293967 8.43716386,36.7754301 7.78892524,27.2032642 C7.14068662,17.6310983 13.9813196,9.17766602 23.4781503,7.8150289 C24.3119802,7.70164545 25.1524853,7.64440675 25.9939884,7.64369942 L25.9939884,7.64069364 Z M25.9939884,7.21687861 C25.1323082,7.21748286 24.2716682,7.27673346 23.4180347,7.39421965 C13.6706326,8.75537307 6.63319945,17.4192416 7.2988975,27.2386831 C7.96459555,37.0581247 16.1069767,44.6928947 25.9489017,44.7260116 C31.3697437,44.7251477 36.5257155,42.3815854 40.090836,38.2980276 C43.6559565,34.2144698 45.2823229,28.789411 44.5516763,23.4180347 C43.2777135,14.1416474 35.3574386,7.22583887 25.9939884,7.21387283 L25.9939884,7.21687861 Z" id="Shape" fill="#CE4C29"></path>
                    <path d="M42.1680925,34.5454335 C35.8959398,41.2437341 25.637821,42.2736855 18.1592217,36.956009 C10.6806224,31.6383325 8.28491946,21.6108499 12.5521387,13.4869364 C7.67098515,18.6997295 6.26059424,26.2723268 8.93779939,32.8928589 C11.6150045,39.5133909 17.8926324,43.9771137 25.0251673,44.3318216 C32.1577022,44.6865294 38.8472306,40.8676759 42.1680925,34.5454335 Z" id="Shape" fill="#6B1200" opacity="0.15"></path>
                    <path d="M32.0716763,37.9900578 L32.0055491,37.6684393 C31.8101734,36.7276301 30.7461272,36.1445087 29.6369942,36.3489017 C26.2304432,36.9801156 22.8028516,37.4440077 19.3542197,37.740578 C16.9896724,37.9409634 14.6221195,38.0682081 12.2515607,38.1223121 C13.5276188,39.5662595 15.0227027,40.8006672 16.6820809,41.7803468 C21.2616045,41.506627 25.8199589,40.9515136 30.3313295,40.1181503 C31.4855491,39.8957225 32.267052,38.9308671 32.0716763,37.9900578 Z" id="Shape" fill="#8C3513"></path>
                    <path d="M33.4393064,29.5287861 C33.2168786,28.5939884 32.1979191,28.025896 31.172948,28.2483237 C29.0007707,28.7172254 26.8165703,29.1179961 24.6203468,29.4506358 C22.6485549,29.7391908 20.6727553,29.9696339 18.692948,30.1419653 C15.2066333,30.439834 11.7071879,30.5562147 8.20878613,30.4906358 C8.57142138,31.9263758 9.10843992,33.3123277 9.80786127,34.6175723 C10.1380282,34.4239402 10.5132102,34.3202988 10.8959538,34.3169942 C13.6071676,34.292948 16.3123699,34.1636994 19.0115607,33.9292486 C23.3663246,33.5498292 27.693082,32.8983059 31.966474,31.9784971 C33.0365318,31.747052 33.7278613,30.776185 33.5054335,29.8413873 C33.4904046,29.7572254 33.4663584,29.6339884 33.4393064,29.5287861 Z" id="Shape" fill="#E2CDC7"></path>
                    <path d="M8.27190751,26.6672832 C13.5548867,26.7626224 18.8367704,26.4238339 24.0642775,25.6543353 L24.0642775,25.6543353 C25.2305202,25.4840077 26.3937572,25.2916378 27.5539884,25.0772254 C28.0226591,25.0009381 28.4410402,24.7395808 28.7151602,24.3518564 C28.9892802,23.9641321 29.0961594,23.4825438 29.0117919,23.0152601 C28.9907514,22.907052 28.9667052,22.7988439 28.9456647,22.6906358 C28.7298748,21.7500341 27.8118772,21.1459837 26.862659,21.32 C23.9350289,21.8570328 20.9923699,22.2547977 18.0346821,22.5132948 C15.9346435,22.6976493 13.8305973,22.8078613 11.7225434,22.8439306 C10.4480925,22.8679769 9.17464355,22.8679769 7.90219653,22.8439306 C7.68011716,24.1338241 7.59748349,25.44387 7.65572254,26.7514451 C7.85528419,26.6905697 8.06333056,26.6621536 8.27190751,26.6672832 Z" id="Shape" fill="#8C3513"></path>
                    <path d="M38.8196532,30.5086705 L38.1012717,30.6739884 C37.0713487,30.9024503 36.0495716,30.2588112 35.8108671,29.2312139 L35.8108671,29.2312139 C35.5806615,28.2009888 36.2250188,27.1780715 37.2536416,26.9408092 L37.9720231,26.7784971 C39.0025506,26.5465377 40.0266167,27.1916187 40.2624277,28.2212717 L40.2624277,28.2212717 C40.4907596,29.2504831 39.8468344,30.2713728 38.8196532,30.5086705 L38.8196532,30.5086705 Z" id="Shape" fill="#E2CDC7"></path>
                    <circle id="Oval" fill="url(#radialGradient-14)" opacity="0.6" transform="translate(25.969018, 25.969942) rotate(-45.000000) translate(-25.969018, -25.969942) " cx="25.9690183" cy="25.9699422" r="18.3262428"></circle>
                </g>
                <text id="3-minutes" font-family="Omnes-Bold, Omnes" font-size="18" font-weight="bold" fill="#FFFFFF">
                    <tspan x="295" y="323">3 minutes</tspan>
                </text>
                <text id="6-minutes" font-family="Omnes-Bold, Omnes" font-size="18" font-weight="bold" fill="#FFFFFF">
                    <tspan x="361" y="243">6 minutes</tspan>
                </text>
                <text id="8-minutes" font-family="Omnes-Bold, Omnes" font-size="18" font-weight="bold" fill="#FFFFFF">
                    <tspan x="396" y="365">8 minutes</tspan>
                </text>
                <text id="13-minutes" font-family="Omnes-Bold, Omnes" font-size="18" font-weight="bold" fill="#FFFFFF">
                    <tspan x="485" y="232">13 minutes</tspan>
                </text>
                <text id="44-minutes" font-family="Omnes-Bold, Omnes" font-size="18" font-weight="bold" fill="#FFFFFF">
                    <tspan x="551" y="344">44 minutes</tspan>
                </text>
                <text id="1.4-hours" font-family="Omnes-Bold, Omnes" font-size="18" font-weight="bold" fill="#FFFFFF">
                    <tspan x="631" y="228">1.4 hours</tspan>
                </text>
                <text id="2.7-hours" font-family="Omnes-Bold, Omnes" font-size="18" font-weight="bold" fill="#FFFFFF">
                    <tspan x="565" y="444">2.7  hours</tspan>
                </text>
                <text id="4.3-hours" font-family="Omnes-Bold, Omnes" font-size="18" font-weight="bold" fill="#FFFFFF">
                    <tspan x="745" y="377">4.3  hours</tspan>
                </text>
                <text id="Jupiter" font-family="Omnes-Regular, Omnes" font-size="18" font-weight="normal" fill="#FFFFFF">
                    <tspan x="571" y="324">Jupiter</tspan>
                </text>
                <text id="Earth" font-family="Omnes-Regular, Omnes" font-size="18" font-weight="normal" fill="#FFFFFF">
                    <tspan x="417" y="345">Earth</tspan>
                </text>
                <text id="Mercury" font-family="Omnes-Regular, Omnes" font-size="18" font-weight="normal" fill="#FFFFFF">
                    <tspan x="304" y="303">Mercury</tspan>
                </text>
                <text id="Venus" font-family="Omnes-Regular, Omnes" font-size="18" font-weight="normal" fill="#FFFFFF">
                    <tspan x="379" y="223">Venus</tspan>
                </text>
                <text id="Mars" font-family="Omnes-Regular, Omnes" font-size="18" font-weight="normal" fill="#FFFFFF">
                    <tspan x="513" y="212">Mars</tspan>
                </text>
                <text id="Saturn" font-family="Omnes-Regular, Omnes" font-size="18" font-weight="normal" fill="#FFFFFF">
                    <tspan x="643" y="208">Saturn</tspan>
                </text>
                <text id="Neptune" font-family="Omnes-Regular, Omnes" font-size="18" font-weight="normal" fill="#FFFFFF">
                    <tspan x="570" y="424">Neptune</tspan>
                </text>
                <text id="Uranus" font-family="Omnes-Regular, Omnes" font-size="18" font-weight="normal" fill="#FFFFFF">
                    <tspan x="759" y="357">Uranus</tspan>
                </text>
            </g>
        </g>
    </g>
</svg>